Muli-BoldItalic.ufo
<glyph name="numbersign" format="2">
  <advance width="600"/>
  <unicode hex="0023"/>
  <outline>
    <contour>
      <point x="38" y="0" type="line"/>
      <point x="126" y="0" type="line"/>
      <point x="186" y="172" type="line"/>
      <point x="313" y="172" type="line"/>
      <point x="251" y="0" type="line"/>
      <point x="339" y="0" type="line"/>
      <point x="400" y="172" type="line"/>
      <point x="528" y="172" type="line"/>
      <point x="541" y="252" type="line"/>
      <point x="429" y="252" type="line"/>
      <point x="505" y="461" type="line"/>
      <point x="596" y="461" type="line"/>
      <point x="608" y="542" type="line"/>
      <point x="534" y="542" type="line"/>
      <point x="593" y="705" type="line"/>
      <point x="506" y="705" type="line"/>
      <point x="447" y="542" type="line"/>
      <point x="319" y="542" type="line"/>
      <point x="378" y="705" type="line"/>
      <point x="291" y="705" type="line"/>
      <point x="232" y="542" type="line"/>
      <point x="105" y="542" type="line"/>
      <point x="93" y="461" type="line"/>
      <point x="203" y="461" type="line"/>
      <point x="127" y="252" type="line"/>
      <point x="37" y="252" type="line"/>
      <point x="24" y="172" type="line"/>
      <point x="99" y="172" type="line"/>
    </contour>
    <contour>
      <point x="215" y="252" type="line"/>
      <point x="290" y="461" type="line"/>
      <point x="417" y="461" type="line"/>
      <point x="342" y="252" type="line"/>
    </contour>
  </outline>
</glyph>
<glyph name="dollar" format="2">
  <advance width="600"/>
  <unicode hex="0024"/>
  <outline>
    <contour>
      <point x="202" y="-115" type="line"/>
      <point x="302" y="-115" type="line"/>
      <point x="323" y="17" type="line"/>
      <point x="300" y="-4" type="line"/>
      <point x="440" y="9"/>
      <point x="539" y="78"/>
      <point x="557" y="190" type="curve" smooth="yes"/>
      <point x="574" y="297"/>
      <point x="522" y="364"/>
      <point x="390" y="391" type="curve" smooth="yes"/>
      <point x="297" y="410" type="line" smooth="yes"/>
      <point x="226" y="424"/>
      <point x="202" y="455"/>
      <point x="210" y="504" type="curve" smooth="yes"/>
      <point x="220" y="564"/>
      <point x="279" y="603"/>
      <point x="372" y="603" type="curve" smooth="yes"/>
      <point x="445" y="603"/>
      <point x="507" y="582"/>
      <point x="550" y="543" type="curve"/>
      <point x="597" y="638" type="line"/>
      <point x="554" y="680"/>
      <point x="481" y="706"/>
      <point x="412" y="710" type="curve"/>
      <point x="429" y="694" type="line"/>
      <point x="450" y="820" type="line"/>
      <point x="350" y="820" type="line"/>
      <point x="329" y="694" type="line"/>
      <point x="352" y="709" type="line"/>
      <point x="206" y="698"/>
      <point x="107" y="627"/>
      <point x="87" y="504" type="curve" smooth="yes"/>
      <point x="70" y="398"/>
      <point x="134" y="324"/>
      <point x="246" y="301" type="curve" smooth="yes"/>
      <point x="339" y="282" type="line" smooth="yes"/>
      <point x="415" y="268"/>
      <point x="441" y="238"/>
      <point x="433" y="192" type="curve" smooth="yes"/>
      <point x="425" y="140"/>
      <point x="375" y="102"/>
      <point x="280" y="102" type="curve" smooth="yes"/>
      <point x="186" y="102"/>
      <point x="114" y="127"/>
      <point x="60" y="166" type="curve"/>
      <point x="10" y="67" type="line"/>
      <point x="64" y="22"/>
      <point x="161" y="-1"/>
      <point x="247" y="-6" type="curve"/>
      <point x="222" y="16" type="line"/>
    </contour>
  </outline>
</glyph>
<glyph name="percent" format="2">
  <advance width="950"/>
  <unicode hex="0025"/>
  <outline>
    <contour>
      <point x="286" y="0" type="line"/>
      <point x="809" y="705" type="line"/>
      <point x="696" y="705" type="line"/>
      <point x="174" y="0" type="line"/>
    </contour>
    <contour>
      <point x="236" y="284" type="curve" smooth="yes"/>
      <point x="344" y="284"/>
      <point x="420" y="362"/>
      <point x="440" y="490" type="curve" smooth="yes"/>
      <point x="463" y="631"/>
      <point x="404" y="715"/>
      <point x="286" y="715" type="curve" smooth="yes"/>
      <point x="179" y="715"/>
      <point x="102" y="639"/>
      <point x="81" y="510" type="curve" smooth="yes"/>
      <point x="59" y="368"/>
      <point x="118" y="284"/>
    </contour>
    <contour>
      <point x="241" y="364" type="curve" smooth="yes"/>
      <point x="192" y="364"/>
      <point x="168" y="406"/>
      <point x="184" y="505" type="curve" smooth="yes"/>
      <point x="198" y="596"/>
      <point x="231" y="634"/>
      <point x="280" y="634" type="curve" smooth="yes"/>
      <point x="329" y="634"/>
      <point x="354" y="593"/>
      <point x="339" y="495" type="curve" smooth="yes"/>
      <point x="324" y="406"/>
      <point x="291" y="364"/>
    </contour>
    <contour>
      <point x="697" y="-10" type="curve" smooth="yes"/>
      <point x="805" y="-10"/>
      <point x="880" y="68"/>
      <point x="901" y="197" type="curve" smooth="yes"/>
      <point x="924" y="337"/>
      <point x="864" y="421"/>
      <point x="746" y="421" type="curve" smooth="yes"/>
      <point x="639" y="421"/>
      <point x="563" y="346"/>
      <point x="542" y="217" type="curve" smooth="yes"/>
      <point x="519" y="74"/>
      <point x="578" y="-10"/>
    </contour>
    <contour>
      <point x="702" y="71" type="curve" smooth="yes"/>
      <point x="653" y="71"/>
      <point x="629" y="112"/>
      <point x="644" y="212" type="curve" smooth="yes"/>
      <point x="658" y="302"/>
      <point x="691" y="341"/>
      <point x="741" y="341" type="curve" smooth="yes"/>
      <point x="790" y="341"/>
      <point x="815" y="299"/>
      <point x="799" y="202" type="curve" smooth="yes"/>
      <point x="785" y="112"/>
      <point x="752" y="71"/>
    </contour>
  </outline>
</glyph>
<glyph name="ampersand" format="2">
  <advance width="687.5"/>
  <unicode hex="0026"/>
  <outline>
    <contour>
      <point x="617" y="-10" type="curve"/>
      <point x="671" y="80" type="line"/>
      <point x="620" y="100"/>
      <point x="578" y="132"/>
      <point x="548" y="169" type="curve"/>
      <point x="553" y="139" type="line"/>
      <point x="615" y="213"/>
      <point x="660" y="313"/>
      <point x="682" y="423" type="curve"/>
      <point x="574" y="423" type="line"/>
      <point x="558" y="342"/>
      <point x="526" y="266"/>
      <point x="483" y="211" type="curve"/>
      <point x="507" y="211" type="line"/>
      <point x="360" y="392" type="line"/>
      <point x="357" y="365" type="line"/>
      <point x="474" y="424"/>
      <point x="526" y="485"/>
      <point x="537" y="554" type="curve" smooth="yes"/>
      <point x="553" y="655"/>
      <point x="481" y="715"/>
      <point x="374" y="715" type="curve" smooth="yes"/>
      <point x="246" y="715"/>
      <point x="175" y="647"/>
      <point x="161" y="559" type="curve" smooth="yes"/>
      <point x="151" y="496"/>
      <point x="170" y="439"/>
      <point x="218" y="382" type="curve"/>
      <point x="244" y="405" type="line"/>
      <point x="199" y="381" type="line" smooth="yes"/>
      <point x="102" y="329"/>
      <point x="38" y="273"/>
      <point x="25" y="191" type="curve" smooth="yes"/>
      <point x="6" y="71"/>
      <point x="95" y="-10"/>
      <point x="250" y="-10" type="curve" smooth="yes"/>
      <point x="346" y="-10"/>
      <point x="437" y="28"/>
      <point x="500" y="91" type="curve"/>
      <point x="466" y="92" type="line"/>
      <point x="504" y="51"/>
      <point x="558" y="11"/>
    </contour>
    <contour>
      <point x="269" y="87" type="curve" smooth="yes"/>
      <point x="181" y="87"/>
      <point x="140" y="131"/>
      <point x="150" y="197" type="curve" smooth="yes"/>
      <point x="159" y="251"/>
      <point x="197" y="284"/>
      <point x="266" y="321" type="curve" smooth="yes"/>
      <point x="304" y="342" type="line"/>
      <point x="250" y="345" type="line"/>
      <point x="427" y="132" type="line"/>
      <point x="439" y="162" type="line"/>
      <point x="390" y="113"/>
      <point x="335" y="87"/>
    </contour>
    <contour>
      <point x="369" y="630" type="curve" smooth="yes"/>
      <point x="417" y="630"/>
      <point x="445" y="601"/>
      <point x="437" y="555" type="curve" smooth="yes"/>
      <point x="430" y="507"/>
      <point x="389" y="473"/>
      <point x="299" y="428" type="curve"/>
      <point x="326" y="430" type="line"/>
      <point x="282" y="485"/>
      <point x="270" y="511"/>
      <point x="277" y="557" type="curve" smooth="yes"/>
      <point x="283" y="598"/>
      <point x="318" y="630"/>
    </contour>
  </outline>
</glyph>
<glyph name="parenleft" format="2">
  <advance width="355.5"/>
  <unicode hex="0028"/>
  <outline>
    <contour>
      <point x="159" y="-180" type="curve"/>
      <point x="259" y="-180" type="line"/>
      <point x="237" y="-81"/>
      <point x="223" y="16"/>
      <point x="223" y="98" type="curve" smooth="yes"/>
      <point x="223" y="325"/>
      <point x="298" y="528"/>
      <point x="401" y="705" type="curve"/>
      <point x="297" y="705" type="line"/>
      <point x="180" y="560"/>
      <point x="94" y="355"/>
      <point x="94" y="139" type="curve" smooth="yes"/>
      <point x="94" y="35"/>
      <point x="115" y="-76"/>
    </contour>
  </outline>
</glyph>
<glyph name="parenright" format="2">
  <advance width="355.5"/>
  <unicode hex="0029"/>
  <outline>
    <contour>
      <point x="62" y="-180" type="line"/>
      <point x="179" y="-35"/>
      <point x="265" y="171"/>
      <point x="265" y="386" type="curve" smooth="yes"/>
      <point x="265" y="491"/>
      <point x="244" y="601"/>
      <point x="200" y="705" type="curve"/>
      <point x="100" y="705" type="line"/>
      <point x="122" y="606"/>
      <point x="136" y="510"/>
      <point x="136" y="427" type="curve" smooth="yes"/>
      <point x="136" y="201"/>
      <point x="61" y="-3"/>
      <point x="-42" y="-180" type="curve"/>
    </contour>
  </outline>
</glyph>
<glyph name="asterisk" format="2">
  <advance width="457"/>
  <unicode hex="002A"/>
  <outline>
    <contour>
      <point x="181" y="353" type="line"/>
      <point x="276" y="479" type="line"/>
      <point x="349" y="353" type="line"/>
      <point x="416" y="402" type="line"/>
      <point x="330" y="519" type="line"/>
      <point x="481" y="561" type="line"/>
      <point x="460" y="639" type="line"/>
      <point x="313" y="586" type="line"/>
      <point x="332" y="736" type="line"/>
      <point x="249" y="736" type="line"/>
      <point x="244" y="585" type="line"/>
      <point x="105" y="639" type="line"/>
      <point x="74" y="561" type="line"/>
      <point x="219" y="519" type="line"/>
      <point x="114" y="402" type="line"/>
    </contour>
  </outline>
</glyph>
<glyph name="slash" format="2">
  <advance width="315.5"/>
  <unicode hex="002F"/>
  <outline>
    <contour>
      <point x="34" y="-59" type="line"/>
      <point x="430" y="752" type="line"/>
      <point x="323" y="752" type="line"/>
      <point x="-74" y="-59" type="line"/>
    </contour>
  </outline>
</glyph>
<glyph name="zero" format="2">
  <advance width="600"/>
  <unicode hex="0030"/>
  <outline>
    <contour>
      <point x="270" y="-10" type="curve" smooth="yes"/>
      <point x="426" y="-10"/>
      <point x="535" y="103"/>
      <point x="572" y="340" type="curve" smooth="yes"/>
      <point x="611" y="586"/>
      <point x="535" y="715"/>
      <point x="362" y="715" type="curve" smooth="yes"/>
      <point x="201" y="715"/>
      <point x="98" y="606"/>
      <point x="60" y="369" type="curve" smooth="yes"/>
      <point x="23" y="128"/>
      <point x="93" y="-10"/>
    </contour>
    <contour>
      <point x="278" y="96" type="curve" smooth="yes"/>
      <point x="187" y="96"/>
      <point x="153" y="171"/>
      <point x="183" y="360" type="curve" smooth="yes"/>
      <point x="211" y="538"/>
      <point x="266" y="610"/>
      <point x="354" y="610" type="curve" smooth="yes"/>
      <point x="446" y="610"/>
      <point x="480" y="539"/>
      <point x="450" y="350" type="curve" smooth="yes"/>
      <point x="422" y="171"/>
      <point x="366" y="96"/>
    </contour>
  </outline>
</glyph>
<glyph name="two" format="2">
  <advance width="600"/>
  <unicode hex="0032"/>
  <outline>
    <contour>
      <point x="38" y="0" type="line"/>
      <point x="513" y="0" type="line"/>
      <point x="530" y="107" type="line"/>
      <point x="180" y="107" type="line"/>
      <point x="180" y="73" type="line"/>
      <point x="412" y="276" type="line" smooth="yes"/>
      <point x="501" y="353"/>
      <point x="554" y="419"/>
      <point x="567" y="505" type="curve" smooth="yes"/>
      <point x="587" y="634"/>
      <point x="509" y="715"/>
      <point x="349" y="715" type="curve" smooth="yes"/>
      <point x="259" y="715"/>
      <point x="161" y="684"/>
      <point x="96" y="634" type="curve"/>
      <point x="136" y="538" type="line"/>
      <point x="200" y="587"/>
      <point x="263" y="607"/>
      <point x="330" y="607" type="curve" smooth="yes"/>
      <point x="408" y="607"/>
      <point x="449" y="571"/>
      <point x="438" y="502" type="curve" smooth="yes"/>
      <point x="429" y="448"/>
      <point x="397" y="407"/>
      <point x="331" y="347" type="curve" smooth="yes"/>
      <point x="53" y="95" type="line"/>
    </contour>
  </outline>
</glyph>
<glyph name="five" format="2">
  <advance width="600"/>
  <unicode hex="0035"/>
  <outline>
    <contour>
      <point x="276" y="-10" type="curve" smooth="yes"/>
      <point x="434" y="-10"/>
      <point x="537" y="76"/>
      <point x="557" y="208" type="curve" smooth="yes"/>
      <point x="581" y="358"/>
      <point x="497" y="448"/>
      <point x="367" y="448" type="curve" smooth="yes"/>
      <point x="295" y="448"/>
      <point x="234" y="422"/>
      <point x="192" y="374" type="curve"/>
      <point x="224" y="374" type="line"/>
      <point x="259" y="599" type="line"/>
      <point x="575" y="599" type="line"/>
      <point x="593" y="705" type="line"/>
      <point x="155" y="705" type="line"/>
      <point x="87" y="276" type="line"/>
      <point x="172" y="276" type="line"/>
      <point x="216" y="321"/>
      <point x="265" y="343"/>
      <point x="323" y="343" type="curve" smooth="yes"/>
      <point x="404" y="343"/>
      <point x="447" y="293"/>
      <point x="435" y="216" type="curve" smooth="yes"/>
      <point x="423" y="140"/>
      <point x="364" y="98"/>
      <point x="279" y="98" type="curve" smooth="yes"/>
      <point x="209" y="98"/>
      <point x="144" y="121"/>
      <point x="90" y="168" type="curve"/>
      <point x="45" y="71" type="line"/>
      <point x="93" y="21"/>
      <point x="184" y="-10"/>
    </contour>
  </outline>
</glyph>
<glyph name="less" format="2">
  <advance width="600"/>
  <unicode hex="003C"/>
  <outline>
    <contour>
      <point x="510" y="33" type="line"/>
      <point x="525" y="124" type="line"/>
      <point x="102" y="312" type="line"/>
      <point x="92" y="251" type="line"/>
      <point x="575" y="440" type="line"/>
      <point x="591" y="542" type="line"/>
      <point x="67" y="335" type="line"/>
      <point x="52" y="240" type="line"/>
    </contour>
  </outline>
</glyph>
<glyph name="greater" format="2">
  <advance width="600"/>
  <unicode hex="003E"/>
  <outline>
    <contour>
      <point x="20" y="33" type="line"/>
      <point x="544" y="240" type="line"/>
      <point x="559" y="335" type="line"/>
      <point x="101" y="542" type="line"/>
      <point x="86" y="450" type="line"/>
      <point x="509" y="261" type="line"/>
      <point x="519" y="323" type="line"/>
      <point x="36" y="134" type="line"/>
    </contour>
  </outline>
</glyph>
<glyph name="at" format="2">
  <advance width="965"/>
  <unicode hex="0040"/>
  <outline>
    <contour>
      <point x="502" y="-165" type="curve" smooth="yes"/>
      <point x="620" y="-165"/>
      <point x="721" y="-131"/>
      <point x="785" y="-71" type="curve"/>
      <point x="745" y="-5" type="line"/>
      <point x="686" y="-59"/>
      <point x="602" y="-88"/>
      <point x="502" y="-88" type="curve" smooth="yes"/>
      <point x="291" y="-88"/>
      <point x="152" y="46"/>
      <point x="152" y="268" type="curve" smooth="yes"/>
      <point x="152" y="493"/>
      <point x="300" y="638"/>
      <point x="518" y="638" type="curve" smooth="yes"/>
      <point x="713" y="638"/>
      <point x="841" y="527"/>
      <point x="841" y="342" type="curve" smooth="yes"/>
      <point x="841" y="217"/>
      <point x="788" y="133"/>
      <point x="724" y="133" type="curve" smooth="yes"/>
      <point x="689" y="133"/>
      <point x="672" y="152"/>
      <point x="672" y="194" type="curve" smooth="yes"/>
      <point x="672" y="208"/>
      <point x="674" y="226"/>
      <point x="678" y="248" type="curve" smooth="yes"/>
      <point x="720" y="489" type="line"/>
      <point x="627" y="489" type="line"/>
      <point x="610" y="395" type="line"/>
      <point x="627" y="395" type="line"/>
      <point x="611" y="463"/>
      <point x="565" y="499"/>
      <point x="494" y="499" type="curve" smooth="yes"/>
      <point x="370" y="499"/>
      <point x="280" y="392"/>
      <point x="280" y="246" type="curve" smooth="yes"/>
      <point x="280" y="130"/>
      <point x="341" y="59"/>
      <point x="448" y="59" type="curve" smooth="yes"/>
      <point x="520" y="59"/>
      <point x="585" y="105"/>
      <point x="619" y="196" type="curve"/>
      <point x="588" y="186" type="line"/>
      <point x="590" y="106"/>
      <point x="637" y="59"/>
      <point x="718" y="59" type="curve" smooth="yes"/>
      <point x="834" y="59"/>
      <point x="919" y="169"/>
      <point x="919" y="342" type="curve" smooth="yes"/>
      <point x="919" y="567"/>
      <point x="755" y="715"/>
      <point x="519" y="715" type="curve" smooth="yes"/>
      <point x="251" y="715"/>
      <point x="65" y="536"/>
      <point x="65" y="268" type="curve" smooth="yes"/>
      <point x="65" y="7"/>
      <point x="245" y="-165"/>
    </contour>
    <contour>
      <point x="466" y="138" type="curve" smooth="yes"/>
      <point x="410" y="138"/>
      <point x="378" y="176"/>
      <point x="378" y="247" type="curve" smooth="yes"/>
      <point x="378" y="348"/>
      <point x="433" y="419"/>
      <point x="510" y="419" type="curve" smooth="yes"/>
      <point x="569" y="419"/>
      <point x="596" y="386"/>
      <point x="596" y="322" type="curve" smooth="yes"/>
      <point x="596" y="213"/>
      <point x="542" y="138"/>
    </contour>
  </outline>
</glyph>
<glyph name="B" format="2">
  <advance width="690"/>
  <unicode hex="0042"/>
  <anchor x="311" y="0" name="bottom"/>
  <anchor x="423" y="705" name="top"/>
  <outline>
    <contour>
      <point x="38" y="0" type="line"/>
      <point x="364" y="0" type="line" smooth="yes"/>
      <point x="518" y="0"/>
      <point x="615" y="67"/>
      <point x="634" y="187" type="curve" smooth="yes"/>
      <point x="649" y="284"/>
      <point x="601" y="353"/>
      <point x="501" y="368" type="curve"/>
      <point x="499" y="353" type="line"/>
      <point x="591" y="373"/>
      <point x="654" y="431"/>
      <point x="668" y="515" type="curve" smooth="yes"/>
      <point x="687" y="636"/>
      <point x="612" y="705"/>
      <point x="459" y="705" type="curve" smooth="yes"/>
      <point x="150" y="705" type="line"/>
    </contour>
    <contour>
      <point x="177" y="98" type="line"/>
      <point x="210" y="309" type="line"/>
      <point x="396" y="309" type="line" smooth="yes"/>
      <point x="479" y="309"/>
      <point x="525" y="279"/>
      <point x="512" y="196" type="curve" smooth="yes"/>
      <point x="501" y="128"/>
      <point x="447" y="98"/>
      <point x="361" y="98" type="curve" smooth="yes"/>
    </contour>
    <contour>
      <point x="226" y="406" type="line"/>
      <point x="258" y="608" type="line"/>
      <point x="430" y="608" type="line" smooth="yes"/>
      <point x="515" y="608"/>
      <point x="552" y="574"/>
      <point x="540" y="500" type="curve" smooth="yes"/>
      <point x="531" y="440"/>
      <point x="483" y="406"/>
      <point x="391" y="406" type="curve" smooth="yes"/>
    </contour>
  </outline>
</glyph>
<glyph name="C" format="2">
  <advance width="684.5"/>
  <unicode hex="0043"/>
  <anchor x="358" y="0" name="bottom"/>
  <anchor x="470" y="705" name="top"/>
  <outline>
    <contour>
      <point x="383" y="-10" type="curve" smooth="yes"/>
      <point x="475" y="-10"/>
      <point x="565" y="20"/>
      <point x="631" y="74" type="curve"/>
      <point x="593" y="175" type="line"/>
      <point x="530" y="124"/>
      <point x="465" y="104"/>
      <point x="398" y="104" type="curve" smooth="yes"/>
      <point x="245" y="104"/>
      <point x="182" y="204"/>
      <point x="207" y="360" type="curve" smooth="yes"/>
      <point x="232" y="515"/>
      <point x="325" y="601"/>
      <point x="463" y="601" type="curve" smooth="yes"/>
      <point x="537" y="601"/>
      <point x="586" y="584"/>
      <point x="642" y="538" type="curve"/>
      <point x="688" y="641" type="line"/>
      <point x="637" y="688"/>
      <point x="562" y="715"/>
      <point x="469" y="715" type="curve" smooth="yes"/>
      <point x="255" y="716"/>
      <point x="108" y="589"/>
      <point x="73" y="368" type="curve" smooth="yes"/>
      <point x="38" y="148"/>
      <point x="143" y="-10"/>
    </contour>
  </outline>
</glyph>
<glyph name="E" format="2">
  <advance width="595"/>
  <unicode hex="0045"/>
  <anchor x="293" y="0" name="bottom"/>
  <anchor x="471" y="0" name="ogonek"/>
  <anchor x="405" y="705" name="top"/>
  <anchor x="93" y="705" name="topleft"/>
  <outline>
    <contour>
      <point x="38" y="0" type="line"/>
      <point x="513" y="0" type="line"/>
      <point x="529" y="102" type="line"/>
      <point x="178" y="102" type="line"/>
      <point x="211" y="307" type="line"/>
      <point x="539" y="307" type="line"/>
      <point x="555" y="409" type="line"/>
      <point x="227" y="409" type="line"/>
      <point x="257" y="604" type="line"/>
      <point x="609" y="604" type="line"/>
      <point x="625" y="705" type="line"/>
      <point x="150" y="705" type="line"/>
    </contour>
  </outline>
</glyph>
<glyph name="F" format="2">
  <advance width="572"/>
  <unicode hex="0046"/>
  <anchor x="267" y="0" name="bottom"/>
  <anchor x="382" y="705" name="top"/>
  <outline>
    <contour>
      <point x="38" y="0" type="line"/>
      <point x="167" y="0" type="line"/>
      <point x="215" y="303" type="line"/>
      <point x="528" y="303" type="line"/>
      <point x="544" y="404" type="line"/>
      <point x="231" y="404" type="line"/>
      <point x="262" y="604" type="line"/>
      <point x="598" y="604" type="line"/>
      <point x="615" y="705" type="line"/>
      <point x="150" y="705" type="line"/>
    </contour>
  </outline>
</glyph>
<glyph name="G" format="2">
  <advance width="739.5"/>
  <unicode hex="0047"/>
  <anchor x="381" y="0" name="bottom"/>
  <anchor x="482" y="705" name="top"/>
  <outline>
    <contour>
      <point x="391" y="-10" type="curve" smooth="yes"/>
      <point x="473" y="-10"/>
      <point x="572" y="10"/>
      <point x="638" y="45" type="curve"/>
      <point x="692" y="382" type="line"/>
      <point x="420" y="382" type="line"/>
      <point x="405" y="288" type="line"/>
      <point x="569" y="288" type="line"/>
      <point x="536" y="77" type="line"/>
      <point x="574" y="132" type="line"/>
      <point x="517" y="111"/>
      <point x="465" y="100"/>
      <point x="404" y="100" type="curve" smooth="yes"/>
      <point x="239" y="100"/>
      <point x="181" y="195"/>
      <point x="207" y="355" type="curve" smooth="yes"/>
      <point x="231" y="513"/>
      <point x="326" y="603"/>
      <point x="480" y="603" type="curve" smooth="yes"/>
      <point x="562" y="603"/>
      <point x="607" y="587"/>
      <point x="662" y="546" type="curve"/>
      <point x="709" y="647" type="line"/>
      <point x="659" y="689"/>
      <point x="588" y="715"/>
      <point x="485" y="715" type="curve" smooth="yes"/>
      <point x="263" y="715"/>
      <point x="108" y="589"/>
      <point x="73" y="366" type="curve" smooth="yes"/>
      <point x="37" y="140"/>
      <point x="137" y="-10"/>
    </contour>
  </outline>
</glyph>
<glyph name="J" format="2">
  <advance width="361.5"/>
  <unicode hex="004A"/>
  <anchor x="181" y="0" name="bottom"/>
  <anchor x="293" y="705" name="top"/>
  <outline>
    <contour>
      <point x="20" y="-187" type="curve" smooth="yes"/>
      <point x="158" y="-187"/>
      <point x="224" y="-125"/>
      <point x="247" y="19" type="curve" smooth="yes"/>
      <point x="356" y="705" type="line"/>
      <point x="227" y="705" type="line"/>
      <point x="120" y="29" type="line" smooth="yes"/>
      <point x="108" y="-50"/>
      <point x="76" y="-84"/>
      <point x="15" y="-84" type="curve" smooth="yes"/>
      <point x="-2" y="-84"/>
      <point x="-26" y="-82"/>
      <point x="-51" y="-73" type="curve"/>
      <point x="-67" y="-175" type="line"/>
      <point x="-36" y="-185"/>
      <point x="-3" y="-187"/>
    </contour>
  </outline>
</glyph>
<glyph name="M" format="2">
  <advance width="870"/>
  <unicode hex="004D"/>
  <anchor x="395" y="0" name="bottom"/>
  <anchor x="507" y="705" name="top"/>
  <outline>
    <contour>
      <point x="39" y="0" type="line"/>
      <point x="156" y="0" type="line"/>
      <point x="239" y="523" type="line"/>
      <point x="202" y="523" type="line"/>
      <point x="358" y="0" type="line"/>
      <point x="433" y="0" type="line"/>
      <point x="754" y="523" type="line"/>
      <point x="717" y="523" type="line"/>
      <point x="634" y="0" type="line"/>
      <point x="751" y="0" type="line"/>
      <point x="863" y="705" type="line"/>
      <point x="751" y="705" type="line"/>
      <point x="399" y="122" type="line"/>
      <point x="430" y="122" type="line"/>
      <point x="264" y="705" type="line"/>
      <point x="151" y="705" type="line"/>
    </contour>
  </outline>
</glyph>
<glyph name="O" format="2">
  <advance width="786.5"/>
  <unicode hex="004F"/>
  <anchor x="352" y="-10" name="Qtail"/>
  <anchor x="353" y="0" name="bottom"/>
  <anchor x="415" y="353" name="center"/>
  <anchor x="420" y="0" name="ogonek"/>
  <anchor x="465" y="705" name="top"/>
  <anchor x="97" y="705" name="topleft"/>
  <anchor x="534" y="705" name="topright"/>
  <outline>
    <contour>
      <point x="365" y="-10" type="curve" smooth="yes"/>
      <point x="568" y="-10"/>
      <point x="711" y="117"/>
      <point x="745" y="338" type="curve" smooth="yes"/>
      <point x="780" y="558"/>
      <point x="676" y="715"/>
      <point x="453" y="715" type="curve" smooth="yes"/>
      <point x="250" y="715"/>
      <point x="108" y="589"/>
      <point x="73" y="368" type="curve" smooth="yes"/>
      <point x="39" y="148"/>
      <point x="143" y="-10"/>
    </contour>
    <contour>
      <point x="375" y="100" type="curve" smooth="yes"/>
      <point x="243" y="100"/>
      <point x="181" y="196"/>
      <point x="207" y="358" type="curve" smooth="yes"/>
      <point x="232" y="513"/>
      <point x="310" y="605"/>
      <point x="442" y="605" type="curve" smooth="yes"/>
      <point x="575" y="605"/>
      <point x="637" y="509"/>
      <point x="612" y="348" type="curve" smooth="yes"/>
      <point x="588" y="194"/>
      <point x="507" y="100"/>
    </contour>
  </outline>
</glyph>
<glyph name="P" format="2">
  <advance width="666"/>
  <unicode hex="0050"/>
  <anchor x="290" y="0" name="bottom"/>
  <anchor x="401" y="705" name="top"/>
  <outline>
    <contour>
      <point x="38" y="0" type="line"/>
      <point x="167" y="0" type="line"/>
      <point x="212" y="284" type="line"/>
      <point x="401" y="284" type="line" smooth="yes"/>
      <point x="555" y="284"/>
      <point x="646" y="360"/>
      <point x="665" y="481" type="curve" smooth="yes"/>
      <point x="687" y="618"/>
      <point x="612" y="705"/>
      <point x="451" y="705" type="curve" smooth="yes"/>
      <point x="150" y="705" type="line"/>
    </contour>
    <contour>
      <point x="228" y="386" type="line"/>
      <point x="262" y="604" type="line"/>
      <point x="429" y="604" type="line" smooth="yes"/>
      <point x="516" y="604"/>
      <point x="553" y="564"/>
      <point x="541" y="490" type="curve" smooth="yes"/>
      <point x="530" y="421"/>
      <point x="483" y="386"/>
      <point x="397" y="386" type="curve" smooth="yes"/>
    </contour>
  </outline>
</glyph>
<glyph name="W" format="2">
  <advance width="1120.5"/>
  <unicode hex="0057"/>
  <anchor x="521" y="0" name="bottom"/>
  <anchor x="633" y="705" name="top"/>
  <outline>
    <contour>
      <point x="234" y="0" type="line"/>
      <point x="341" y="0" type="line"/>
      <point x="619" y="542" type="line"/>
      <point x="598" y="542" type="line"/>
      <point x="698" y="0" type="line"/>
      <point x="805" y="0" type="line"/>
      <point x="1168" y="705" type="line"/>
      <point x="1037" y="705" type="line"/>
      <point x="744" y="127" type="line"/>
      <point x="781" y="127" type="line"/>
      <point x="681" y="705" type="line"/>
      <point x="585" y="705" type="line"/>
      <point x="286" y="127" type="line"/>
      <point x="326" y="127" type="line"/>
      <point x="226" y="705" type="line"/>
      <point x="97" y="705" type="line"/>
    </contour>
  </outline>
</glyph>
<glyph name="X" format="2">
  <advance width="670.5"/>
  <unicode hex="0058"/>
  <anchor x="296" y="0" name="bottom"/>
  <anchor x="408" y="705" name="top"/>
  <outline>
    <contour>
      <point x="-51" y="0" type="line"/>
      <point x="106" y="0" type="line"/>
      <point x="367" y="294" type="line"/>
      <point x="322" y="294" type="line"/>
      <point x="489" y="0" type="line"/>
      <point x="636" y="0" type="line"/>
      <point x="406" y="386" type="line"/>
      <point x="404" y="331" type="line"/>
      <point x="744" y="705" type="line"/>
      <point x="586" y="705" type="line"/>
      <point x="339" y="424" type="line"/>
      <point x="380" y="424" type="line"/>
      <point x="222" y="705" type="line"/>
      <point x="76" y="705" type="line"/>
      <point x="297" y="331" type="line"/>
      <point x="300" y="386" type="line"/>
    </contour>
  </outline>
</glyph>
<glyph name="backslash" format="2">
  <advance width="315.5"/>
  <unicode hex="005C"/>
  <outline>
    <contour>
      <point x="195" y="-59" type="line"/>
      <point x="296" y="-59" type="line"/>
      <point x="155" y="752" type="line"/>
      <point x="54" y="752" type="line"/>
    </contour>
  </outline>
</glyph>
<glyph name="asciicircum" format="2">
  <advance width="600"/>
  <unicode hex="005E"/>
  <outline>
    <contour>
      <point x="26" y="140" type="line"/>
      <point x="126" y="140" type="line"/>
      <point x="388" y="590" type="line"/>
      <point x="327" y="590" type="line"/>
      <point x="446" y="140" type="line"/>
      <point x="538" y="140" type="line"/>
      <point x="406" y="628" type="line"/>
      <point x="312" y="628" type="line"/>
    </contour>
  </outline>
</glyph>
<glyph name="d" format="2">
  <advance width="620"/>
  <unicode hex="0064"/>
  <anchor x="272" y="0" name="bottom"/>
  <anchor x="307" y="254" name="center"/>
  <anchor x="494" y="612" name="stroke"/>
  <anchor x="378" y="677" name="top"/>
  <anchor x="671" y="736" name="topright"/>
  <outline>
    <contour>
      <point x="234" y="-10" type="curve" smooth="yes"/>
      <point x="323" y="-10"/>
      <point x="388" y="35"/>
      <point x="421" y="107" type="curve"/>
      <point x="406" y="107" type="line"/>
      <point x="389" y="0" type="line"/>
      <point x="512" y="0" type="line"/>
      <point x="629" y="736" type="line"/>
      <point x="504" y="736" type="line"/>
      <point x="451" y="402" type="line"/>
      <point x="462" y="402" type="line"/>
      <point x="450" y="471"/>
      <point x="386" y="515"/>
      <point x="302" y="515" type="curve" smooth="yes"/>
      <point x="171" y="515"/>
      <point x="69" y="431"/>
      <point x="43" y="268" type="curve" smooth="yes"/>
      <point x="16" y="98"/>
      <point x="95" y="-10"/>
    </contour>
    <contour>
      <point x="275" y="86" type="curve" smooth="yes"/>
      <point x="193" y="86"/>
      <point x="149" y="141"/>
      <point x="168" y="258" type="curve" smooth="yes"/>
      <point x="185" y="365"/>
      <point x="243" y="419"/>
      <point x="321" y="419" type="curve" smooth="yes"/>
      <point x="402" y="419"/>
      <point x="447" y="365"/>
      <point x="429" y="248" type="curve" smooth="yes"/>
      <point x="411" y="140"/>
      <point x="352" y="86"/>
    </contour>
  </outline>
</glyph>
<glyph name="h" format="2">
  <advance width="602.5"/>
  <unicode hex="0068"/>
  <anchor x="263" y="0" name="bottom"/>
  <anchor x="304" y="256" name="center"/>
  <anchor x="326" y="364" name="dot"/>
  <anchor x="237" y="593" name="stroke"/>
  <anchor x="380" y="721" name="top"/>
  <anchor x="299" y="721" name="topright"/>
  <outline>
    <contour>
      <point x="28" y="0" type="line"/>
      <point x="153" y="0" type="line"/>
      <point x="199" y="287" type="line" smooth="yes"/>
      <point x="211" y="365"/>
      <point x="264" y="417"/>
      <point x="342" y="417" type="curve" smooth="yes"/>
      <point x="406" y="417"/>
      <point x="433" y="384"/>
      <point x="420" y="301" type="curve" smooth="yes"/>
      <point x="373" y="0" type="line"/>
      <point x="498" y="0" type="line"/>
      <point x="545" y="301" type="line" smooth="yes"/>
      <point x="568" y="443"/>
      <point x="518" y="515"/>
      <point x="396" y="515" type="curve" smooth="yes"/>
      <point x="312" y="515"/>
      <point x="242" y="477"/>
      <point x="202" y="404" type="curve"/>
      <point x="217" y="404" type="line"/>
      <point x="270" y="736" type="line"/>
      <point x="145" y="736" type="line"/>
    </contour>
  </outline>
</glyph>
<glyph name="j" format="2">
  <advance width="260.5"/>
  <unicode hex="006A"/>
  <anchor x="93" y="0" name="bottom"/>
  <anchor x="170" y="484" name="top"/>
  <outline>
    <contour>
      <point x="-58" y="-222" type="curve" smooth="yes"/>
      <point x="64" y="-222"/>
      <point x="131" y="-157"/>
      <point x="151" y="-31" type="curve" smooth="yes"/>
      <point x="236" y="505" type="line"/>
      <point x="111" y="505" type="line"/>
      <point x="27" y="-24" type="line" smooth="yes"/>
      <point x="16" y="-93"/>
      <point x="-17" y="-120"/>
      <point x="-65" y="-120" type="curve" smooth="yes"/>
      <point x="-84" y="-120"/>
      <point x="-104" y="-116"/>
      <point x="-120" y="-110" type="curve"/>
      <point x="-136" y="-209" type="line"/>
      <point x="-114" y="-219"/>
      <point x="-83" y="-222"/>
    </contour>
    <contour>
      <point x="118" y="600" type="line"/>
      <point x="257" y="600" type="line"/>
      <point x="277" y="722" type="line"/>
      <point x="138" y="722" type="line"/>
    </contour>
  </outline>
</glyph>
<glyph name="l" format="2">
  <advance width="260.5"/>
  <unicode hex="006C"/>
  <anchor x="91" y="0" name="bottom"/>
  <anchor x="149" y="368" name="center"/>
  <anchor x="330" y="354" name="dot"/>
  <anchor x="205" y="721" name="top"/>
  <anchor x="312" y="736" name="topright"/>
  <outline>
    <contour>
      <point x="28" y="0" type="line"/>
      <point x="153" y="0" type="line"/>
      <point x="270" y="736" type="line"/>
      <point x="145" y="736" type="line"/>
    </contour>
  </outline>
</glyph>
<glyph name="o" format="2">
  <advance width="592"/>
  <unicode hex="006F"/>
  <anchor x="257" y="0" name="bottom"/>
  <anchor x="296" y="253" name="center"/>
  <anchor x="313" y="0" name="ogonek"/>
  <anchor x="334" y="484" name="top"/>
  <anchor x="391" y="500" name="topright"/>
  <outline>
    <contour>
      <point x="266" y="-10" type="curve" smooth="yes"/>
      <point x="412" y="-10"/>
      <point x="523" y="76"/>
      <point x="549" y="238" type="curve" smooth="yes"/>
      <point x="576" y="411"/>
      <point x="492" y="515"/>
      <point x="327" y="515" type="curve" smooth="yes"/>
      <point x="181" y="515"/>
      <point x="69" y="430"/>
      <point x="43" y="268" type="curve" smooth="yes"/>
      <point x="16" y="94"/>
      <point x="101" y="-10"/>
    </contour>
    <contour>
      <point x="273" y="86" type="curve" smooth="yes"/>
      <point x="192" y="86"/>
      <point x="149" y="141"/>
      <point x="168" y="258" type="curve" smooth="yes"/>
      <point x="185" y="365"/>
      <point x="242" y="419"/>
      <point x="319" y="419" type="curve" smooth="yes"/>
      <point x="399" y="419"/>
      <point x="443" y="365"/>
      <point x="425" y="248" type="curve" smooth="yes"/>
      <point x="407" y="140"/>
      <point x="349" y="86"/>
    </contour>
  </outline>
</glyph>
<glyph name="q" format="2">
  <advance width="620"/>
  <unicode hex="0071"/>
  <anchor x="271" y="0" name="bottom"/>
  <anchor x="341" y="484" name="top"/>
  <outline>
    <contour>
      <point x="353" y="-216" type="line"/>
      <point x="478" y="-216" type="line"/>
      <point x="572" y="379" type="line" smooth="yes"/>
      <point x="579" y="420"/>
      <point x="589" y="463"/>
      <point x="600" y="505" type="curve"/>
      <point x="480" y="505" type="line"/>
      <point x="452" y="399" type="line"/>
      <point x="462" y="402" type="line"/>
      <point x="450" y="471"/>
      <point x="386" y="515"/>
      <point x="302" y="515" type="curve" smooth="yes"/>
      <point x="171" y="515"/>
      <point x="70" y="431"/>
      <point x="43" y="268" type="curve" smooth="yes"/>
      <point x="16" y="98"/>
      <point x="95" y="-10"/>
      <point x="234" y="-10" type="curve" smooth="yes"/>
      <point x="323" y="-10"/>
      <point x="388" y="35"/>
      <point x="421" y="107" type="curve"/>
      <point x="404" y="104" type="line"/>
    </contour>
    <contour>
      <point x="275" y="86" type="curve" smooth="yes"/>
      <point x="193" y="86"/>
      <point x="149" y="141"/>
      <point x="168" y="258" type="curve" smooth="yes"/>
      <point x="185" y="365"/>
      <point x="243" y="419"/>
      <point x="321" y="419" type="curve" smooth="yes"/>
      <point x="402" y="419"/>
      <point x="447" y="365"/>
      <point x="429" y="248" type="curve" smooth="yes"/>
      <point x="411" y="140"/>
      <point x="352" y="86"/>
    </contour>
  </outline>
</glyph>
<glyph name="r" format="2">
  <advance width="392.5"/>
  <unicode hex="0072"/>
  <anchor x="90" y="0" name="bottom"/>
  <anchor x="276" y="484" name="top"/>
  <outline>
    <contour>
      <point x="27" y="0" type="line"/>
      <point x="153" y="0" type="line"/>
      <point x="196" y="269" type="line" smooth="yes"/>
      <point x="210" y="356"/>
      <point x="268" y="410"/>
      <point x="349" y="410" type="curve" smooth="yes"/>
      <point x="375" y="410"/>
      <point x="391" y="408"/>
      <point x="412" y="399" type="curve"/>
      <point x="431" y="510" type="line"/>
      <point x="416" y="513"/>
      <point x="400" y="515"/>
      <point x="382" y="515" type="curve" smooth="yes"/>
      <point x="299" y="515"/>
      <point x="227" y="467"/>
      <point x="192" y="367" type="curve"/>
      <point x="214" y="367" type="line"/>
      <point x="221" y="505" type="line"/>
      <point x="100" y="505" type="line"/>
      <point x="98" y="463"/>
      <point x="93" y="418"/>
      <point x="87" y="376" type="curve" smooth="yes"/>
    </contour>
  </outline>
</glyph>
<glyph name="s" format="2">
  <advance width="500.5"/>
  <unicode hex="0073"/>
  <anchor x="208" y="0" name="bottom"/>
  <anchor x="293" y="484" name="top"/>
  <outline>
    <contour>
      <point x="217" y="-10" type="curve" smooth="yes"/>
      <point x="338" y="-10"/>
      <point x="428" y="43"/>
      <point x="443" y="140" type="curve" smooth="yes"/>
      <point x="456" y="220"/>
      <point x="417" y="271"/>
      <point x="317" y="287" type="curve" smooth="yes"/>
      <point x="234" y="301" type="line" smooth="yes"/>
      <point x="193" y="308"/>
      <point x="178" y="331"/>
      <point x="183" y="363" type="curve" smooth="yes"/>
      <point x="189" y="400"/>
      <point x="225" y="427"/>
      <point x="292" y="427" type="curve" smooth="yes"/>
      <point x="342" y="427"/>
      <point x="396" y="409"/>
      <point x="432" y="382" type="curve"/>
      <point x="472" y="464" type="line"/>
      <point x="432" y="496"/>
      <point x="366" y="515"/>
      <point x="292" y="515" type="curve" smooth="yes"/>
      <point x="176" y="515"/>
      <point x="85" y="461"/>
      <point x="70" y="366" type="curve" smooth="yes"/>
      <point x="58" y="286"/>
      <point x="95" y="230"/>
      <point x="193" y="214" type="curve" smooth="yes"/>
      <point x="274" y="201" type="line" smooth="yes"/>
      <point x="318" y="194"/>
      <point x="336" y="173"/>
      <point x="331" y="140" type="curve" smooth="yes"/>
      <point x="325" y="103"/>
      <point x="288" y="79"/>
      <point x="223" y="79" type="curve" smooth="yes"/>
      <point x="162" y="79"/>
      <point x="101" y="98"/>
      <point x="55" y="128" type="curve"/>
      <point x="18" y="44" type="line"/>
      <point x="61" y="11"/>
      <point x="134" y="-10"/>
    </contour>
  </outline>
</glyph>
<glyph name="t" format="2">
  <advance width="379"/>
  <unicode hex="0074"/>
  <anchor x="200" y="0" name="bottom"/>
  <anchor x="191" y="270" name="center"/>
  <anchor x="227" y="646" name="top"/>
  <anchor x="360" y="721" name="topright"/>
  <outline>
    <contour>
      <point x="247" y="-10" type="curve" smooth="yes"/>
      <point x="272" y="-10"/>
      <point x="297" y="-6"/>
      <point x="322" y="4" type="curve"/>
      <point x="338" y="103" type="line"/>
      <point x="319" y="96"/>
      <point x="302" y="92"/>
      <point x="279" y="92" type="curve" smooth="yes"/>
      <point x="231" y="92"/>
      <point x="206" y="118"/>
      <point x="217" y="187" type="curve" smooth="yes"/>
      <point x="252" y="411" type="line"/>
      <point x="387" y="411" type="line"/>
      <point x="402" y="505" type="line"/>
      <point x="267" y="505" type="line"/>
      <point x="293" y="666" type="line"/>
      <point x="163" y="634" type="line"/>
      <point x="142" y="505" type="line"/>
      <point x="45" y="505" type="line"/>
      <point x="30" y="411" type="line"/>
      <point x="127" y="411" type="line"/>
      <point x="90" y="178" type="line" smooth="yes"/>
      <point x="71" y="57"/>
      <point x="122" y="-10"/>
    </contour>
  </outline>
</glyph>
<glyph name="u" format="2">
  <advance width="595.5"/>
  <unicode hex="0075"/>
  <anchor x="258" y="0" name="bottom"/>
  <anchor x="458" y="0" name="ogonek"/>
  <anchor x="335" y="485" name="top"/>
  <anchor x="473" y="500" name="topright"/>
  <outline>
    <contour>
      <point x="217" y="-10" type="curve" smooth="yes"/>
      <point x="296" y="-10"/>
      <point x="358" y="31"/>
      <point x="397" y="103" type="curve"/>
      <point x="382" y="103" type="line"/>
      <point x="366" y="0" type="line"/>
      <point x="488" y="0" type="line"/>
      <point x="568" y="505" type="line"/>
      <point x="443" y="505" type="line"/>
      <point x="398" y="221" type="line" smooth="yes"/>
      <point x="385" y="141"/>
      <point x="336" y="89"/>
      <point x="262" y="89" type="curve" smooth="yes"/>
      <point x="196" y="89"/>
      <point x="170" y="123"/>
      <point x="182" y="203" type="curve" smooth="yes"/>
      <point x="230" y="505" type="line"/>
      <point x="105" y="505" type="line"/>
      <point x="57" y="201" type="line" smooth="yes"/>
      <point x="35" y="61"/>
      <point x="94" y="-10"/>
    </contour>
  </outline>
</glyph>
<glyph name="w" format="2">
  <advance width="883"/>
  <unicode hex="0077"/>
  <anchor x="402" y="0" name="bottom"/>
  <anchor x="479" y="484" name="top"/>
  <outline>
    <contour>
      <point x="168" y="0" type="line"/>
      <point x="279" y="0" type="line"/>
      <point x="491" y="402" type="line"/>
      <point x="437" y="402" type="line"/>
      <point x="525" y="0" type="line"/>
      <point x="635" y="0" type="line"/>
      <point x="912" y="505" type="line"/>
      <point x="786" y="505" type="line"/>
      <point x="582" y="112" type="line"/>
      <point x="605" y="112" type="line"/>
      <point x="525" y="505" type="line"/>
      <point x="436" y="505" type="line"/>
      <point x="229" y="112" type="line"/>
      <point x="255" y="112" type="line"/>
      <point x="175" y="505" type="line"/>
      <point x="51" y="505" type="line"/>
    </contour>
  </outline>
</glyph>
<glyph name="x" format="2">
  <advance width="548.5"/>
  <unicode hex="0078"/>
  <anchor x="233" y="0" name="bottom"/>
  <anchor x="310" y="484" name="top"/>
  <outline>
    <contour>
      <point x="-54" y="0" type="line"/>
      <point x="100" y="0" type="line"/>
      <point x="290" y="201" type="line"/>
      <point x="244" y="201" type="line"/>
      <point x="369" y="0" type="line"/>
      <point x="514" y="0" type="line"/>
      <point x="326" y="289" type="line"/>
      <point x="322" y="232" type="line"/>
      <point x="586" y="505" type="line"/>
      <point x="432" y="505" type="line"/>
      <point x="258" y="318" type="line"/>
      <point x="302" y="318" type="line"/>
      <point x="187" y="505" type="line"/>
      <point x="46" y="505" type="line"/>
      <point x="225" y="232" type="line"/>
      <point x="227" y="289" type="line"/>
    </contour>
  </outline>
</glyph>
<glyph name="y" format="2">
  <advance width="543"/>
  <unicode hex="0079"/>
  <anchor x="382" y="0" name="bottom"/>
  <anchor x="308" y="484" name="top"/>
  <outline>
    <contour>
      <point x="-17" y="-227" type="line"/>
      <point x="102" y="-208"/>
      <point x="185" y="-172"/>
      <point x="271" y="-28" type="curve" smooth="yes"/>
      <point x="585" y="505" type="line"/>
      <point x="455" y="505" type="line"/>
      <point x="233" y="111" type="line"/>
      <point x="262" y="111" type="line"/>
      <point x="167" y="505" type="line"/>
      <point x="38" y="505" type="line"/>
      <point x="177" y="-7" type="line"/>
      <point x="183" y="42" type="line"/>
      <point x="149" y="-17" type="line" smooth="yes"/>
      <point x="109" y="-84"/>
      <point x="61" y="-109"/>
      <point x="-37" y="-128" type="curve"/>
    </contour>
  </outline>
</glyph>
<glyph name="asciitilde" format="2">
  <advance width="600"/>
  <unicode hex="007E"/>
  <outline>
    <contour>
      <point x="417" y="209" type="curve" smooth="yes"/>
      <point x="477" y="209"/>
      <point x="523" y="247"/>
      <point x="556" y="311" type="curve"/>
      <point x="495" y="355" type="line"/>
      <point x="473" y="316"/>
      <point x="446" y="293"/>
      <point x="408" y="293" type="curve" smooth="yes"/>
      <point x="382" y="293"/>
      <point x="355" y="308"/>
      <point x="321" y="325" type="curve" smooth="yes"/>
      <point x="283" y="344"/>
      <point x="239" y="366"/>
      <point x="194" y="366" type="curve" smooth="yes"/>
      <point x="134" y="366"/>
      <point x="89" y="328"/>
      <point x="56" y="263" type="curve"/>
      <point x="117" y="220" type="line"/>
      <point x="138" y="258"/>
      <point x="166" y="282"/>
      <point x="203" y="282" type="curve" smooth="yes"/>
      <point x="229" y="282"/>
      <point x="259" y="267"/>
      <point x="293" y="249" type="curve" smooth="yes"/>
      <point x="330" y="230"/>
      <point x="373" y="209"/>
    </contour>
  </outline>
</glyph>
<glyph name="exclamdown" format="2">
  <advance width="248"/>
  <unicode hex="00A1"/>
  <outline>
    <contour>
      <point x="-22" y="-180" type="line"/>
      <point x="132" y="-180" type="line"/>
      <point x="169" y="297" type="line"/>
      <point x="93" y="297" type="line"/>
    </contour>
    <contour>
      <point x="72" y="367" type="line"/>
      <point x="212" y="367" type="line"/>
      <point x="234" y="505" type="line"/>
      <point x="94" y="505" type="line"/>
    </contour>
  </outline>
</glyph>
<glyph name="currency" format="2">
  <advance width="600"/>
  <unicode hex="00A4"/>
  <outline>
    <contour>
      <point x="116" y="-30" type="line"/>
      <point x="189" y="45" type="line"/>
      <point x="229" y="15"/>
      <point x="279" y="-3"/>
      <point x="333" y="-3" type="curve" smooth="yes"/>
      <point x="387" y="-3"/>
      <point x="437" y="15"/>
      <point x="477" y="46" type="curve"/>
      <point x="550" y="-29" type="line"/>
      <point x="601" y="22" type="line"/>
      <point x="527" y="97" type="line"/>
      <point x="557" y="139"/>
      <point x="574" y="190"/>
      <point x="574" y="245" type="curve" smooth="yes"/>
      <point x="574" y="300"/>
      <point x="558" y="350"/>
      <point x="528" y="392" type="curve"/>
      <point x="602" y="467" type="line"/>
      <point x="548" y="522" type="line"/>
      <point x="475" y="446" type="line"/>
      <point x="435" y="476"/>
      <point x="386" y="493"/>
      <point x="333" y="493" type="curve" smooth="yes"/>
      <point x="280" y="493"/>
      <point x="230" y="475"/>
      <point x="190" y="445" type="curve"/>
      <point x="116" y="520" type="line"/>
      <point x="65" y="469" type="line"/>
      <point x="138" y="394" type="line"/>
      <point x="108" y="352"/>
      <point x="91" y="301"/>
      <point x="91" y="245" type="curve" smooth="yes"/>
      <point x="91" y="190"/>
      <point x="109" y="138"/>
      <point x="138" y="97" type="curve"/>
      <point x="65" y="22" type="line"/>
    </contour>
    <contour>
      <point x="333" y="98" type="curve" smooth="yes"/>
      <point x="255" y="98"/>
      <point x="194" y="164"/>
      <point x="194" y="245" type="curve" smooth="yes"/>
      <point x="194" y="327"/>
      <point x="256" y="393"/>
      <point x="333" y="393" type="curve" smooth="yes"/>
      <point x="409" y="393"/>
      <point x="471" y="327"/>
      <point x="471" y="245" type="curve" smooth="yes"/>
      <point x="471" y="164"/>
      <point x="409" y="98"/>
    </contour>
  </outline>
</glyph>
<glyph name="brokenbar" format="2">
  <advance width="282"/>
  <unicode hex="00A6"/>
  <outline>
    <contour>
      <point x="97" y="372" type="line"/>
      <point x="222" y="372" type="line"/>
      <point x="275" y="705" type="line"/>
      <point x="150" y="705" type="line"/>
    </contour>
    <contour>
      <point x="10" y="-180" type="line"/>
      <point x="135" y="-180" type="line"/>
      <point x="188" y="154" type="line"/>
      <point x="63" y="154" type="line"/>
    </contour>
  </outline>
</glyph>
<glyph name="copyright" format="2">
  <advance width="815"/>
  <unicode hex="00A9"/>
  <outline>
    <contour>
      <point x="429" y="-10" type="curve" smooth="yes"/>
      <point x="634" y="-10"/>
      <point x="791" y="148"/>
      <point x="791" y="353" type="curve" smooth="yes"/>
      <point x="791" y="558"/>
      <point x="634" y="715"/>
      <point x="429" y="715" type="curve" smooth="yes"/>
      <point x="223" y="715"/>
      <point x="66" y="558"/>
      <point x="66" y="353" type="curve" smooth="yes"/>
      <point x="66" y="148"/>
      <point x="223" y="-10"/>
    </contour>
    <contour>
      <point x="446" y="137" type="curve" smooth="yes"/>
      <point x="498" y="137"/>
      <point x="557" y="156"/>
      <point x="591" y="186" type="curve"/>
      <point x="560" y="261" type="line"/>
      <point x="529" y="234"/>
      <point x="492" y="221"/>
      <point x="455" y="221" type="curve" smooth="yes"/>
      <point x="381" y="221"/>
      <point x="336" y="271"/>
      <point x="336" y="354" type="curve" smooth="yes"/>
      <point x="336" y="437"/>
      <point x="381" y="485"/>
      <point x="455" y="485" type="curve" smooth="yes"/>
      <point x="492" y="485"/>
      <point x="529" y="471"/>
      <point x="560" y="445" type="curve"/>
      <point x="591" y="520" type="line"/>
      <point x="557" y="550"/>
      <point x="499" y="568"/>
      <point x="446" y="568" type="curve" smooth="yes"/>
      <point x="313" y="568"/>
      <point x="230" y="487"/>
      <point x="230" y="354" type="curve" smooth="yes"/>
      <point x="230" y="222"/>
      <point x="313" y="137"/>
    </contour>
    <contour>
      <point x="429" y="43" type="curve" smooth="yes"/>
      <point x="252" y="43"/>
      <point x="122" y="177"/>
      <point x="122" y="353" type="curve" smooth="yes"/>
      <point x="122" y="529"/>
      <point x="252" y="662"/>
      <point x="429" y="662" type="curve" smooth="yes"/>
      <point x="604" y="662"/>
      <point x="735" y="529"/>
      <point x="735" y="353" type="curve" smooth="yes"/>
      <point x="735" y="177"/>
      <point x="604" y="43"/>
    </contour>
  </outline>
</glyph>
<glyph name="logicalnot" format="2">
  <advance width="600"/>
  <unicode hex="00AC"/>
  <outline>
    <contour>
      <point x="437" y="140" type="line"/>
      <point x="528" y="140" type="line"/>
      <point x="574" y="432" type="line"/>
      <point x="83" y="432" type="line"/>
      <point x="69" y="344" type="line"/>
      <point x="470" y="344" type="line"/>
    </contour>
  </outline>
</glyph>
<glyph name="registered" format="2">
  <advance width="815"/>
  <unicode hex="00AE"/>
  <outline>
    <contour>
      <point x="429" y="-10" type="curve" smooth="yes"/>
      <point x="634" y="-10"/>
      <point x="791" y="148"/>
      <point x="791" y="353" type="curve" smooth="yes"/>
      <point x="791" y="558"/>
      <point x="634" y="715"/>
      <point x="429" y="715" type="curve" smooth="yes"/>
      <point x="223" y="715"/>
      <point x="66" y="558"/>
      <point x="66" y="353" type="curve" smooth="yes"/>
      <point x="66" y="148"/>
      <point x="223" y="-10"/>
    </contour>
    <contour>
      <point x="429" y="43" type="curve" smooth="yes"/>
      <point x="252" y="43"/>
      <point x="122" y="177"/>
      <point x="122" y="353" type="curve" smooth="yes"/>
      <point x="122" y="529"/>
      <point x="252" y="662"/>
      <point x="429" y="662" type="curve" smooth="yes"/>
      <point x="604" y="662"/>
      <point x="735" y="529"/>
      <point x="735" y="353" type="curve" smooth="yes"/>
      <point x="735" y="177"/>
      <point x="604" y="43"/>
    </contour>
    <contour>
      <point x="273" y="142" type="line"/>
      <point x="370" y="142" type="line"/>
      <point x="370" y="315" type="line"/>
      <point x="354" y="304" type="line"/>
      <point x="413" y="304" type="line" smooth="yes"/>
      <point x="441" y="304"/>
      <point x="460" y="296"/>
      <point x="470" y="267" type="curve" smooth="yes"/>
      <point x="510" y="142" type="line"/>
      <point x="607" y="142" type="line"/>
      <point x="569" y="257" type="line" smooth="yes"/>
      <point x="553" y="315"/>
      <point x="527" y="332"/>
      <point x="483" y="332" type="curve"/>
      <point x="461" y="321" type="line"/>
      <point x="551" y="321"/>
      <point x="603" y="363"/>
      <point x="603" y="440" type="curve" smooth="yes"/>
      <point x="603" y="514"/>
      <point x="550" y="565"/>
      <point x="457" y="565" type="curve" smooth="yes"/>
      <point x="273" y="565" type="line"/>
    </contour>
    <contour>
      <point x="369" y="376" type="line"/>
      <point x="369" y="493" type="line"/>
      <point x="443" y="493" type="line" smooth="yes"/>
      <point x="489" y="493"/>
      <point x="511" y="475"/>
      <point x="511" y="435" type="curve" smooth="yes"/>
      <point x="511" y="394"/>
      <point x="489" y="376"/>
      <point x="443" y="376" type="curve" smooth="yes"/>
    </contour>
  </outline>
</glyph>
<glyph name="degree" format="2">
  <advance width="379"/>
  <unicode hex="00B0"/>
  <outline>
    <contour>
      <point x="240" y="405" type="curve" smooth="yes"/>
      <point x="329" y="405"/>
      <point x="396" y="471"/>
      <point x="396" y="559" type="curve" smooth="yes"/>
      <point x="396" y="647"/>
      <point x="329" y="713"/>
      <point x="240" y="713" type="curve" smooth="yes"/>
      <point x="150" y="713"/>
      <point x="83" y="647"/>
      <point x="83" y="559" type="curve" smooth="yes"/>
      <point x="83" y="471"/>
      <point x="150" y="405"/>
    </contour>
    <contour>
      <point x="240" y="476" type="curve" smooth="yes"/>
      <point x="193" y="476"/>
      <point x="160" y="511"/>
      <point x="160" y="559" type="curve" smooth="yes"/>
      <point x="160" y="607"/>
      <point x="193" y="642"/>
      <point x="240" y="642" type="curve" smooth="yes"/>
      <point x="286" y="642"/>
      <point x="319" y="607"/>
      <point x="319" y="559" type="curve" smooth="yes"/>
      <point x="319" y="511"/>
      <point x="286" y="476"/>
    </contour>
  </outline>
</glyph>
<glyph name="ordmasculine" format="2">
  <advance width="356"/>
  <unicode hex="00BA"/>
  <outline>
    <contour>
      <point x="210" y="409" type="curve" smooth="yes"/>
      <point x="305" y="409"/>
      <point x="369" y="465"/>
      <point x="383" y="555" type="curve" smooth="yes"/>
      <point x="399" y="657"/>
      <point x="341" y="715"/>
      <point x="244" y="715" type="curve" smooth="yes"/>
      <point x="150" y="715"/>
      <point x="85" y="660"/>
      <point x="71" y="570" type="curve" smooth="yes"/>
      <point x="56" y="469"/>
      <point x="114" y="409"/>
    </contour>
    <contour>
      <point x="214" y="472" type="curve" smooth="yes"/>
      <point x="167" y="472"/>
      <point x="143" y="503"/>
      <point x="153" y="563" type="curve" smooth="yes"/>
      <point x="162" y="623"/>
      <point x="196" y="653"/>
      <point x="241" y="653" type="curve" smooth="yes"/>
      <point x="287" y="653"/>
      <point x="311" y="622"/>
      <point x="302" y="563" type="curve" smooth="yes"/>
      <point x="292" y="504"/>
      <point x="258" y="472"/>
    </contour>
  </outline>
</glyph>
<glyph name="questiondown" format="2">
  <advance width="463.5"/>
  <unicode hex="00BF"/>
  <outline>
    <contour>
      <point x="159" y="-203" type="curve" smooth="yes"/>
      <point x="216" y="-203"/>
      <point x="283" y="-188"/>
      <point x="333" y="-161" type="curve"/>
      <point x="350" y="-54" type="line"/>
      <point x="301" y="-80"/>
      <point x="247" y="-98"/>
      <point x="194" y="-98" type="curve" smooth="yes"/>
      <point x="140" y="-98"/>
      <point x="109" y="-76"/>
      <point x="109" y="-38" type="curve" smooth="yes"/>
      <point x="109" y="10"/>
      <point x="147" y="54"/>
      <point x="187" y="90" type="curve" smooth="yes"/>
      <point x="260" y="156"/>
      <point x="284" y="203"/>
      <point x="295" y="264" type="curve" smooth="yes"/>
      <point x="301" y="297" type="line"/>
      <point x="225" y="297" type="line"/>
      <point x="217" y="276" type="line" smooth="yes"/>
      <point x="204" y="236"/>
      <point x="180" y="196"/>
      <point x="104" y="137" type="curve" smooth="yes"/>
      <point x="37" y="87"/>
      <point x="-21" y="24"/>
      <point x="-21" y="-62" type="curve" smooth="yes"/>
      <point x="-21" y="-147"/>
      <point x="52" y="-203"/>
    </contour>
    <contour>
      <point x="367" y="505" type="line"/>
      <point x="226" y="505" type="line"/>
      <point x="204" y="367" type="line"/>
      <point x="345" y="367" type="line"/>
    </contour>
  </outline>
</glyph>
<glyph name="AE" format="2">
  <advance width="1017"/>
  <unicode hex="00C6"/>
  <anchor x="479" y="0" name="bottom"/>
  <anchor x="591" y="705" name="top"/>
  <outline>
    <contour>
      <point x="-60" y="0" type="line"/>
      <point x="84" y="0" type="line"/>
      <point x="233" y="197" type="line"/>
      <point x="185" y="163" type="line"/>
      <point x="554" y="163" type="line"/>
      <point x="530" y="194" type="line"/>
      <point x="516" y="0" type="line"/>
      <point x="935" y="0" type="line"/>
      <point x="951" y="102" type="line"/>
      <point x="627" y="102" type="line"/>
      <point x="639" y="74" type="line"/>
      <point x="656" y="317" type="line"/>
      <point x="636" y="307" type="line"/>
      <point x="962" y="307" type="line"/>
      <point x="978" y="409" type="line"/>
      <point x="649" y="409" type="line"/>
      <point x="661" y="374" type="line"/>
      <point x="680" y="625" type="line"/>
      <point x="653" y="604" type="line"/>
      <point x="1030" y="604" type="line"/>
      <point x="1047" y="705" type="line"/>
      <point x="489" y="705" type="line"/>
    </contour>
    <contour>
      <point x="539" y="603" type="line"/>
      <point x="562" y="603" type="line"/>
      <point x="534" y="230" type="line"/>
      <point x="550" y="265" type="line"/>
      <point x="252" y="265" type="line"/>
      <point x="260" y="234" type="line"/>
    </contour>
  </outline>
</glyph>
<glyph name="germandbls" format="2">
  <advance width="673.5"/>
  <unicode hex="00DF"/>
  <outline>
    <contour>
      <point x="28" y="0" type="line"/>
      <point x="153" y="0" type="line"/>
      <point x="231" y="490" type="line" smooth="yes"/>
      <point x="249" y="605"/>
      <point x="303" y="652"/>
      <point x="394" y="652" type="curve" smooth="yes"/>
      <point x="467" y="652"/>
      <point x="502" y="614"/>
      <point x="491" y="551" type="curve" smooth="yes"/>
      <point x="483" y="496"/>
      <point x="445" y="451"/>
      <point x="324" y="413" type="curve"/>
      <point x="309" y="318" type="line"/>
      <point x="481" y="273"/>
      <point x="524" y="223"/>
      <point x="515" y="162" type="curve" smooth="yes"/>
      <point x="507" y="110"/>
      <point x="468" y="81"/>
      <point x="407" y="81" type="curve" smooth="yes"/>
      <point x="354" y="81"/>
      <point x="307" y="97"/>
      <point x="261" y="126" type="curve"/>
      <point x="225" y="42" type="line"/>
      <point x="269" y="10"/>
      <point x="327" y="-10"/>
      <point x="411" y="-10" type="curve" smooth="yes"/>
      <point x="527" y="-10"/>
      <point x="616" y="48"/>
      <point x="633" y="156" type="curve" smooth="yes"/>
      <point x="651" y="272"/>
      <point x="574" y="338"/>
      <point x="413" y="384" type="curve"/>
      <point x="411" y="360" type="line"/>
      <point x="549" y="410"/>
      <point x="597" y="480"/>
      <point x="608" y="552" type="curve" smooth="yes"/>
      <point x="628" y="677"/>
      <point x="541" y="744"/>
      <point x="405" y="744" type="curve" smooth="yes"/>
      <point x="227" y="744"/>
      <point x="132" y="654"/>
      <point x="103" y="474" type="curve" smooth="yes"/>
    </contour>
  </outline>
</glyph>
<glyph name="ae" format="2">
  <advance width="872"/>
  <unicode hex="00E6"/>
  <anchor x="380" y="0" name="bottom"/>
  <anchor x="471" y="484" name="top"/>
  <outline>
    <contour>
      <point x="208" y="-10" type="curve" smooth="yes"/>
      <point x="307" y="-10"/>
      <point x="380" y="43"/>
      <point x="418" y="132" type="curve"/>
      <point x="390" y="132" type="line"/>
      <point x="419" y="41"/>
      <point x="495" y="-10"/>
      <point x="612" y="-10" type="curve" smooth="yes"/>
      <point x="684" y="-10"/>
      <point x="757" y="11"/>
      <point x="810" y="51" type="curve"/>
      <point x="775" y="135" type="line"/>
      <point x="727" y="100"/>
      <point x="679" y="86"/>
      <point x="628" y="86" type="curve" smooth="yes"/>
      <point x="520" y="86"/>
      <point x="474" y="145"/>
      <point x="489" y="249" type="curve" smooth="yes"/>
      <point x="494" y="282" type="line" smooth="yes"/>
      <point x="506" y="366"/>
      <point x="555" y="429"/>
      <point x="638" y="429" type="curve" smooth="yes"/>
      <point x="714" y="429"/>
      <point x="748" y="379"/>
      <point x="735" y="285" type="curve"/>
      <point x="753" y="301" type="line"/>
      <point x="482" y="301" type="line"/>
      <point x="472" y="235" type="line"/>
      <point x="832" y="235" type="line"/>
      <point x="837" y="267" type="line" smooth="yes"/>
      <point x="859" y="412"/>
      <point x="786" y="515"/>
      <point x="643" y="515" type="curve" smooth="yes"/>
      <point x="560" y="515"/>
      <point x="490" y="480"/>
      <point x="439" y="408" type="curve"/>
      <point x="475" y="408" type="line"/>
      <point x="461" y="478"/>
      <point x="409" y="515"/>
      <point x="301" y="515" type="curve" smooth="yes"/>
      <point x="228" y="515"/>
      <point x="143" y="494"/>
      <point x="85" y="460" type="curve"/>
      <point x="118" y="374" type="line"/>
      <point x="179" y="407"/>
      <point x="228" y="420"/>
      <point x="289" y="420" type="curve" smooth="yes"/>
      <point x="354" y="420"/>
      <point x="392" y="387"/>
      <point x="380" y="314" type="curve" smooth="yes"/>
      <point x="363" y="203" type="line" smooth="yes"/>
      <point x="351" y="127"/>
      <point x="299" y="77"/>
      <point x="225" y="77" type="curve" smooth="yes"/>
      <point x="164" y="77"/>
      <point x="134" y="110"/>
      <point x="142" y="158" type="curve" smooth="yes"/>
      <point x="151" y="216"/>
      <point x="212" y="235"/>
      <point x="323" y="235" type="curve" smooth="yes"/>
      <point x="379" y="235" type="line"/>
      <point x="389" y="300" type="line"/>
      <point x="338" y="300" type="line" smooth="yes"/>
      <point x="146" y="300"/>
      <point x="48" y="264"/>
      <point x="31" y="165" type="curve" smooth="yes"/>
      <point x="16" y="75"/>
      <point x="76" y="-10"/>
    </contour>
  </outline>
</glyph>
<glyph name="eth" format="2">
  <advance width="598.5"/>
  <unicode hex="00F0"/>
  <outline>
    <contour>
      <point x="265" y="-10" type="curve" smooth="yes"/>
      <point x="423" y="-10"/>
      <point x="532" y="89"/>
      <point x="562" y="274" type="curve" smooth="yes"/>
      <point x="583" y="407"/>
      <point x="557" y="539"/>
      <point x="471" y="632" type="curve"/>
      <point x="468" y="614" type="line"/>
      <point x="574" y="658" type="line"/>
      <point x="550" y="712" type="line"/>
      <point x="421" y="659" type="line"/>
      <point x="446" y="656" type="line"/>
      <point x="394" y="699"/>
      <point x="324" y="731"/>
      <point x="234" y="745" type="curve"/>
      <point x="201" y="665" type="line"/>
      <point x="250" y="654"/>
      <point x="295" y="634"/>
      <point x="332" y="608" type="curve"/>
      <point x="334" y="622" type="line"/>
      <point x="157" y="550" type="line"/>
      <point x="180" y="495" type="line"/>
      <point x="394" y="583" type="line"/>
      <point x="366" y="583" type="line"/>
      <point x="437" y="516"/>
      <point x="467" y="420"/>
      <point x="451" y="318" type="curve"/>
      <point x="479" y="318" type="line"/>
      <point x="465" y="412"/>
      <point x="398" y="454"/>
      <point x="304" y="454" type="curve" smooth="yes"/>
      <point x="167" y="454"/>
      <point x="59" y="371"/>
      <point x="39" y="239" type="curve" smooth="yes"/>
      <point x="15" y="90"/>
      <point x="107" y="-10"/>
    </contour>
    <contour>
      <point x="273" y="87" type="curve" smooth="yes"/>
      <point x="192" y="87"/>
      <point x="149" y="137"/>
      <point x="163" y="225" type="curve" smooth="yes"/>
      <point x="177" y="310"/>
      <point x="233" y="359"/>
      <point x="313" y="359" type="curve" smooth="yes"/>
      <point x="396" y="359"/>
      <point x="436" y="307"/>
      <point x="422" y="221" type="curve" smooth="yes"/>
      <point x="409" y="139"/>
      <point x="352" y="87"/>
    </contour>
  </outline>
</glyph>
<glyph name="dcroat" format="2">
  <advance width="620"/>
  <unicode hex="0111"/>
  <outline>
    <contour>
      <point x="234" y="-10" type="curve" smooth="yes"/>
      <point x="323" y="-10"/>
      <point x="388" y="34"/>
      <point x="421" y="104" type="curve"/>
      <point x="406" y="107" type="line"/>
      <point x="389" y="0" type="line"/>
      <point x="512" y="0" type="line"/>
      <point x="602" y="569" type="line"/>
      <point x="692" y="569" type="line"/>
      <point x="706" y="657" type="line"/>
      <point x="617" y="657" type="line"/>
      <point x="629" y="736" type="line"/>
      <point x="504" y="736" type="line"/>
      <point x="492" y="657" type="line"/>
      <point x="299" y="657" type="line"/>
      <point x="285" y="569" type="line"/>
      <point x="478" y="569" type="line"/>
      <point x="451" y="402" type="line"/>
      <point x="462" y="388" type="line"/>
      <point x="450" y="456"/>
      <point x="386" y="499"/>
      <point x="302" y="499" type="curve" smooth="yes"/>
      <point x="171" y="499"/>
      <point x="69" y="417"/>
      <point x="43" y="259" type="curve" smooth="yes"/>
      <point x="16" y="95"/>
      <point x="95" y="-10"/>
    </contour>
    <contour>
      <point x="275" y="86" type="curve" smooth="yes"/>
      <point x="193" y="86"/>
      <point x="149" y="139"/>
      <point x="168" y="249" type="curve" smooth="yes"/>
      <point x="185" y="351"/>
      <point x="243" y="403"/>
      <point x="321" y="403" type="curve" smooth="yes"/>
      <point x="402" y="403"/>
      <point x="447" y="350"/>
      <point x="429" y="240" type="curve" smooth="yes"/>
      <point x="411" y="138"/>
      <point x="352" y="86"/>
    </contour>
  </outline>
</glyph>
<glyph name="hbar" format="2">
  <advance width="602.5"/>
  <unicode hex="0127"/>
  <outline>
    <contour>
      <point x="28" y="0" type="line"/>
      <point x="153" y="0" type="line"/>
      <point x="197" y="276" type="line" smooth="yes"/>
      <point x="210" y="354"/>
      <point x="262" y="406"/>
      <point x="340" y="406" type="curve" smooth="yes"/>
      <point x="404" y="406"/>
      <point x="432" y="373"/>
      <point x="419" y="290" type="curve" smooth="yes"/>
      <point x="373" y="0" type="line"/>
      <point x="498" y="0" type="line"/>
      <point x="544" y="290" type="line" smooth="yes"/>
      <point x="566" y="432"/>
      <point x="516" y="504"/>
      <point x="395" y="504" type="curve" smooth="yes"/>
      <point x="311" y="504"/>
      <point x="241" y="466"/>
      <point x="201" y="393" type="curve"/>
      <point x="215" y="393" type="line"/>
      <point x="243" y="569" type="line"/>
      <point x="438" y="569" type="line"/>
      <point x="452" y="657" type="line"/>
      <point x="258" y="657" type="line"/>
      <point x="270" y="736" type="line"/>
      <point x="145" y="736" type="line"/>
      <point x="133" y="657" type="line"/>
      <point x="41" y="657" type="line"/>
      <point x="27" y="569" type="line"/>
      <point x="118" y="569" type="line"/>
    </contour>
  </outline>
</glyph>
<glyph name="idotless" format="2">
  <advance width="261"/>
  <unicode hex="0131"/>
  <anchor x="91" y="0" name="bottom"/>
  <anchor x="128" y="0" name="ogonek"/>
  <anchor x="168" y="484" name="top"/>
  <outline>
    <contour>
      <point x="28" y="0" type="line"/>
      <point x="153" y="0" type="line"/>
      <point x="233" y="505" type="line"/>
      <point x="108" y="505" type="line"/>
    </contour>
  </outline>
</glyph>
<glyph name="OE" format="2">
  <advance width="1055"/>
  <unicode hex="0152"/>
  <anchor x="575" y="0" name="bottom"/>
  <anchor x="687" y="705" name="top"/>
  <outline>
    <contour>
      <point x="505" y="0" type="line"/>
      <point x="973" y="0" type="line"/>
      <point x="989" y="102" type="line"/>
      <point x="645" y="102" type="line"/>
      <point x="678" y="307" type="line"/>
      <point x="1000" y="307" type="line"/>
      <point x="1016" y="409" type="line"/>
      <point x="694" y="409" type="line"/>
      <point x="724" y="604" type="line"/>
      <point x="1069" y="604" type="line"/>
      <point x="1085" y="705" type="line"/>
      <point x="617" y="705" type="line"/>
    </contour>
    <contour>
      <point x="345" y="-10" type="curve" smooth="yes"/>
      <point x="421" y="-10"/>
      <point x="480" y="14"/>
      <point x="529" y="57" type="curve"/>
      <point x="549" y="186" type="line"/>
      <point x="507" y="132"/>
      <point x="451" y="100"/>
      <point x="369" y="100" type="curve" smooth="yes"/>
      <point x="239" y="100"/>
      <point x="181" y="198"/>
      <point x="207" y="358" type="curve" smooth="yes"/>
      <point x="231" y="513"/>
      <point x="310" y="605"/>
      <point x="442" y="605" type="curve" smooth="yes"/>
      <point x="518" y="605"/>
      <point x="572" y="574"/>
      <point x="601" y="510" type="curve"/>
      <point x="623" y="645" type="line"/>
      <point x="585" y="692"/>
      <point x="518" y="715"/>
      <point x="438" y="715" type="curve" smooth="yes"/>
      <point x="245" y="715"/>
      <point x="108" y="589"/>
      <point x="73" y="368" type="curve" smooth="yes"/>
      <point x="39" y="148"/>
      <point x="135" y="-10"/>
    </contour>
  </outline>
</glyph>
<glyph name="oe" format="2">
  <advance width="931"/>
  <unicode hex="0153"/>
  <anchor x="450" y="0" name="bottom"/>
  <anchor x="525" y="484" name="top"/>
  <outline>
    <contour>
      <point x="266" y="-10" type="curve" smooth="yes"/>
      <point x="368" y="-10"/>
      <point x="447" y="37"/>
      <point x="493" y="123" type="curve"/>
      <point x="456" y="121" type="line"/>
      <point x="482" y="38"/>
      <point x="558" y="-10"/>
      <point x="670" y="-10" type="curve" smooth="yes"/>
      <point x="742" y="-10"/>
      <point x="815" y="11"/>
      <point x="868" y="51" type="curve"/>
      <point x="832" y="135" type="line"/>
      <point x="785" y="100"/>
      <point x="736" y="86"/>
      <point x="686" y="86" type="curve" smooth="yes"/>
      <point x="577" y="86"/>
      <point x="532" y="145"/>
      <point x="547" y="249" type="curve" smooth="yes"/>
      <point x="552" y="282" type="line" smooth="yes"/>
      <point x="563" y="366"/>
      <point x="613" y="429"/>
      <point x="696" y="429" type="curve" smooth="yes"/>
      <point x="769" y="429"/>
      <point x="806" y="379"/>
      <point x="792" y="285" type="curve"/>
      <point x="813" y="301" type="line"/>
      <point x="538" y="301" type="line"/>
      <point x="528" y="235" type="line"/>
      <point x="890" y="235" type="line"/>
      <point x="895" y="270" type="line" smooth="yes"/>
      <point x="915" y="413"/>
      <point x="843" y="515"/>
      <point x="700" y="515" type="curve" smooth="yes"/>
      <point x="612" y="515"/>
      <point x="532" y="474"/>
      <point x="484" y="386" type="curve"/>
      <point x="521" y="386" type="line"/>
      <point x="496" y="470"/>
      <point x="429" y="515"/>
      <point x="327" y="515" type="curve" smooth="yes"/>
      <point x="181" y="515"/>
      <point x="69" y="430"/>
      <point x="43" y="268" type="curve" smooth="yes"/>
      <point x="15" y="94"/>
      <point x="101" y="-10"/>
    </contour>
    <contour>
      <point x="273" y="86" type="curve" smooth="yes"/>
      <point x="192" y="86"/>
      <point x="149" y="141"/>
      <point x="168" y="258" type="curve" smooth="yes"/>
      <point x="186" y="365"/>
      <point x="242" y="419"/>
      <point x="319" y="419" type="curve" smooth="yes"/>
      <point x="399" y="419"/>
      <point x="443" y="365"/>
      <point x="425" y="248" type="curve" smooth="yes"/>
      <point x="408" y="140"/>
      <point x="349" y="86"/>
    </contour>
  </outline>
</glyph>
<glyph name="Bhook" format="2">
  <advance width="844.5"/>
  <unicode hex="0181"/>
  <outline>
    <contour>
      <point x="192" y="0" type="line"/>
      <point x="518" y="0" type="line" smooth="yes"/>
      <point x="673" y="0"/>
      <point x="770" y="67"/>
      <point x="789" y="187" type="curve" smooth="yes"/>
      <point x="804" y="284"/>
      <point x="755" y="353"/>
      <point x="656" y="368" type="curve"/>
      <point x="654" y="353" type="line"/>
      <point x="745" y="373"/>
      <point x="809" y="431"/>
      <point x="822" y="515" type="curve" smooth="yes"/>
      <point x="841" y="636"/>
      <point x="766" y="705"/>
      <point x="613" y="705" type="curve" smooth="yes"/>
      <point x="285" y="705" type="line" smooth="yes"/>
      <point x="140" y="705"/>
      <point x="62" y="643"/>
      <point x="42" y="521" type="curve" smooth="yes"/>
      <point x="34" y="469" type="line"/>
      <point x="139" y="469" type="line"/>
      <point x="147" y="517" type="line" smooth="yes"/>
      <point x="158" y="584"/>
      <point x="193" y="614"/>
      <point x="262" y="614" type="curve" smooth="yes"/>
      <point x="289" y="614" type="line"/>
    </contour>
    <contour>
      <point x="332" y="98" type="line"/>
      <point x="365" y="309" type="line"/>
      <point x="550" y="309" type="line" smooth="yes"/>
      <point x="633" y="309"/>
      <point x="680" y="279"/>
      <point x="666" y="196" type="curve" smooth="yes"/>
      <point x="655" y="128"/>
      <point x="602" y="98"/>
      <point x="515" y="98" type="curve" smooth="yes"/>
    </contour>
    <contour>
      <point x="381" y="406" type="line"/>
      <point x="412" y="608" type="line"/>
      <point x="584" y="608" type="line" smooth="yes"/>
      <point x="669" y="608"/>
      <point x="706" y="574"/>
      <point x="695" y="500" type="curve" smooth="yes"/>
      <point x="685" y="440"/>
      <point x="637" y="406"/>
      <point x="546" y="406" type="curve" smooth="yes"/>
    </contour>
  </outline>
</glyph>
<glyph name="bhook" format="2">
  <advance width="620"/>
  <unicode hex="0253"/>
  <outline>
    <contour>
      <point x="319" y="-10" type="curve" smooth="yes"/>
      <point x="450" y="-10"/>
      <point x="551" y="75"/>
      <point x="578" y="238" type="curve" smooth="yes"/>
      <point x="605" y="407"/>
      <point x="526" y="515"/>
      <point x="387" y="515" type="curve" smooth="yes"/>
      <point x="298" y="515"/>
      <point x="233" y="470"/>
      <point x="200" y="399" type="curve"/>
      <point x="217" y="402" type="line"/>
      <point x="241" y="552" type="line" smooth="yes"/>
      <point x="251" y="615"/>
      <point x="284" y="648"/>
      <point x="343" y="648" type="curve" smooth="yes"/>
      <point x="357" y="648"/>
      <point x="366" y="647"/>
      <point x="382" y="642" type="curve"/>
      <point x="406" y="736" type="line"/>
      <point x="389" y="743"/>
      <point x="364" y="746"/>
      <point x="341" y="746" type="curve" smooth="yes"/>
      <point x="211" y="746"/>
      <point x="137" y="684"/>
      <point x="116" y="553" type="curve" smooth="yes"/>
      <point x="28" y="0" type="line"/>
      <point x="152" y="0" type="line"/>
      <point x="169" y="107" type="line"/>
      <point x="159" y="104" type="line"/>
      <point x="171" y="34"/>
      <point x="235" y="-10"/>
    </contour>
    <contour>
      <point x="300" y="86" type="curve" smooth="yes"/>
      <point x="219" y="86"/>
      <point x="174" y="141"/>
      <point x="192" y="258" type="curve" smooth="yes"/>
      <point x="209" y="365"/>
      <point x="269" y="419"/>
      <point x="346" y="419" type="curve" smooth="yes"/>
      <point x="428" y="419"/>
      <point x="472" y="365"/>
      <point x="453" y="248" type="curve" smooth="yes"/>
      <point x="435" y="140"/>
      <point x="378" y="86"/>
    </contour>
  </outline>
</glyph>
<glyph name="dhook" format="2">
  <advance width="619"/>
  <unicode hex="0257"/>
  <outline>
    <contour>
      <point x="234" y="-10" type="curve" smooth="yes"/>
      <point x="322" y="-10"/>
      <point x="388" y="35"/>
      <point x="421" y="107" type="curve"/>
      <point x="406" y="107" type="line"/>
      <point x="389" y="0" type="line"/>
      <point x="512" y="0" type="line"/>
      <point x="599" y="551" type="line" smooth="yes"/>
      <point x="610" y="618"/>
      <point x="647" y="648"/>
      <point x="702" y="648" type="curve" smooth="yes"/>
      <point x="716" y="648"/>
      <point x="725" y="647"/>
      <point x="741" y="642" type="curve"/>
      <point x="766" y="736" type="line"/>
      <point x="748" y="743"/>
      <point x="722" y="746"/>
      <point x="700" y="746" type="curve" smooth="yes"/>
      <point x="573" y="746"/>
      <point x="496" y="686"/>
      <point x="476" y="556" type="curve" smooth="yes"/>
      <point x="451" y="402" type="line"/>
      <point x="462" y="402" type="line"/>
      <point x="450" y="471"/>
      <point x="386" y="515"/>
      <point x="302" y="515" type="curve" smooth="yes"/>
      <point x="171" y="515"/>
      <point x="69" y="431"/>
      <point x="43" y="268" type="curve" smooth="yes"/>
      <point x="16" y="98"/>
      <point x="95" y="-10"/>
    </contour>
    <contour>
      <point x="275" y="86" type="curve" smooth="yes"/>
      <point x="193" y="86"/>
      <point x="149" y="141"/>
      <point x="168" y="258" type="curve" smooth="yes"/>
      <point x="185" y="365"/>
      <point x="243" y="419"/>
      <point x="321" y="419" type="curve" smooth="yes"/>
      <point x="402" y="419"/>
      <point x="447" y="365"/>
      <point x="429" y="248" type="curve" smooth="yes"/>
      <point x="411" y="140"/>
      <point x="352" y="86"/>
    </contour>
  </outline>
</glyph>
<glyph name="schwa" format="2">
  <advance width="548"/>
  <unicode hex="0259"/>
  <outline>
    <contour>
      <point x="241" y="-10" type="curve" smooth="yes"/>
      <point x="383" y="-10"/>
      <point x="480" y="85"/>
      <point x="505" y="234" type="curve" smooth="yes"/>
      <point x="532" y="403"/>
      <point x="442" y="515"/>
      <point x="270" y="515" type="curve" smooth="yes"/>
      <point x="192" y="515"/>
      <point x="121" y="496"/>
      <point x="64" y="456" type="curve"/>
      <point x="98" y="372" type="line"/>
      <point x="146" y="406"/>
      <point x="196" y="419"/>
      <point x="247" y="419" type="curve" smooth="yes"/>
      <point x="358" y="419"/>
      <point x="404" y="361"/>
      <point x="389" y="256" type="curve" smooth="yes"/>
      <point x="384" y="223" type="line" smooth="yes"/>
      <point x="372" y="140"/>
      <point x="322" y="77"/>
      <point x="240" y="77" type="curve" smooth="yes"/>
      <point x="159" y="77"/>
      <point x="123" y="127"/>
      <point x="140" y="220" type="curve"/>
      <point x="120" y="204" type="line"/>
      <point x="399" y="204" type="line"/>
      <point x="409" y="270" type="line"/>
      <point x="41" y="270" type="line"/>
      <point x="36" y="238" type="line" smooth="yes"/>
      <point x="14" y="93"/>
      <point x="86" y="-10"/>
    </contour>
  </outline>
</glyph>
<glyph name="apostrophemod" format="2">
  <advance width="350"/>
  <unicode hex="02BC"/>
  <outline>
    <contour>
      <point x="239" y="567" type="line"/>
      <point x="286" y="605"/>
      <point x="302" y="645"/>
      <point x="310" y="699" type="curve" smooth="yes"/>
      <point x="322" y="769" type="line"/>
      <point x="192" y="769" type="line"/>
      <point x="175" y="665" type="line"/>
      <point x="267" y="665" type="line"/>
      <point x="240" y="679" type="line"/>
      <point x="237" y="652"/>
      <point x="227" y="626"/>
      <point x="196" y="599" type="curve"/>
    </contour>
  </outline>
</glyph>
<glyph name="ringhalfright" format="2">
  <advance width="500"/>
  <unicode hex="02BE"/>
  <anchor x="287" y="484" name="_top"/>
  <anchor x="319" y="685" name="top"/>
  <outline>
    <contour>
      <point x="297" y="552" type="line"/>
      <point x="363" y="548"/>
      <point x="422" y="599"/>
      <point x="422" y="666" type="curve" smooth="yes"/>
      <point x="422" y="716"/>
      <point x="386" y="756"/>
      <point x="331" y="761" type="curve"/>
      <point x="322" y="707" type="line"/>
      <point x="347" y="706"/>
      <point x="363" y="688"/>
      <point x="363" y="663" type="curve" smooth="yes"/>
      <point x="363" y="631"/>
      <point x="338" y="605"/>
      <point x="306" y="606" type="curve"/>
    </contour>
  </outline>
</glyph>
<glyph name="verticallinelowmod" format="2">
  <advance width="500"/>
  <unicode hex="02CC"/>
  <outline>
    <contour>
      <point x="127" y="-270" type="line"/>
      <point x="208" y="-270" type="line"/>
      <point x="240" y="-67" type="line"/>
      <point x="159" y="-67" type="line"/>
    </contour>
  </outline>
</glyph>
<glyph name="circumflexcomb" format="2">
  <unicode hex="0302"/>
  <anchor x="41" y="484" name="_top"/>
  <anchor x="65" y="685" name="top"/>
  <outline>
    <contour>
      <point x="-118" y="554" type="line"/>
      <point x="-38" y="554" type="line"/>
      <point x="63" y="686" type="line"/>
      <point x="134" y="554" type="line"/>
      <point x="213" y="554" type="line"/>
      <point x="123" y="757" type="line"/>
      <point x="14" y="757" type="line"/>
    </contour>
  </outline>
</glyph>
<glyph name="tildecomb" format="2">
  <unicode hex="0303"/>
  <anchor x="38" y="484" name="_top"/>
  <anchor x="63" y="685" name="top"/>
  <outline>
    <contour>
      <point x="-78" y="584" type="line"/>
      <point x="-67" y="630"/>
      <point x="-46" y="654"/>
      <point x="-11" y="654" type="curve" smooth="yes"/>
      <point x="11" y="654"/>
      <point x="29" y="640"/>
      <point x="48" y="625" type="curve" smooth="yes"/>
      <point x="69" y="607"/>
      <point x="94" y="588"/>
      <point x="130" y="588" type="curve" smooth="yes"/>
      <point x="197" y="588"/>
      <point x="245" y="641"/>
      <point x="258" y="736" type="curve"/>
      <point x="196" y="740" type="line"/>
      <point x="185" y="694"/>
      <point x="164" y="670"/>
      <point x="129" y="670" type="curve" smooth="yes"/>
      <point x="106" y="670"/>
      <point x="88" y="684"/>
      <point x="69" y="700" type="curve" smooth="yes"/>
      <point x="48" y="718"/>
      <point x="25" y="736"/>
      <point x="-11" y="736" type="curve" smooth="yes"/>
      <point x="-79" y="736"/>
      <point x="-127" y="683"/>
      <point x="-140" y="588" type="curve"/>
    </contour>
  </outline>
</glyph>
<glyph name="dotaccentcomb" format="2">
  <unicode hex="0307"/>
  <anchor x="37" y="484" name="_top"/>
  <anchor x="69" y="685" name="top"/>
  <outline>
    <contour>
      <point x="-7" y="597" type="line"/>
      <point x="116" y="597" type="line"/>
      <point x="134" y="713" type="line"/>
      <point x="12" y="713" type="line"/>
    </contour>
  </outline>
</glyph>
<glyph name="hookabovecomb" format="2">
  <unicode hex="0309"/>
  <anchor x="54" y="484" name="_top"/>
  <anchor x="83" y="685" name="top"/>
  <outline>
    <contour>
      <point x="22" y="554" type="line"/>
      <point x="98" y="554" type="line"/>
      <point x="101" y="570" type="line" smooth="yes"/>
      <point x="111" y="625"/>
      <point x="186" y="626"/>
      <point x="186" y="699" type="curve" smooth="yes"/>
      <point x="186" y="740"/>
      <point x="149" y="765"/>
      <point x="85" y="765" type="curve" smooth="yes"/>
      <point x="42" y="765"/>
      <point x="5" y="757"/>
      <point x="-25" y="741" type="curve"/>
      <point x="-11" y="687" type="line"/>
      <point x="12" y="698"/>
      <point x="31" y="702"/>
      <point x="52" y="702" type="curve" smooth="yes"/>
      <point x="77" y="702"/>
      <point x="91" y="695"/>
      <point x="91" y="679" type="curve" smooth="yes"/>
      <point x="91" y="644"/>
      <point x="34" y="631"/>
      <point x="25" y="576" type="curve" smooth="yes"/>
    </contour>
  </outline>
</glyph>
<glyph name="ringcomb" format="2">
  <unicode hex="030A"/>
  <anchor x="39" y="484" name="_top"/>
  <anchor x="71" y="685" name="top"/>
  <outline>
    <contour>
      <point x="68" y="546" type="curve" smooth="yes"/>
      <point x="139" y="546"/>
      <point x="194" y="599"/>
      <point x="194" y="668" type="curve" smooth="yes"/>
      <point x="194" y="737"/>
      <point x="139" y="791"/>
      <point x="68" y="791" type="curve" smooth="yes"/>
      <point x="-3" y="791"/>
      <point x="-58" y="737"/>
      <point x="-58" y="668" type="curve" smooth="yes"/>
      <point x="-58" y="599"/>
      <point x="-3" y="546"/>
    </contour>
    <contour>
      <point x="68" y="603" type="curve" smooth="yes"/>
      <point x="31" y="603"/>
      <point x="3" y="631"/>
      <point x="3" y="668" type="curve" smooth="yes"/>
      <point x="3" y="706"/>
      <point x="31" y="733"/>
      <point x="68" y="733" type="curve" smooth="yes"/>
      <point x="106" y="733"/>
      <point x="133" y="706"/>
      <point x="133" y="668" type="curve" smooth="yes"/>
      <point x="133" y="631"/>
      <point x="106" y="603"/>
    </contour>
  </outline>
</glyph>
<glyph name="caroncomb" format="2">
  <unicode hex="030C"/>
  <anchor x="48" y="484" name="_top"/>
  <anchor x="80" y="685" name="top"/>
  <outline>
    <contour>
      <point x="5" y="554" type="line"/>
      <point x="114" y="554" type="line"/>
      <point x="245" y="757" type="line"/>
      <point x="165" y="757" type="line"/>
      <point x="64" y="625" type="line"/>
      <point x="-6" y="757" type="line"/>
      <point x="-85" y="757" type="line"/>
    </contour>
  </outline>
</glyph>
<glyph name="horncomb" format="2">
  <unicode hex="031B"/>
  <anchor x="36" y="484" name="_topright"/>
  <outline>
    <contour>
      <point x="102" y="425" type="line"/>
      <point x="187" y="433"/>
      <point x="242" y="491"/>
      <point x="255" y="576" type="curve" smooth="yes"/>
      <point x="262" y="616" type="line"/>
      <point x="152" y="616" type="line"/>
      <point x="149" y="595" type="line" smooth="yes"/>
      <point x="135" y="515"/>
      <point x="108" y="490"/>
      <point x="37" y="489" type="curve"/>
      <point x="34" y="470" type="line"/>
    </contour>
  </outline>
</glyph>
<glyph name="slashlongcomb" format="2">
  <unicode hex="0338"/>
  <anchor x="204" y="248" name="_center"/>
  <outline>
    <contour>
      <point x="31" y="-47" type="line"/>
      <point x="434" y="501" type="line"/>
      <point x="379" y="540" type="line"/>
      <point x="-26" y="-7" type="line"/>
    </contour>
  </outline>
</glyph>
<glyph name="Sigma" format="2">
  <advance width="615"/>
  <unicode hex="03A3"/>
  <outline>
    <contour>
      <point x="-20" y="-180" type="line"/>
      <point x="510" y="-180" type="line"/>
      <point x="527" y="-74" type="line"/>
      <point x="135" y="-74" type="line"/>
      <point x="135" y="-102" type="line"/>
      <point x="426" y="228" type="line"/>
      <point x="437" y="297" type="line"/>
      <point x="236" y="627" type="line"/>
      <point x="241" y="599" type="line"/>
      <point x="634" y="599" type="line"/>
      <point x="650" y="705" type="line"/>
      <point x="121" y="705" type="line"/>
      <point x="107" y="615" type="line"/>
      <point x="333" y="243" type="line"/>
      <point x="323" y="283" type="line"/>
      <point x="-5" y="-90" type="line"/>
    </contour>
  </outline>
</glyph>
<glyph name="Dje-cy" format="2">
  <advance width="881.5"/>
  <unicode hex="0402"/>
  <outline>
    <contour>
      <point x="533" y="-190" type="curve" smooth="yes"/>
      <point x="673" y="-190"/>
      <point x="771" y="-117"/>
      <point x="798" y="59" type="curve" smooth="yes"/>
      <point x="812" y="148" type="line" smooth="yes"/>
      <point x="844" y="345"/>
      <point x="750" y="442"/>
      <point x="556" y="442" type="curve" smooth="yes"/>
      <point x="498" y="442"/>
      <point x="436" y="430"/>
      <point x="398" y="413" type="curve"/>
      <point x="428" y="599" type="line"/>
      <point x="660" y="599" type="line"/>
      <point x="678" y="705" type="line"/>
      <point x="83" y="705" type="line"/>
      <point x="66" y="599" type="line"/>
      <point x="299" y="599" type="line"/>
      <point x="204" y="0" type="line"/>
      <point x="333" y="0" type="line"/>
      <point x="381" y="303" type="line"/>
      <point x="424" y="323"/>
      <point x="473" y="333"/>
      <point x="525" y="333" type="curve" smooth="yes"/>
      <point x="649" y="333"/>
      <point x="705" y="275"/>
      <point x="683" y="142" type="curve" smooth="yes"/>
      <point x="669" y="54" type="line" smooth="yes"/>
      <point x="654" y="-40"/>
      <point x="603" y="-89"/>
      <point x="527" y="-89" type="curve" smooth="yes"/>
      <point x="494" y="-89"/>
      <point x="464" y="-84"/>
      <point x="440" y="-75" type="curve"/>
      <point x="411" y="-169" type="line"/>
      <point x="441" y="-182"/>
      <point x="485" y="-190"/>
    </contour>
  </outline>
</glyph>
<glyph name="Lje-cy" format="2">
  <advance width="1167"/>
  <unicode hex="0409"/>
  <outline>
    <contour>
      <point x="41" y="-17" type="line"/>
      <point x="190" y="52"/>
      <point x="289" y="172"/>
      <point x="332" y="448" type="curve" smooth="yes"/>
      <point x="356" y="600" type="line"/>
      <point x="611" y="600" type="line"/>
      <point x="516" y="0" type="line"/>
      <point x="849" y="0" type="line" smooth="yes"/>
      <point x="999" y="0"/>
      <point x="1100" y="62"/>
      <point x="1120" y="190" type="curve" smooth="yes"/>
      <point x="1143" y="337"/>
      <point x="1058" y="410"/>
      <point x="897" y="410" type="curve" smooth="yes"/>
      <point x="709" y="410" type="line"/>
      <point x="756" y="705" type="line"/>
      <point x="255" y="705" type="line"/>
      <point x="219" y="475" type="line" smooth="yes"/>
      <point x="178" y="221"/>
      <point x="108" y="138"/>
      <point x="-20" y="77" type="curve"/>
    </contour>
    <contour>
      <point x="659" y="99" type="line"/>
      <point x="693" y="311" type="line"/>
      <point x="879" y="311" type="line" smooth="yes"/>
      <point x="974" y="311"/>
      <point x="1010" y="277"/>
      <point x="998" y="203" type="curve" smooth="yes"/>
      <point x="987" y="132"/>
      <point x="939" y="99"/>
      <point x="844" y="99" type="curve" smooth="yes"/>
    </contour>
  </outline>
</glyph>
<glyph name="Tshe-cy" format="2">
  <advance width="878.5"/>
  <unicode hex="040B"/>
  <outline>
    <contour>
      <point x="204" y="0" type="line"/>
      <point x="333" y="0" type="line"/>
      <point x="381" y="303" type="line"/>
      <point x="429" y="326"/>
      <point x="479" y="334"/>
      <point x="529" y="334" type="curve" smooth="yes"/>
      <point x="648" y="334"/>
      <point x="702" y="276"/>
      <point x="680" y="142" type="curve" smooth="yes"/>
      <point x="658" y="0" type="line"/>
      <point x="786" y="0" type="line"/>
      <point x="809" y="148" type="line" smooth="yes"/>
      <point x="840" y="340"/>
      <point x="751" y="442"/>
      <point x="560" y="442" type="curve" smooth="yes"/>
      <point x="504" y="442"/>
      <point x="440" y="431"/>
      <point x="398" y="413" type="curve"/>
      <point x="428" y="599" type="line"/>
      <point x="661" y="599" type="line"/>
      <point x="678" y="705" type="line"/>
      <point x="83" y="705" type="line"/>
      <point x="66" y="599" type="line"/>
      <point x="299" y="599" type="line"/>
    </contour>
  </outline>
</glyph>
<glyph name="Dzhe-cy" format="2">
  <advance width="772"/>
  <unicode hex="040F"/>
  <outline>
    <contour>
      <point x="263" y="-165" type="line"/>
      <point x="376" y="-165" type="line"/>
      <point x="403" y="0" type="line"/>
      <point x="655" y="0" type="line"/>
      <point x="767" y="705" type="line"/>
      <point x="639" y="705" type="line"/>
      <point x="543" y="106" type="line"/>
      <point x="182" y="106" type="line"/>
      <point x="278" y="705" type="line"/>
      <point x="150" y="705" type="line"/>
      <point x="38" y="0" type="line"/>
      <point x="290" y="0" type="line"/>
    </contour>
  </outline>
</glyph>
<glyph name="De-cy" format="2">
  <advance width="821.5"/>
  <unicode hex="0414"/>
  <outline>
    <contour>
      <point x="-52" y="-165" type="line"/>
      <point x="61" y="-165" type="line"/>
      <point x="87" y="0" type="line"/>
      <point x="647" y="0" type="line"/>
      <point x="621" y="-165" type="line"/>
      <point x="733" y="-165" type="line"/>
      <point x="775" y="101" type="line"/>
      <point x="672" y="101" type="line"/>
      <point x="768" y="705" type="line"/>
      <point x="257" y="705" type="line"/>
      <point x="227" y="520" type="line" smooth="yes"/>
      <point x="195" y="317"/>
      <point x="141" y="181"/>
      <point x="63" y="101" type="curve"/>
      <point x="-10" y="101" type="line"/>
    </contour>
    <contour>
      <point x="197" y="101" type="line"/>
      <point x="265" y="188"/>
      <point x="313" y="316"/>
      <point x="343" y="509" type="curve" smooth="yes"/>
      <point x="358" y="605" type="line"/>
      <point x="623" y="605" type="line"/>
      <point x="544" y="101" type="line"/>
    </contour>
  </outline>
</glyph>
<glyph name="Ii-cy" format="2">
  <advance width="755"/>
  <unicode hex="0418"/>
  <anchor x="518" y="0" name="bottomright"/>
  <anchor x="451" y="705" name="top"/>
  <outline>
    <contour>
      <point x="38" y="0" type="line"/>
      <point x="133" y="0" type="line"/>
      <point x="626" y="533" type="line"/>
      <point x="602" y="532" type="line"/>
      <point x="518" y="0" type="line"/>
      <point x="638" y="0" type="line"/>
      <point x="750" y="705" type="line"/>
      <point x="653" y="705" type="line"/>
      <point x="160" y="172" type="line"/>
      <point x="185" y="173" type="line"/>
      <point x="269" y="705" type="line"/>
      <point x="150" y="705" type="line"/>
    </contour>
  </outline>
</glyph>
<glyph name="El-cy" format="2">
  <advance width="772"/>
  <unicode hex="041B"/>
  <anchor x="533" y="0" name="bottomright"/>
  <outline>
    <contour>
      <point x="41" y="-17" type="line"/>
      <point x="190" y="52"/>
      <point x="289" y="172"/>
      <point x="332" y="448" type="curve" smooth="yes"/>
      <point x="356" y="600" type="line"/>
      <point x="622" y="600" type="line"/>
      <point x="527" y="0" type="line"/>
      <point x="655" y="0" type="line"/>
      <point x="767" y="705" type="line"/>
      <point x="255" y="705" type="line"/>
      <point x="219" y="475" type="line" smooth="yes"/>
      <point x="179" y="221"/>
      <point x="108" y="138"/>
      <point x="-20" y="77" type="curve"/>
    </contour>
  </outline>
</glyph>
<glyph name="U-cy" format="2">
  <advance width="679"/>
  <unicode hex="0423"/>
  <anchor x="414" y="705" name="top"/>
  <outline>
    <contour>
      <point x="141" y="0" type="line"/>
      <point x="280" y="0" type="line"/>
      <point x="764" y="705" type="line"/>
      <point x="626" y="705" type="line"/>
      <point x="353" y="307" type="line"/>
      <point x="378" y="307" type="line"/>
      <point x="191" y="705" type="line"/>
      <point x="59" y="705" type="line"/>
      <point x="303" y="195" type="line"/>
      <point x="303" y="235" type="line"/>
    </contour>
  </outline>
</glyph>
<glyph name="Tse-cy" format="2">
  <advance width="820"/>
  <unicode hex="0426"/>
  <outline>
    <contour>
      <point x="619" y="-165" type="line"/>
      <point x="732" y="-165" type="line"/>
      <point x="775" y="106" type="line"/>
      <point x="671" y="106" type="line"/>
      <point x="767" y="705" type="line"/>
      <point x="639" y="705" type="line"/>
      <point x="543" y="106" type="line"/>
      <point x="182" y="106" type="line"/>
      <point x="277" y="705" type="line"/>
      <point x="150" y="705" type="line"/>
      <point x="38" y="0" type="line"/>
      <point x="645" y="0" type="line"/>
    </contour>
  </outline>
</glyph>
<glyph name="Sha-cy" format="2">
  <advance width="1097.5"/>
  <unicode hex="0428"/>
  <outline>
    <contour>
      <point x="38" y="0" type="line"/>
      <point x="980" y="0" type="line"/>
      <point x="1092" y="705" type="line"/>
      <point x="966" y="705" type="line"/>
      <point x="871" y="106" type="line"/>
      <point x="589" y="106" type="line"/>
      <point x="684" y="705" type="line"/>
      <point x="558" y="705" type="line"/>
      <point x="463" y="106" type="line"/>
      <point x="181" y="106" type="line"/>
      <point x="276" y="705" type="line"/>
      <point x="150" y="705" type="line"/>
    </contour>
  </outline>
</glyph>
<glyph name="Shcha-cy" format="2">
  <advance width="1145.5"/>
  <unicode hex="0429"/>
  <outline>
    <contour>
      <point x="945" y="-165" type="line"/>
      <point x="1057" y="-165" type="line"/>
      <point x="1100" y="106" type="line"/>
      <point x="997" y="106" type="line"/>
      <point x="1092" y="705" type="line"/>
      <point x="966" y="705" type="line"/>
      <point x="871" y="106" type="line"/>
      <point x="589" y="106" type="line"/>
      <point x="684" y="705" type="line"/>
      <point x="558" y="705" type="line"/>
      <point x="463" y="106" type="line"/>
      <point x="181" y="106" type="line"/>
      <point x="276" y="705" type="line"/>
      <point x="150" y="705" type="line"/>
      <point x="38" y="0" type="line"/>
      <point x="971" y="0" type="line"/>
    </contour>
  </outline>
</glyph>
<glyph name="Hardsign-cy" format="2">
  <advance width="836"/>
  <unicode hex="042A"/>
  <outline>
    <contour>
      <point x="185" y="0" type="line"/>
      <point x="518" y="0" type="line" smooth="yes"/>
      <point x="668" y="0"/>
      <point x="769" y="62"/>
      <point x="789" y="190" type="curve" smooth="yes"/>
      <point x="812" y="337"/>
      <point x="727" y="410"/>
      <point x="566" y="410" type="curve" smooth="yes"/>
      <point x="378" y="410" type="line"/>
      <point x="425" y="705" type="line"/>
      <point x="83" y="705" type="line"/>
      <point x="66" y="600" type="line"/>
      <point x="279" y="600" type="line"/>
    </contour>
    <contour>
      <point x="328" y="99" type="line"/>
      <point x="362" y="311" type="line"/>
      <point x="548" y="311" type="line" smooth="yes"/>
      <point x="643" y="311"/>
      <point x="679" y="277"/>
      <point x="667" y="203" type="curve" smooth="yes"/>
      <point x="656" y="132"/>
      <point x="608" y="99"/>
      <point x="513" y="99" type="curve" smooth="yes"/>
    </contour>
  </outline>
</glyph>
<glyph name="Ereversed-cy" format="2">
  <advance width="697"/>
  <unicode hex="042D"/>
  <anchor x="278" y="0" name="bottom"/>
  <anchor x="389" y="705" name="top"/>
  <outline>
    <contour>
      <point x="248" y="-10" type="curve" smooth="yes"/>
      <point x="472" y="-12"/>
      <point x="620" y="117"/>
      <point x="655" y="337" type="curve" smooth="yes"/>
      <point x="689" y="553"/>
      <point x="584" y="715"/>
      <point x="342" y="715" type="curve" smooth="yes"/>
      <point x="252" y="715"/>
      <point x="157" y="688"/>
      <point x="85" y="632" type="curve"/>
      <point x="124" y="530" type="line"/>
      <point x="187" y="581"/>
      <point x="253" y="603"/>
      <point x="327" y="603" type="curve" smooth="yes"/>
      <point x="478" y="603"/>
      <point x="539" y="512"/>
      <point x="523" y="366" type="curve"/>
      <point x="566" y="409" type="line"/>
      <point x="197" y="409" type="line"/>
      <point x="181" y="308" type="line"/>
      <point x="552" y="308" type="line"/>
      <point x="518" y="330" type="line"/>
      <point x="488" y="187"/>
      <point x="399" y="103"/>
      <point x="259" y="103" type="curve" smooth="yes"/>
      <point x="178" y="103"/>
      <point x="130" y="121"/>
      <point x="73" y="166" type="curve"/>
      <point x="27" y="64" type="line"/>
      <point x="79" y="17"/>
      <point x="155" y="-10"/>
    </contour>
  </outline>
</glyph>
<glyph name="Ia-cy" format="2">
  <advance width="705.5"/>
  <unicode hex="042F"/>
  <outline>
    <contour>
      <point x="-13" y="0" type="line"/>
      <point x="134" y="0" type="line"/>
      <point x="296" y="224" type="line" smooth="yes"/>
      <point x="328" y="269"/>
      <point x="357" y="282"/>
      <point x="411" y="282" type="curve" smooth="yes"/>
      <point x="505" y="282" type="line"/>
      <point x="460" y="0" type="line"/>
      <point x="588" y="0" type="line"/>
      <point x="700" y="705" type="line"/>
      <point x="380" y="705" type="line" smooth="yes"/>
      <point x="222" y="705"/>
      <point x="127" y="638"/>
      <point x="105" y="506" type="curve" smooth="yes"/>
      <point x="84" y="369"/>
      <point x="166" y="287"/>
      <point x="311" y="287" type="curve"/>
      <point x="324" y="303" type="line"/>
      <point x="290" y="303" type="line" smooth="yes"/>
      <point x="234" y="303"/>
      <point x="185" y="274"/>
      <point x="144" y="217" type="curve" smooth="yes"/>
    </contour>
    <contour>
      <point x="348" y="376" type="line" smooth="yes"/>
      <point x="258" y="376"/>
      <point x="215" y="417"/>
      <point x="227" y="495" type="curve" smooth="yes"/>
      <point x="238" y="567"/>
      <point x="287" y="605"/>
      <point x="390" y="605" type="curve" smooth="yes"/>
      <point x="556" y="605" type="line"/>
      <point x="520" y="376" type="line"/>
    </contour>
  </outline>
</glyph>
<glyph name="ve-cy" format="2">
  <advance width="579"/>
  <unicode hex="0432"/>
  <outline>
    <contour>
      <point x="31" y="0" type="line"/>
      <point x="319" y="0" type="line" smooth="yes"/>
      <point x="432" y="0"/>
      <point x="508" y="49"/>
      <point x="522" y="138" type="curve" smooth="yes"/>
      <point x="534" y="213"/>
      <point x="492" y="260"/>
      <point x="408" y="265" type="curve"/>
      <point x="407" y="251" type="line"/>
      <point x="479" y="261"/>
      <point x="532" y="308"/>
      <point x="542" y="369" type="curve" smooth="yes"/>
      <point x="555" y="455"/>
      <point x="507" y="505"/>
      <point x="373" y="505" type="curve" smooth="yes"/>
      <point x="111" y="505" type="line"/>
    </contour>
    <contour>
      <point x="159" y="77" type="line"/>
      <point x="181" y="219" type="line"/>
      <point x="330" y="219" type="line" smooth="yes"/>
      <point x="389" y="219"/>
      <point x="418" y="195"/>
      <point x="410" y="147" type="curve" smooth="yes"/>
      <point x="403" y="99"/>
      <point x="367" y="77"/>
      <point x="308" y="77" type="curve" smooth="yes"/>
    </contour>
    <contour>
      <point x="194" y="296" type="line"/>
      <point x="214" y="429" type="line"/>
      <point x="353" y="429" type="line" smooth="yes"/>
      <point x="407" y="429"/>
      <point x="433" y="406"/>
      <point x="426" y="362" type="curve" smooth="yes"/>
      <point x="420" y="320"/>
      <point x="387" y="296"/>
      <point x="334" y="296" type="curve" smooth="yes"/>
    </contour>
  </outline>
</glyph>
<glyph name="ge-cy" format="2">
  <advance width="466.5"/>
  <unicode hex="0433"/>
  <anchor x="39" y="0" name="bottomright"/>
  <anchor x="166" y="254" name="center"/>
  <anchor x="281" y="484" name="top"/>
  <outline>
    <contour>
      <point x="31" y="0" type="line"/>
      <point x="156" y="0" type="line"/>
      <point x="220" y="407" type="line"/>
      <point x="474" y="407" type="line"/>
      <point x="490" y="505" type="line"/>
      <point x="111" y="505" type="line"/>
    </contour>
  </outline>
</glyph>
<glyph name="de-cy" format="2">
  <advance width="633"/>
  <unicode hex="0434"/>
  <outline>
    <contour>
      <point x="-35" y="-130" type="line"/>
      <point x="71" y="-130" type="line"/>
      <point x="92" y="0" type="line"/>
      <point x="466" y="0" type="line"/>
      <point x="445" y="-130" type="line"/>
      <point x="551" y="-130" type="line"/>
      <point x="586" y="95" type="line"/>
      <point x="505" y="95" type="line"/>
      <point x="570" y="505" type="line"/>
      <point x="181" y="505" type="line"/>
      <point x="158" y="361" type="line" smooth="yes"/>
      <point x="139" y="238"/>
      <point x="109" y="158"/>
      <point x="59" y="95" type="curve"/>
      <point x="1" y="95" type="line"/>
    </contour>
    <contour>
      <point x="175" y="94" type="line"/>
      <point x="216" y="153"/>
      <point x="246" y="244"/>
      <point x="260" y="333" type="curve" smooth="yes"/>
      <point x="272" y="411" type="line"/>
      <point x="438" y="411" type="line"/>
      <point x="388" y="94" type="line"/>
    </contour>
  </outline>
</glyph>
<glyph name="ii-cy" format="2">
  <advance width="615"/>
  <unicode hex="0438"/>
  <anchor x="392" y="0" name="bottomright"/>
  <anchor x="345" y="484" name="top"/>
  <outline>
    <contour>
      <point x="31" y="0" type="line"/>
      <point x="134" y="0" type="line"/>
      <point x="485" y="382" type="line"/>
      <point x="452" y="383" type="line"/>
      <point x="391" y="0" type="line"/>
      <point x="504" y="0" type="line"/>
      <point x="584" y="505" type="line"/>
      <point x="481" y="505" type="line"/>
      <point x="131" y="124" type="line"/>
      <point x="164" y="123" type="line"/>
      <point x="224" y="505" type="line"/>
      <point x="111" y="505" type="line"/>
    </contour>
  </outline>
</glyph>
<glyph name="el-cy" format="2">
  <advance width="609"/>
  <unicode hex="043B"/>
  <anchor x="382" y="0" name="bottomright"/>
  <outline>
    <contour>
      <point x="20" y="-14" type="line"/>
      <point x="157" y="22"/>
      <point x="227" y="119"/>
      <point x="262" y="331" type="curve" smooth="yes"/>
      <point x="274" y="409" type="line"/>
      <point x="439" y="409" type="line"/>
      <point x="374" y="0" type="line"/>
      <point x="498" y="0" type="line"/>
      <point x="578" y="505" type="line"/>
      <point x="176" y="505" type="line"/>
      <point x="150" y="345" type="line" smooth="yes"/>
      <point x="124" y="181"/>
      <point x="85" y="117"/>
      <point x="-8" y="85" type="curve"/>
    </contour>
  </outline>
</glyph>
<glyph name="en-cy" format="2">
  <advance width="618"/>
  <unicode hex="043D"/>
  <anchor x="391" y="0" name="bottomright"/>
  <outline>
    <contour>
      <point x="31" y="0" type="line"/>
      <point x="155" y="0" type="line"/>
      <point x="189" y="211" type="line"/>
      <point x="417" y="211" type="line"/>
      <point x="383" y="0" type="line"/>
      <point x="507" y="0" type="line"/>
      <point x="587" y="505" type="line"/>
      <point x="463" y="505" type="line"/>
      <point x="432" y="307" type="line"/>
      <point x="204" y="307" type="line"/>
      <point x="235" y="505" type="line"/>
      <point x="111" y="505" type="line"/>
    </contour>
  </outline>
</glyph>
<glyph name="tse-cy" format="2">
  <advance width="635"/>
  <unicode hex="0446"/>
  <outline>
    <contour>
      <point x="448" y="-130" type="line"/>
      <point x="553" y="-130" type="line"/>
      <point x="589" y="96" type="line"/>
      <point x="508" y="96" type="line"/>
      <point x="572" y="505" type="line"/>
      <point x="449" y="505" type="line"/>
      <point x="384" y="96" type="line"/>
      <point x="171" y="96" type="line"/>
      <point x="235" y="505" type="line"/>
      <point x="111" y="505" type="line"/>
      <point x="31" y="0" type="line"/>
      <point x="469" y="0" type="line"/>
    </contour>
  </outline>
</glyph>
<glyph name="shcha-cy" format="2">
  <advance width="880"/>
  <unicode hex="0449"/>
  <outline>
    <contour>
      <point x="693" y="-130" type="line"/>
      <point x="798" y="-130" type="line"/>
      <point x="833" y="96" type="line"/>
      <point x="753" y="96" type="line"/>
      <point x="817" y="505" type="line"/>
      <point x="700" y="505" type="line"/>
      <point x="636" y="96" type="line"/>
      <point x="458" y="96" type="line"/>
      <point x="522" y="505" type="line"/>
      <point x="406" y="505" type="line"/>
      <point x="341" y="96" type="line"/>
      <point x="164" y="96" type="line"/>
      <point x="228" y="505" type="line"/>
      <point x="111" y="505" type="line"/>
      <point x="31" y="0" type="line"/>
      <point x="714" y="0" type="line"/>
    </contour>
  </outline>
</glyph>
<glyph name="hardsign-cy" format="2">
  <advance width="649.5"/>
  <unicode hex="044A"/>
  <outline>
    <contour>
      <point x="117" y="0" type="line"/>
      <point x="375" y="0" type="line" smooth="yes"/>
      <point x="502" y="0"/>
      <point x="585" y="51"/>
      <point x="602" y="161" type="curve" smooth="yes"/>
      <point x="620" y="271"/>
      <point x="561" y="336"/>
      <point x="420" y="336" type="curve" smooth="yes"/>
      <point x="294" y="336" type="line"/>
      <point x="321" y="505" type="line"/>
      <point x="47" y="505" type="line"/>
      <point x="31" y="407" type="line"/>
      <point x="182" y="407" type="line"/>
    </contour>
    <contour>
      <point x="254" y="82" type="line"/>
      <point x="281" y="254" type="line"/>
      <point x="396" y="254" type="line" smooth="yes"/>
      <point x="465" y="254"/>
      <point x="498" y="227"/>
      <point x="488" y="164" type="curve" smooth="yes"/>
      <point x="479" y="108"/>
      <point x="439" y="82"/>
      <point x="371" y="82" type="curve" smooth="yes"/>
    </contour>
  </outline>
</glyph>
<glyph name="yeru-cy" format="2">
  <advance width="789"/>
  <unicode hex="044B"/>
  <anchor x="432" y="484" name="top"/>
  <outline>
    <contour>
      <point x="31" y="0" type="line"/>
      <point x="289" y="0" type="line" smooth="yes"/>
      <point x="417" y="0"/>
      <point x="499" y="51"/>
      <point x="517" y="161" type="curve" smooth="yes"/>
      <point x="534" y="271"/>
      <point x="475" y="336"/>
      <point x="334" y="336" type="curve" smooth="yes"/>
      <point x="208" y="336" type="line"/>
      <point x="235" y="505" type="line"/>
      <point x="111" y="505" type="line"/>
    </contour>
    <contour>
      <point x="168" y="82" type="line"/>
      <point x="195" y="254" type="line"/>
      <point x="311" y="254" type="line" smooth="yes"/>
      <point x="380" y="254"/>
      <point x="412" y="227"/>
      <point x="402" y="164" type="curve" smooth="yes"/>
      <point x="393" y="108"/>
      <point x="353" y="82"/>
      <point x="285" y="82" type="curve" smooth="yes"/>
    </contour>
    <contour>
      <point x="554" y="0" type="line"/>
      <point x="678" y="0" type="line"/>
      <point x="758" y="505" type="line"/>
      <point x="634" y="505" type="line"/>
    </contour>
  </outline>
</glyph>
<glyph name="softsign-cy" format="2">
  <advance width="564"/>
  <unicode hex="044C"/>
  <outline>
    <contour>
      <point x="31" y="0" type="line"/>
      <point x="289" y="0" type="line" smooth="yes"/>
      <point x="417" y="0"/>
      <point x="499" y="51"/>
      <point x="517" y="161" type="curve" smooth="yes"/>
      <point x="534" y="271"/>
      <point x="475" y="336"/>
      <point x="334" y="336" type="curve" smooth="yes"/>
      <point x="208" y="336" type="line"/>
      <point x="235" y="505" type="line"/>
      <point x="111" y="505" type="line"/>
    </contour>
    <contour>
      <point x="168" y="82" type="line"/>
      <point x="195" y="254" type="line"/>
      <point x="311" y="254" type="line" smooth="yes"/>
      <point x="380" y="254"/>
      <point x="412" y="227"/>
      <point x="402" y="164" type="curve" smooth="yes"/>
      <point x="393" y="108"/>
      <point x="353" y="82"/>
      <point x="285" y="82" type="curve" smooth="yes"/>
    </contour>
  </outline>
</glyph>
<glyph name="ereversed-cy" format="2">
  <advance width="539"/>
  <unicode hex="044D"/>
  <anchor x="282" y="484" name="top"/>
  <outline>
    <contour>
      <point x="190" y="-10" type="curve" smooth="yes"/>
      <point x="348" y="-10"/>
      <point x="463" y="74"/>
      <point x="489" y="238" type="curve" smooth="yes"/>
      <point x="516" y="406"/>
      <point x="422" y="515"/>
      <point x="256" y="515" type="curve" smooth="yes"/>
      <point x="179" y="515"/>
      <point x="104" y="492"/>
      <point x="61" y="455" type="curve"/>
      <point x="89" y="376" type="line"/>
      <point x="134" y="410"/>
      <point x="185" y="425"/>
      <point x="236" y="425" type="curve" smooth="yes"/>
      <point x="333" y="425"/>
      <point x="383" y="371"/>
      <point x="373" y="267" type="curve"/>
      <point x="397" y="299" type="line"/>
      <point x="142" y="299" type="line"/>
      <point x="128" y="214" type="line"/>
      <point x="382" y="214" type="line"/>
      <point x="370" y="230" type="line"/>
      <point x="349" y="135"/>
      <point x="285" y="80"/>
      <point x="187" y="80" type="curve" smooth="yes"/>
      <point x="138" y="80"/>
      <point x="91" y="94"/>
      <point x="56" y="125" type="curve"/>
      <point x="18" y="45" type="line"/>
      <point x="54" y="10"/>
      <point x="117" y="-10"/>
    </contour>
  </outline>
</glyph>
<glyph name="dje-cy" format="2">
  <advance width="613"/>
  <unicode hex="0452"/>
  <outline>
    <contour>
      <point x="272" y="-187" type="line"/>
      <point x="433" y="-148"/>
      <point x="491" y="-82"/>
      <point x="514" y="61" type="curve" smooth="yes"/>
      <point x="549" y="284" type="line" smooth="yes"/>
      <point x="572" y="426"/>
      <point x="522" y="499"/>
      <point x="400" y="499" type="curve" smooth="yes"/>
      <point x="316" y="499"/>
      <point x="246" y="461"/>
      <point x="206" y="387" type="curve"/>
      <point x="221" y="388" type="line"/>
      <point x="250" y="569" type="line"/>
      <point x="445" y="569" type="line"/>
      <point x="459" y="657" type="line"/>
      <point x="264" y="657" type="line"/>
      <point x="277" y="736" type="line"/>
      <point x="152" y="736" type="line"/>
      <point x="139" y="657" type="line"/>
      <point x="48" y="657" type="line"/>
      <point x="34" y="569" type="line"/>
      <point x="125" y="569" type="line"/>
      <point x="35" y="0" type="line"/>
      <point x="160" y="0" type="line"/>
      <point x="203" y="271" type="line" smooth="yes"/>
      <point x="215" y="349"/>
      <point x="269" y="400"/>
      <point x="346" y="400" type="curve" smooth="yes"/>
      <point x="409" y="400"/>
      <point x="437" y="368"/>
      <point x="424" y="284" type="curve" smooth="yes"/>
      <point x="389" y="59" type="line" smooth="yes"/>
      <point x="374" y="-32"/>
      <point x="346" y="-72"/>
      <point x="247" y="-95" type="curve"/>
    </contour>
  </outline>
</glyph>
<glyph name="e-cy" format="2">
  <advance width="544"/>
  <unicode hex="0454"/>
  <outline>
    <contour>
      <point x="294" y="-10" type="curve" smooth="yes"/>
      <point x="369" y="-10"/>
      <point x="444" y="14"/>
      <point x="484" y="50" type="curve"/>
      <point x="451" y="130" type="line"/>
      <point x="406" y="95"/>
      <point x="355" y="80"/>
      <point x="303" y="80" type="curve" smooth="yes"/>
      <point x="206" y="80"/>
      <point x="157" y="134"/>
      <point x="166" y="239" type="curve"/>
      <point x="145" y="214" type="line"/>
      <point x="400" y="214" type="line"/>
      <point x="414" y="299" type="line"/>
      <point x="160" y="299" type="line"/>
      <point x="170" y="275" type="line"/>
      <point x="191" y="370"/>
      <point x="255" y="426"/>
      <point x="352" y="426" type="curve" smooth="yes"/>
      <point x="401" y="426"/>
      <point x="448" y="412"/>
      <point x="484" y="380" type="curve"/>
      <point x="522" y="460" type="line"/>
      <point x="486" y="496"/>
      <point x="423" y="515"/>
      <point x="349" y="515" type="curve" smooth="yes"/>
      <point x="192" y="515"/>
      <point x="76" y="431"/>
      <point x="50" y="268" type="curve" smooth="yes"/>
      <point x="23" y="99"/>
      <point x="118" y="-10"/>
    </contour>
  </outline>
</glyph>
<glyph name="nje-cy" format="2">
  <advance width="916"/>
  <unicode hex="045A"/>
  <outline>
    <contour>
      <point x="31" y="0" type="line"/>
      <point x="155" y="0" type="line"/>
      <point x="189" y="211" type="line"/>
      <point x="417" y="211" type="line"/>
      <point x="384" y="0" type="line"/>
      <point x="641" y="0" type="line" smooth="yes"/>
      <point x="769" y="0"/>
      <point x="851" y="51"/>
      <point x="869" y="161" type="curve" smooth="yes"/>
      <point x="886" y="271"/>
      <point x="827" y="336"/>
      <point x="686" y="336" type="curve" smooth="yes"/>
      <point x="560" y="336" type="line"/>
      <point x="587" y="505" type="line"/>
      <point x="464" y="505" type="line"/>
      <point x="432" y="307" type="line"/>
      <point x="204" y="307" type="line"/>
      <point x="235" y="505" type="line"/>
      <point x="111" y="505" type="line"/>
    </contour>
    <contour>
      <point x="520" y="82" type="line"/>
      <point x="547" y="254" type="line"/>
      <point x="663" y="254" type="line" smooth="yes"/>
      <point x="732" y="254"/>
      <point x="764" y="227"/>
      <point x="754" y="164" type="curve" smooth="yes"/>
      <point x="745" y="108"/>
      <point x="705" y="82"/>
      <point x="637" y="82" type="curve" smooth="yes"/>
    </contour>
  </outline>
</glyph>
<glyph name="ertick-cy" format="2">
  <advance width="634"/>
  <unicode hex="048F"/>
  <outline>
    <contour>
      <point x="0" y="-216" type="line"/>
      <point x="125" y="-216" type="line"/>
      <point x="176" y="104" type="line"/>
      <point x="165" y="104" type="line"/>
      <point x="178" y="34"/>
      <point x="242" y="-10"/>
      <point x="325" y="-10" type="curve" smooth="yes"/>
      <point x="360" y="-10"/>
      <point x="392" y="-4"/>
      <point x="421" y="12" type="curve"/>
      <point x="405" y="15" type="line"/>
      <point x="449" y="-56" type="line"/>
      <point x="502" y="-20" type="line"/>
      <point x="461" y="44" type="line"/>
      <point x="459" y="27" type="line"/>
      <point x="525" y="70"/>
      <point x="567" y="135"/>
      <point x="584" y="238" type="curve" smooth="yes"/>
      <point x="611" y="407"/>
      <point x="532" y="515"/>
      <point x="393" y="515" type="curve" smooth="yes"/>
      <point x="304" y="515"/>
      <point x="239" y="470"/>
      <point x="206" y="399" type="curve"/>
      <point x="221" y="399" type="line"/>
      <point x="227" y="505" type="line"/>
      <point x="106" y="505" type="line"/>
      <point x="104" y="463"/>
      <point x="101" y="420"/>
      <point x="94" y="379" type="curve" smooth="yes"/>
    </contour>
    <contour>
      <point x="352" y="419" type="curve" smooth="yes"/>
      <point x="434" y="419"/>
      <point x="478" y="365"/>
      <point x="459" y="248" type="curve" smooth="yes"/>
      <point x="449" y="189"/>
      <point x="429" y="151"/>
      <point x="399" y="124" type="curve"/>
      <point x="413" y="120" type="line"/>
      <point x="363" y="200" type="line"/>
      <point x="311" y="165" type="line"/>
      <point x="361" y="86" type="line"/>
      <point x="366" y="102" type="line"/>
      <point x="348" y="91"/>
      <point x="327" y="86"/>
      <point x="304" y="86" type="curve" smooth="yes"/>
      <point x="225" y="86"/>
      <point x="180" y="141"/>
      <point x="198" y="258" type="curve" smooth="yes"/>
      <point x="215" y="365"/>
      <point x="275" y="419"/>
    </contour>
  </outline>
</glyph>
<glyph name="gheupturn-cy" format="2">
  <advance width="466.5"/>
  <unicode hex="0491"/>
  <outline>
    <contour>
      <point x="31" y="0" type="line"/>
      <point x="155" y="0" type="line"/>
      <point x="219" y="407" type="line"/>
      <point x="475" y="407" type="line"/>
      <point x="508" y="618" type="line"/>
      <point x="402" y="618" type="line"/>
      <point x="384" y="505" type="line"/>
      <point x="111" y="505" type="line"/>
    </contour>
  </outline>
</glyph>
<glyph name="Ghemiddlehook-cy" format="2">
  <advance width="715"/>
  <unicode hex="0494"/>
  <outline>
    <contour>
      <point x="368" y="-190" type="curve" smooth="yes"/>
      <point x="502" y="-190"/>
      <point x="605" y="-116"/>
      <point x="632" y="60" type="curve" smooth="yes"/>
      <point x="646" y="148" type="line" smooth="yes"/>
      <point x="676" y="343"/>
      <point x="586" y="442"/>
      <point x="389" y="442" type="curve" smooth="yes"/>
      <point x="331" y="442"/>
      <point x="268" y="430"/>
      <point x="230" y="413" type="curve"/>
      <point x="260" y="600" type="line"/>
      <point x="615" y="600" type="line"/>
      <point x="633" y="705" type="line"/>
      <point x="150" y="705" type="line"/>
      <point x="38" y="0" type="line"/>
      <point x="165" y="0" type="line"/>
      <point x="213" y="303" type="line"/>
      <point x="256" y="323"/>
      <point x="306" y="333"/>
      <point x="359" y="333" type="curve" smooth="yes"/>
      <point x="482" y="333"/>
      <point x="538" y="275"/>
      <point x="517" y="142" type="curve" smooth="yes"/>
      <point x="503" y="55" type="line" smooth="yes"/>
      <point x="488" y="-39"/>
      <point x="436" y="-90"/>
      <point x="360" y="-90" type="curve" smooth="yes"/>
      <point x="328" y="-90"/>
      <point x="298" y="-85"/>
      <point x="274" y="-76" type="curve"/>
      <point x="263" y="-176" type="line"/>
      <point x="288" y="-185"/>
      <point x="328" y="-190"/>
    </contour>
  </outline>
</glyph>
<glyph name="ghemiddlehook-cy" format="2">
  <advance width="587"/>
  <unicode hex="0495"/>
  <outline>
    <contour>
      <point x="274" y="-187" type="line"/>
      <point x="438" y="-147"/>
      <point x="496" y="-72"/>
      <point x="517" y="60" type="curve" smooth="yes"/>
      <point x="527" y="124" type="line" smooth="yes"/>
      <point x="548" y="260"/>
      <point x="497" y="332"/>
      <point x="372" y="332" type="curve" smooth="yes"/>
      <point x="283" y="332"/>
      <point x="213" y="291"/>
      <point x="172" y="217" type="curve"/>
      <point x="190" y="218" type="line"/>
      <point x="221" y="417" type="line"/>
      <point x="476" y="417" type="line"/>
      <point x="490" y="505" type="line"/>
      <point x="111" y="505" type="line"/>
      <point x="31" y="0" type="line"/>
      <point x="155" y="0" type="line"/>
      <point x="172" y="105" type="line" smooth="yes"/>
      <point x="184" y="183"/>
      <point x="237" y="234"/>
      <point x="319" y="234" type="curve" smooth="yes"/>
      <point x="392" y="234"/>
      <point x="415" y="202"/>
      <point x="402" y="118" type="curve" smooth="yes"/>
      <point x="393" y="59" type="line" smooth="yes"/>
      <point x="378" y="-32"/>
      <point x="350" y="-72"/>
      <point x="251" y="-95" type="curve"/>
    </contour>
  </outline>
</glyph>
<glyph name="Kaverticalstroke-cy" format="2">
  <advance width="742"/>
  <unicode hex="049C"/>
  <outline>
    <contour>
      <point x="38" y="0" type="line"/>
      <point x="166" y="0" type="line"/>
      <point x="214" y="301" type="line"/>
      <point x="277" y="301" type="line"/>
      <point x="251" y="140" type="line"/>
      <point x="326" y="140" type="line"/>
      <point x="353" y="312" type="line"/>
      <point x="336" y="301" type="line"/>
      <point x="363" y="301" type="line" smooth="yes"/>
      <point x="433" y="301"/>
      <point x="475" y="273"/>
      <point x="498" y="203" type="curve" smooth="yes"/>
      <point x="563" y="0" type="line"/>
      <point x="695" y="0" type="line"/>
      <point x="609" y="251" type="line" smooth="yes"/>
      <point x="579" y="340"/>
      <point x="531" y="386"/>
      <point x="442" y="400" type="curve"/>
      <point x="489" y="364" type="line"/>
      <point x="775" y="705" type="line"/>
      <point x="628" y="705" type="line"/>
      <point x="382" y="405" type="line"/>
      <point x="367" y="405" type="line"/>
      <point x="393" y="569" type="line"/>
      <point x="319" y="569" type="line"/>
      <point x="293" y="405" type="line"/>
      <point x="230" y="405" type="line"/>
      <point x="278" y="705" type="line"/>
      <point x="150" y="705" type="line"/>
    </contour>
  </outline>
</glyph>
<glyph name="kaverticalstroke-cy" format="2">
  <advance width="634"/>
  <unicode hex="049D"/>
  <outline>
    <contour>
      <point x="31" y="0" type="line"/>
      <point x="155" y="0" type="line"/>
      <point x="189" y="211" type="line"/>
      <point x="240" y="211" type="line"/>
      <point x="221" y="87" type="line"/>
      <point x="296" y="87" type="line"/>
      <point x="317" y="225" type="line"/>
      <point x="303" y="211" type="line"/>
      <point x="320" y="211" type="line" smooth="yes"/>
      <point x="367" y="211"/>
      <point x="387" y="197"/>
      <point x="406" y="152" type="curve" smooth="yes"/>
      <point x="469" y="0" type="line"/>
      <point x="597" y="0" type="line"/>
      <point x="520" y="189" type="line" smooth="yes"/>
      <point x="492" y="255"/>
      <point x="464" y="285"/>
      <point x="410" y="292" type="curve"/>
      <point x="434" y="253" type="line"/>
      <point x="660" y="505" type="line"/>
      <point x="520" y="505" type="line"/>
      <point x="341" y="307" type="line"/>
      <point x="330" y="307" type="line"/>
      <point x="348" y="420" type="line"/>
      <point x="273" y="420" type="line"/>
      <point x="255" y="307" type="line"/>
      <point x="204" y="307" type="line"/>
      <point x="235" y="505" type="line"/>
      <point x="111" y="505" type="line"/>
    </contour>
  </outline>
</glyph>
<glyph name="Kastroke-cy" format="2">
  <advance width="752"/>
  <unicode hex="049E"/>
  <outline>
    <contour>
      <point x="94" y="0" type="line"/>
      <point x="221" y="0" type="line"/>
      <point x="269" y="300" type="line"/>
      <point x="366" y="300" type="line" smooth="yes"/>
      <point x="437" y="300"/>
      <point x="479" y="273"/>
      <point x="501" y="203" type="curve" smooth="yes"/>
      <point x="566" y="0" type="line"/>
      <point x="699" y="0" type="line"/>
      <point x="613" y="251" type="line" smooth="yes"/>
      <point x="582" y="339"/>
      <point x="535" y="380"/>
      <point x="473" y="392" type="curve"/>
      <point x="504" y="353" type="line"/>
      <point x="803" y="705" type="line"/>
      <point x="657" y="705" type="line"/>
      <point x="384" y="377" type="line"/>
      <point x="424" y="405" type="line"/>
      <point x="285" y="405" type="line"/>
      <point x="305" y="529" type="line"/>
      <point x="436" y="529" type="line"/>
      <point x="450" y="616" type="line"/>
      <point x="319" y="616" type="line"/>
      <point x="333" y="705" type="line"/>
      <point x="206" y="705" type="line"/>
      <point x="192" y="616" type="line"/>
      <point x="46" y="616" type="line"/>
      <point x="32" y="529" type="line"/>
      <point x="178" y="529" type="line"/>
    </contour>
  </outline>
</glyph>
<glyph name="enghe-cy" format="2">
  <advance width="776"/>
  <unicode hex="04A5"/>
  <outline>
    <contour>
      <point x="31" y="0" type="line"/>
      <point x="155" y="0" type="line"/>
      <point x="189" y="211" type="line"/>
      <point x="413" y="211" type="line"/>
      <point x="380" y="0" type="line"/>
      <point x="504" y="0" type="line"/>
      <point x="568" y="407" type="line"/>
      <point x="784" y="407" type="line"/>
      <point x="800" y="505" type="line"/>
      <point x="460" y="505" type="line"/>
      <point x="428" y="307" type="line"/>
      <point x="204" y="307" type="line"/>
      <point x="235" y="505" type="line"/>
      <point x="111" y="505" type="line"/>
    </contour>
  </outline>
</glyph>
<glyph name="Haabkhasian-cy" format="2">
  <advance width="864.5"/>
  <unicode hex="04A8"/>
  <outline>
    <contour>
      <point x="374" y="-10" type="curve" smooth="yes"/>
      <point x="576" y="-10"/>
      <point x="756" y="132"/>
      <point x="786" y="319" type="curve" smooth="yes"/>
      <point x="810" y="461"/>
      <point x="737" y="551"/>
      <point x="600" y="551" type="curve" smooth="yes"/>
      <point x="477" y="551"/>
      <point x="385" y="469"/>
      <point x="364" y="335" type="curve" smooth="yes"/>
      <point x="333" y="134"/>
      <point x="471" y="-10"/>
      <point x="674" y="-10" type="curve" smooth="yes"/>
      <point x="745" y="-10"/>
      <point x="805" y="3"/>
      <point x="851" y="28" type="curve"/>
      <point x="831" y="119" type="line"/>
      <point x="782" y="97"/>
      <point x="735" y="86"/>
      <point x="683" y="86" type="curve" smooth="yes"/>
      <point x="525" y="86"/>
      <point x="454" y="167"/>
      <point x="478" y="320" type="curve" smooth="yes"/>
      <point x="491" y="404"/>
      <point x="534" y="453"/>
      <point x="593" y="453" type="curve" smooth="yes"/>
      <point x="654" y="453"/>
      <point x="683" y="404"/>
      <point x="670" y="320" type="curve" smooth="yes"/>
      <point x="646" y="166"/>
      <point x="547" y="86"/>
      <point x="390" y="86" type="curve" smooth="yes"/>
      <point x="239" y="86"/>
      <point x="177" y="189"/>
      <point x="204" y="358" type="curve" smooth="yes"/>
      <point x="230" y="519"/>
      <point x="323" y="612"/>
      <point x="459" y="612" type="curve" smooth="yes"/>
      <point x="476" y="612"/>
      <point x="494" y="610"/>
      <point x="514" y="607" type="curve"/>
      <point x="532" y="709" type="line"/>
      <point x="514" y="713"/>
      <point x="492" y="715"/>
      <point x="460" y="715" type="curve" smooth="yes"/>
      <point x="260" y="715"/>
      <point x="109" y="597"/>
      <point x="73" y="369" type="curve" smooth="yes"/>
      <point x="37" y="139"/>
      <point x="145" y="-10"/>
    </contour>
  </outline>
</glyph>
<glyph name="Tedescender-cy" format="2">
  <advance width="619"/>
  <unicode hex="04AC"/>
  <outline>
    <contour>
      <point x="296" y="-165" type="line"/>
      <point x="409" y="-165" type="line"/>
      <point x="451" y="103" type="line"/>
      <point x="349" y="103" type="line"/>
      <point x="428" y="599" type="line"/>
      <point x="661" y="599" type="line"/>
      <point x="678" y="705" type="line"/>
      <point x="83" y="705" type="line"/>
      <point x="66" y="599" type="line"/>
      <point x="299" y="599" type="line"/>
      <point x="204" y="0" type="line"/>
      <point x="323" y="0" type="line"/>
    </contour>
  </outline>
</glyph>
<glyph name="Tetse-cy" format="2">
  <advance width="967"/>
  <unicode hex="04B4"/>
  <outline>
    <contour>
      <point x="766" y="-165" type="line"/>
      <point x="879" y="-165" type="line"/>
      <point x="922" y="106" type="line"/>
      <point x="818" y="106" type="line"/>
      <point x="914" y="705" type="line"/>
      <point x="786" y="705" type="line"/>
      <point x="690" y="106" type="line"/>
      <point x="329" y="106" type="line"/>
      <point x="407" y="600" type="line"/>
      <point x="600" y="600" type="line"/>
      <point x="618" y="705" type="line"/>
      <point x="83" y="705" type="line"/>
      <point x="66" y="600" type="line"/>
      <point x="279" y="600" type="line"/>
      <point x="185" y="0" type="line"/>
      <point x="793" y="0" type="line"/>
    </contour>
  </outline>
</glyph>
<glyph name="cheverticalstroke-cy" format="2">
  <advance width="617"/>
  <unicode hex="04B9"/>
  <outline>
    <contour>
      <point x="382" y="0" type="line"/>
      <point x="506" y="0" type="line"/>
      <point x="586" y="505" type="line"/>
      <point x="462" y="505" type="line"/>
      <point x="427" y="281" type="line"/>
      <point x="392" y="263"/>
      <point x="356" y="256"/>
      <point x="321" y="256" type="curve"/>
      <point x="340" y="243" type="line"/>
      <point x="362" y="381" type="line"/>
      <point x="287" y="381" type="line"/>
      <point x="265" y="243" type="line"/>
      <point x="293" y="257" type="line"/>
      <point x="216" y="260"/>
      <point x="182" y="293"/>
      <point x="195" y="377" type="curve" smooth="yes"/>
      <point x="215" y="505" type="line"/>
      <point x="91" y="505" type="line"/>
      <point x="69" y="368" type="line" smooth="yes"/>
      <point x="47" y="230"/>
      <point x="124" y="159"/>
      <point x="275" y="159" type="curve"/>
      <point x="255" y="180" type="line"/>
      <point x="237" y="64" type="line"/>
      <point x="312" y="64" type="line"/>
      <point x="330" y="180" type="line"/>
      <point x="303" y="160" type="line"/>
      <point x="338" y="161"/>
      <point x="377" y="170"/>
      <point x="412" y="186" type="curve"/>
    </contour>
  </outline>
</glyph>
<glyph name="Shha-cy" format="2">
  <advance width="712"/>
  <unicode hex="04BA"/>
  <anchor x="498" y="0" name="bottomright"/>
  <outline>
    <contour>
      <point x="38" y="0" type="line"/>
      <point x="166" y="0" type="line"/>
      <point x="216" y="320" type="line"/>
      <point x="264" y="342"/>
      <point x="318" y="350"/>
      <point x="367" y="350" type="curve" smooth="yes"/>
      <point x="487" y="350"/>
      <point x="538" y="292"/>
      <point x="517" y="158" type="curve" smooth="yes"/>
      <point x="492" y="0" type="line"/>
      <point x="620" y="0" type="line"/>
      <point x="646" y="164" type="line" smooth="yes"/>
      <point x="677" y="362"/>
      <point x="582" y="459"/>
      <point x="398" y="459" type="curve" smooth="yes"/>
      <point x="340" y="459"/>
      <point x="275" y="448"/>
      <point x="234" y="430" type="curve"/>
      <point x="278" y="705" type="line"/>
      <point x="150" y="705" type="line"/>
    </contour>
  </outline>
</glyph>
<glyph name="kahook-cy" format="2">
  <advance width="580.5"/>
  <unicode hex="04C4"/>
  <outline>
    <contour>
      <point x="266" y="-187" type="line"/>
      <point x="430" y="-147"/>
      <point x="488" y="-69"/>
      <point x="508" y="57" type="curve" smooth="yes"/>
      <point x="513" y="90" type="line" smooth="yes"/>
      <point x="536" y="225"/>
      <point x="463" y="303"/>
      <point x="320" y="303" type="curve"/>
      <point x="369" y="253" type="line"/>
      <point x="594" y="505" type="line"/>
      <point x="456" y="505" type="line"/>
      <point x="277" y="307" type="line"/>
      <point x="204" y="307" type="line"/>
      <point x="235" y="505" type="line"/>
      <point x="111" y="505" type="line"/>
      <point x="31" y="0" type="line"/>
      <point x="155" y="0" type="line"/>
      <point x="189" y="211" type="line"/>
      <point x="283" y="211" type="line" smooth="yes"/>
      <point x="365" y="211"/>
      <point x="402" y="173"/>
      <point x="388" y="84" type="curve" smooth="yes"/>
      <point x="383" y="56" type="line" smooth="yes"/>
      <point x="369" y="-33"/>
      <point x="341" y="-72"/>
      <point x="243" y="-95" type="curve"/>
    </contour>
  </outline>
</glyph>
<glyph name="enhook-cy" format="2">
  <advance width="619"/>
  <unicode hex="04C8"/>
  <outline>
    <contour>
      <point x="233" y="-193" type="line"/>
      <point x="279" y="-190" type="line" smooth="yes"/>
      <point x="423" y="-181"/>
      <point x="487" y="-125"/>
      <point x="509" y="9" type="curve" smooth="yes"/>
      <point x="587" y="505" type="line"/>
      <point x="464" y="505" type="line"/>
      <point x="432" y="307" type="line"/>
      <point x="204" y="307" type="line"/>
      <point x="235" y="505" type="line"/>
      <point x="111" y="505" type="line"/>
      <point x="31" y="0" type="line"/>
      <point x="155" y="0" type="line"/>
      <point x="189" y="211" type="line"/>
      <point x="417" y="211" type="line"/>
      <point x="383" y="-7" type="line" smooth="yes"/>
      <point x="374" y="-64"/>
      <point x="343" y="-93"/>
      <point x="288" y="-98" type="curve" smooth="yes"/>
      <point x="239" y="-102" type="line"/>
    </contour>
  </outline>
</glyph>
<glyph name="Dzeabkhasian-cy" format="2">
  <advance width="645"/>
  <unicode hex="04E0"/>
  <outline>
    <contour>
      <point x="284" y="-10" type="curve" smooth="yes"/>
      <point x="465" y="-10"/>
      <point x="569" y="70"/>
      <point x="589" y="192" type="curve" smooth="yes"/>
      <point x="611" y="331"/>
      <point x="534" y="404"/>
      <point x="386" y="404" type="curve" smooth="yes"/>
      <point x="322" y="404" type="line"/>
      <point x="344" y="371" type="line"/>
      <point x="625" y="616" type="line"/>
      <point x="639" y="705" type="line"/>
      <point x="119" y="705" type="line"/>
      <point x="102" y="600" type="line"/>
      <point x="494" y="600" type="line"/>
      <point x="499" y="632" type="line"/>
      <point x="219" y="387" type="line"/>
      <point x="206" y="307" type="line"/>
      <point x="349" y="307" type="line" smooth="yes"/>
      <point x="438" y="307"/>
      <point x="477" y="275"/>
      <point x="466" y="205" type="curve" smooth="yes"/>
      <point x="455" y="135"/>
      <point x="398" y="97"/>
      <point x="279" y="97" type="curve" smooth="yes"/>
      <point x="186" y="97"/>
      <point x="113" y="122"/>
      <point x="61" y="170" type="curve"/>
      <point x="16" y="75" type="line"/>
      <point x="74" y="22"/>
      <point x="165" y="-10"/>
    </contour>
  </outline>
</glyph>
<glyph name="dzeabkhasian-cy" format="2">
  <advance width="528"/>
  <unicode hex="04E1"/>
  <outline>
    <contour>
      <point x="180" y="-190" type="curve" smooth="yes"/>
      <point x="335" y="-190"/>
      <point x="440" y="-118"/>
      <point x="463" y="25" type="curve" smooth="yes"/>
      <point x="481" y="143"/>
      <point x="411" y="226"/>
      <point x="267" y="226" type="curve" smooth="yes"/>
      <point x="210" y="226" type="line"/>
      <point x="246" y="199" type="line"/>
      <point x="494" y="423" type="line"/>
      <point x="507" y="505" type="line"/>
      <point x="72" y="505" type="line"/>
      <point x="57" y="411" type="line"/>
      <point x="379" y="411" type="line"/>
      <point x="380" y="438" type="line"/>
      <point x="119" y="201" type="line"/>
      <point x="109" y="142" type="line"/>
      <point x="219" y="142" type="line" smooth="yes"/>
      <point x="313" y="142"/>
      <point x="352" y="103"/>
      <point x="339" y="21" type="curve" smooth="yes"/>
      <point x="328" y="-52"/>
      <point x="270" y="-94"/>
      <point x="174" y="-94" type="curve" smooth="yes"/>
      <point x="99" y="-94"/>
      <point x="42" y="-76"/>
      <point x="-1" y="-41" type="curve"/>
      <point x="-39" y="-128" type="line"/>
      <point x="9" y="-168"/>
      <point x="85" y="-190"/>
    </contour>
  </outline>
</glyph>
<glyph name="Gestrokehook-cy" format="2">
  <advance width="616"/>
  <unicode hex="04FA"/>
  <outline>
    <contour>
      <point x="22" y="-185" type="line"/>
      <point x="87" y="-181" type="line" smooth="yes"/>
      <point x="224" y="-172"/>
      <point x="295" y="-108"/>
      <point x="316" y="22" type="curve" smooth="yes"/>
      <point x="328" y="102" type="line"/>
      <point x="226" y="102" type="line"/>
      <point x="258" y="302" type="line"/>
      <point x="443" y="302" type="line"/>
      <point x="458" y="394" type="line"/>
      <point x="272" y="394" type="line"/>
      <point x="304" y="600" type="line"/>
      <point x="655" y="600" type="line"/>
      <point x="672" y="705" type="line"/>
      <point x="194" y="705" type="line"/>
      <point x="144" y="394" type="line"/>
      <point x="46" y="394" type="line"/>
      <point x="32" y="302" type="line"/>
      <point x="130" y="302" type="line"/>
      <point x="82" y="0" type="line"/>
      <point x="196" y="0" type="line"/>
      <point x="187" y="-58"/>
      <point x="153" y="-89"/>
      <point x="81" y="-95" type="curve" smooth="yes"/>
      <point x="27" y="-100" type="line"/>
    </contour>
  </outline>
</glyph>
<glyph name="Hahook-cy" format="2">
  <advance width="670.5"/>
  <unicode hex="04FC"/>
  <outline>
    <contour>
      <point x="359" y="-187" type="line"/>
      <point x="508" y="-172"/>
      <point x="582" y="-118"/>
      <point x="596" y="-30" type="curve" smooth="yes"/>
      <point x="606" y="31"/>
      <point x="586" y="84"/>
      <point x="545" y="153" type="curve" smooth="yes"/>
      <point x="406" y="386" type="line"/>
      <point x="404" y="331" type="line"/>
      <point x="744" y="705" type="line"/>
      <point x="586" y="705" type="line"/>
      <point x="339" y="424" type="line"/>
      <point x="380" y="424" type="line"/>
      <point x="222" y="705" type="line"/>
      <point x="76" y="705" type="line"/>
      <point x="297" y="331" type="line"/>
      <point x="300" y="386" type="line"/>
      <point x="-51" y="0" type="line"/>
      <point x="106" y="0" type="line"/>
      <point x="367" y="294" type="line"/>
      <point x="322" y="294" type="line"/>
      <point x="428" y="109" type="line" smooth="yes"/>
      <point x="455" y="62"/>
      <point x="474" y="26"/>
      <point x="468" y="-13" type="curve" smooth="yes"/>
      <point x="461" y="-54"/>
      <point x="426" y="-78"/>
      <point x="355" y="-86" type="curve"/>
    </contour>
  </outline>
</glyph>
<glyph name="hahook-cy" format="2">
  <advance width="563"/>
  <unicode hex="04FD"/>
  <outline>
    <contour>
      <point x="267" y="-187" type="line"/>
      <point x="409" y="-175"/>
      <point x="482" y="-120"/>
      <point x="495" y="-35" type="curve" smooth="yes"/>
      <point x="503" y="17"/>
      <point x="486" y="54"/>
      <point x="438" y="126" type="curve" smooth="yes"/>
      <point x="333" y="288" type="line"/>
      <point x="329" y="232" type="line"/>
      <point x="592" y="505" type="line"/>
      <point x="439" y="505" type="line"/>
      <point x="264" y="318" type="line"/>
      <point x="309" y="318" type="line"/>
      <point x="195" y="505" type="line"/>
      <point x="53" y="505" type="line"/>
      <point x="231" y="232" type="line"/>
      <point x="233" y="289" type="line"/>
      <point x="-47" y="0" type="line"/>
      <point x="107" y="0" type="line"/>
      <point x="296" y="201" type="line"/>
      <point x="250" y="201" type="line"/>
      <point x="330" y="74" type="line" smooth="yes"/>
      <point x="362" y="22"/>
      <point x="374" y="-4"/>
      <point x="370" y="-32" type="curve" smooth="yes"/>
      <point x="363" y="-73"/>
      <point x="331" y="-93"/>
      <point x="261" y="-99" type="curve"/>
    </contour>
  </outline>
</glyph>
<glyph name="reversedze-cy" format="2">
  <advance width="531"/>
  <unicode hex="0511"/>
  <outline>
    <contour>
      <point x="240" y="-10" type="curve" smooth="yes"/>
      <point x="331" y="-10"/>
      <point x="417" y="12"/>
      <point x="475" y="52" type="curve"/>
      <point x="447" y="132" type="line"/>
      <point x="393" y="98"/>
      <point x="320" y="79"/>
      <point x="248" y="79" type="curve" smooth="yes"/>
      <point x="165" y="79"/>
      <point x="130" y="104"/>
      <point x="138" y="153" type="curve" smooth="yes"/>
      <point x="144" y="191"/>
      <point x="177" y="213"/>
      <point x="237" y="213" type="curve" smooth="yes"/>
      <point x="368" y="213" type="line"/>
      <point x="381" y="299" type="line"/>
      <point x="262" y="299" type="line" smooth="yes"/>
      <point x="209" y="299"/>
      <point x="182" y="321"/>
      <point x="188" y="359" type="curve" smooth="yes"/>
      <point x="194" y="401"/>
      <point x="236" y="426"/>
      <point x="313" y="426" type="curve" smooth="yes"/>
      <point x="377" y="426"/>
      <point x="434" y="409"/>
      <point x="478" y="382" type="curve"/>
      <point x="515" y="460" type="line"/>
      <point x="464" y="495"/>
      <point x="389" y="515"/>
      <point x="311" y="515" type="curve" smooth="yes"/>
      <point x="183" y="515"/>
      <point x="92" y="467"/>
      <point x="78" y="378" type="curve" smooth="yes"/>
      <point x="66" y="310"/>
      <point x="106" y="266"/>
      <point x="173" y="257" type="curve"/>
      <point x="175" y="271" type="line"/>
      <point x="91" y="265"/>
      <point x="34" y="218"/>
      <point x="23" y="149" type="curve" smooth="yes"/>
      <point x="8" y="50"/>
      <point x="82" y="-10"/>
    </contour>
  </outline>
</glyph>
<glyph name="elhook-cy" format="2">
  <advance width="610"/>
  <unicode hex="0513"/>
  <outline>
    <contour>
      <point x="224" y="-193" type="line"/>
      <point x="270" y="-190" type="line" smooth="yes"/>
      <point x="414" y="-181"/>
      <point x="479" y="-123"/>
      <point x="500" y="9" type="curve" smooth="yes"/>
      <point x="578" y="505" type="line"/>
      <point x="176" y="505" type="line"/>
      <point x="150" y="345" type="line" smooth="yes"/>
      <point x="124" y="181"/>
      <point x="85" y="117"/>
      <point x="-8" y="85" type="curve"/>
      <point x="20" y="-14" type="line"/>
      <point x="157" y="22"/>
      <point x="228" y="119"/>
      <point x="262" y="331" type="curve" smooth="yes"/>
      <point x="274" y="409" type="line"/>
      <point x="439" y="409" type="line"/>
      <point x="373" y="-7" type="line" smooth="yes"/>
      <point x="364" y="-64"/>
      <point x="334" y="-93"/>
      <point x="279" y="-98" type="curve" smooth="yes"/>
      <point x="230" y="-102" type="line"/>
    </contour>
  </outline>
</glyph>
<glyph name="enlefthook-cy" format="2">
  <advance width="618"/>
  <unicode hex="0529"/>
  <anchor x="384" y="0" name="bottomright"/>
  <outline>
    <contour>
      <point x="-119" y="-193" type="line"/>
      <point x="-73" y="-190" type="line" smooth="yes"/>
      <point x="71" y="-181"/>
      <point x="136" y="-125"/>
      <point x="157" y="9" type="curve" smooth="yes"/>
      <point x="189" y="211" type="line"/>
      <point x="417" y="211" type="line"/>
      <point x="384" y="0" type="line"/>
      <point x="507" y="0" type="line"/>
      <point x="587" y="505" type="line"/>
      <point x="464" y="505" type="line"/>
      <point x="432" y="307" type="line"/>
      <point x="204" y="307" type="line"/>
      <point x="235" y="505" type="line"/>
      <point x="111" y="505" type="line"/>
      <point x="30" y="-7" type="line" smooth="yes"/>
      <point x="21" y="-64"/>
      <point x="-10" y="-93"/>
      <point x="-65" y="-98" type="curve" smooth="yes"/>
      <point x="-113" y="-102" type="line"/>
    </contour>
  </outline>
</glyph>
<glyph name="Germandbls" format="2">
  <advance width="709"/>
  <unicode hex="1E9E"/>
  <outline>
    <contour>
      <point x="401" y="-10" type="curve" smooth="yes"/>
      <point x="536" y="-10"/>
      <point x="632" y="58"/>
      <point x="650" y="172" type="curve" smooth="yes"/>
      <point x="668" y="286"/>
      <point x="613" y="351"/>
      <point x="513" y="368" type="curve"/>
      <point x="510" y="351" type="line"/>
      <point x="601" y="374"/>
      <point x="655" y="442"/>
      <point x="667" y="515" type="curve" smooth="yes"/>
      <point x="686" y="638"/>
      <point x="606" y="715"/>
      <point x="437" y="715" type="curve" smooth="yes"/>
      <point x="243" y="715"/>
      <point x="137" y="631"/>
      <point x="109" y="450" type="curve" smooth="yes"/>
      <point x="38" y="0" type="line"/>
      <point x="162" y="0" type="line"/>
      <point x="232" y="447" type="line" smooth="yes"/>
      <point x="250" y="558"/>
      <point x="302" y="611"/>
      <point x="423" y="611" type="curve" smooth="yes"/>
      <point x="511" y="611"/>
      <point x="552" y="575"/>
      <point x="542" y="507" type="curve" smooth="yes"/>
      <point x="531" y="440"/>
      <point x="477" y="403"/>
      <point x="395" y="403" type="curve" smooth="yes"/>
      <point x="312" y="403" type="line"/>
      <point x="297" y="303" type="line"/>
      <point x="415" y="303" type="line" smooth="yes"/>
      <point x="501" y="303"/>
      <point x="542" y="268"/>
      <point x="530" y="194" type="curve" smooth="yes"/>
      <point x="521" y="132"/>
      <point x="470" y="93"/>
      <point x="392" y="93" type="curve" smooth="yes"/>
      <point x="344" y="93"/>
      <point x="307" y="104"/>
      <point x="268" y="132" type="curve"/>
      <point x="220" y="40" type="line"/>
      <point x="272" y="6"/>
      <point x="330" y="-10"/>
    </contour>
  </outline>
</glyph>
<glyph name="quotesinglbase" format="2">
  <advance width="248"/>
  <unicode hex="201A"/>
  <outline>
    <contour>
      <point x="60" y="-133" type="line"/>
      <point x="128" y="-79"/>
      <point x="148" y="-32"/>
      <point x="159" y="36" type="curve" smooth="yes"/>
      <point x="176" y="139" type="line"/>
      <point x="36" y="139" type="line"/>
      <point x="14" y="0" type="line"/>
      <point x="113" y="0" type="line"/>
      <point x="86" y="29" type="line"/>
      <point x="77" y="-16"/>
      <point x="62" y="-44"/>
      <point x="15" y="-85" type="curve"/>
    </contour>
  </outline>
</glyph>
<glyph name="dagger" format="2">
  <advance width="347"/>
  <unicode hex="2020"/>
  <outline>
    <contour>
      <point x="112" y="157" type="line"/>
      <point x="205" y="157" type="line"/>
      <point x="260" y="509" type="line"/>
      <point x="367" y="509" type="line"/>
      <point x="380" y="590" type="line"/>
      <point x="273" y="590" type="line"/>
      <point x="291" y="705" type="line"/>
      <point x="199" y="705" type="line"/>
      <point x="181" y="590" type="line"/>
      <point x="75" y="590" type="line"/>
      <point x="62" y="509" type="line"/>
      <point x="168" y="509" type="line"/>
    </contour>
  </outline>
</glyph>
<glyph name="colonsign" format="2">
  <advance width="600"/>
  <unicode hex="20A1"/>
  <outline>
    <contour>
      <point x="2" y="-115" type="line"/>
      <point x="86" y="-115" type="line"/>
      <point x="161" y="63" type="line"/>
      <point x="146" y="63" type="line"/>
      <point x="168" y="40"/>
      <point x="203" y="21"/>
      <point x="234" y="12" type="curve"/>
      <point x="226" y="28" type="line"/>
      <point x="166" y="-115" type="line"/>
      <point x="250" y="-115" type="line"/>
      <point x="304" y="14" type="line"/>
      <point x="272" y="3" type="line"/>
      <point x="285" y="-2"/>
      <point x="323" y="-4"/>
      <point x="341" y="-4" type="curve" smooth="yes"/>
      <point x="416" y="-4"/>
      <point x="502" y="26"/>
      <point x="554" y="80" type="curve"/>
      <point x="514" y="175" type="line"/>
      <point x="463" y="129"/>
      <point x="412" y="110"/>
      <point x="352" y="110" type="curve" smooth="yes"/>
      <point x="232" y="110"/>
      <point x="176" y="200"/>
      <point x="202" y="363" type="curve" smooth="yes"/>
      <point x="225" y="507"/>
      <point x="300" y="595"/>
      <point x="427" y="595" type="curve" smooth="yes"/>
      <point x="486" y="595"/>
      <point x="534" y="577"/>
      <point x="569" y="539" type="curve"/>
      <point x="618" y="637" type="line"/>
      <point x="599" y="659"/>
      <point x="575" y="672"/>
      <point x="555" y="682" type="curve"/>
      <point x="574" y="654" type="line"/>
      <point x="645" y="820" type="line"/>
      <point x="561" y="820" type="line"/>
      <point x="501" y="680" type="line"/>
      <point x="523" y="692" type="line"/>
      <point x="499" y="702"/>
      <point x="455" y="708"/>
      <point x="421" y="708" type="curve"/>
      <point x="425" y="691" type="line"/>
      <point x="480" y="820" type="line"/>
      <point x="396" y="820" type="line"/>
      <point x="337" y="678" type="line"/>
      <point x="363" y="703" type="line"/>
      <point x="212" y="683"/>
      <point x="100" y="569"/>
      <point x="69" y="373" type="curve" smooth="yes"/>
      <point x="50" y="253"/>
      <point x="71" y="155"/>
      <point x="116" y="95" type="curve"/>
      <point x="112" y="150" type="line"/>
    </contour>
  </outline>
</glyph>
<glyph name="franc" format="2">
  <advance width="600"/>
  <unicode hex="20A3"/>
  <outline>
    <contour>
      <point x="61" y="0" type="line"/>
      <point x="189" y="0" type="line"/>
      <point x="209" y="124" type="line"/>
      <point x="405" y="124" type="line"/>
      <point x="417" y="201" type="line"/>
      <point x="221" y="201" type="line"/>
      <point x="239" y="313" type="line"/>
      <point x="544" y="313" type="line"/>
      <point x="560" y="414" type="line"/>
      <point x="255" y="414" type="line"/>
      <point x="285" y="604" type="line"/>
      <point x="612" y="604" type="line"/>
      <point x="628" y="705" type="line"/>
      <point x="173" y="705" type="line"/>
      <point x="93" y="201" type="line"/>
      <point x="18" y="201" type="line"/>
      <point x="5" y="124" type="line"/>
      <point x="80" y="124" type="line"/>
    </contour>
  </outline>
</glyph>
<glyph name="lira" format="2">
  <advance width="600"/>
  <unicode hex="20A4"/>
  <outline>
    <contour>
      <point x="3" y="0" type="line"/>
      <point x="528" y="0" type="line"/>
      <point x="545" y="105" type="line"/>
      <point x="168" y="105" type="line"/>
      <point x="167" y="100" type="line"/>
      <point x="208" y="115"/>
      <point x="241" y="147"/>
      <point x="249" y="200" type="curve" smooth="yes"/>
      <point x="255" y="239" type="line"/>
      <point x="427" y="239" type="line"/>
      <point x="439" y="313" type="line"/>
      <point x="267" y="313" type="line"/>
      <point x="280" y="395" type="line"/>
      <point x="452" y="395" type="line"/>
      <point x="464" y="468" type="line"/>
      <point x="279" y="468" type="line"/>
      <point x="289" y="449" type="line"/>
      <point x="297" y="496" type="line" smooth="yes"/>
      <point x="309" y="574"/>
      <point x="353" y="612"/>
      <point x="434" y="612" type="curve" smooth="yes"/>
      <point x="493" y="612"/>
      <point x="534" y="594"/>
      <point x="579" y="556" type="curve"/>
      <point x="626" y="646" type="line"/>
      <point x="580" y="691"/>
      <point x="512" y="715"/>
      <point x="429" y="715" type="curve" smooth="yes"/>
      <point x="282" y="715"/>
      <point x="190" y="638"/>
      <point x="168" y="497" type="curve" smooth="yes"/>
      <point x="159" y="438" type="line"/>
      <point x="179" y="468" type="line"/>
      <point x="77" y="468" type="line"/>
      <point x="65" y="392" type="line"/>
      <point x="151" y="392" type="line"/>
      <point x="139" y="313" type="line"/>
      <point x="52" y="313" type="line"/>
      <point x="40" y="239" type="line"/>
      <point x="127" y="239" type="line"/>
      <point x="118" y="183" type="line" smooth="yes"/>
      <point x="110" y="133"/>
      <point x="74" y="106"/>
      <point x="16" y="86" type="curve"/>
    </contour>
  </outline>
</glyph>
<glyph name="peseta" format="2">
  <advance width="600"/>
  <unicode hex="20A7"/>
  <outline>
    <contour>
      <point x="64" y="0" type="line"/>
      <point x="189" y="0" type="line"/>
      <point x="226" y="235" type="line"/>
      <point x="300" y="235" type="line" smooth="yes"/>
      <point x="418" y="235"/>
      <point x="515" y="301"/>
      <point x="542" y="456" type="curve"/>
      <point x="514" y="431" type="line"/>
      <point x="610" y="431" type="line"/>
      <point x="622" y="508" type="line"/>
      <point x="527" y="508" type="line"/>
      <point x="548" y="485" type="line"/>
      <point x="561" y="622"/>
      <point x="486" y="705"/>
      <point x="337" y="705" type="curve" smooth="yes"/>
      <point x="176" y="705" type="line"/>
      <point x="145" y="508" type="line"/>
      <point x="60" y="508" type="line"/>
      <point x="48" y="431" type="line"/>
      <point x="133" y="431" type="line"/>
    </contour>
    <contour>
      <point x="235" y="322" type="line"/>
      <point x="281" y="617" type="line"/>
      <point x="343" y="617" type="line" smooth="yes"/>
      <point x="421" y="617"/>
      <point x="456" y="579"/>
      <point x="436" y="454" type="curve" smooth="yes"/>
      <point x="422" y="360"/>
      <point x="374" y="322"/>
      <point x="297" y="322" type="curve" smooth="yes"/>
    </contour>
  </outline>
</glyph>
<glyph name="won" format="2">
  <advance width="600"/>
  <unicode hex="20A9"/>
  <outline>
    <contour>
      <point x="109" y="0" type="line"/>
      <point x="179" y="0" type="line"/>
      <point x="369" y="575" type="line"/>
      <point x="334" y="575" type="line"/>
      <point x="341" y="0" type="line"/>
      <point x="411" y="0" type="line"/>
      <point x="482" y="241" type="line"/>
      <point x="579" y="241" type="line"/>
      <point x="591" y="315" type="line"/>
      <point x="504" y="315" type="line"/>
      <point x="527" y="397" type="line"/>
      <point x="604" y="397" type="line"/>
      <point x="616" y="471" type="line"/>
      <point x="549" y="471" type="line"/>
      <point x="618" y="705" type="line"/>
      <point x="530" y="705" type="line"/>
      <point x="378" y="140" type="line"/>
      <point x="403" y="140" type="line"/>
      <point x="405" y="705" type="line"/>
      <point x="343" y="705" type="line"/>
      <point x="165" y="140" type="line"/>
      <point x="190" y="140" type="line"/>
      <point x="218" y="705" type="line"/>
      <point x="127" y="705" type="line"/>
      <point x="120" y="471" type="line"/>
      <point x="54" y="471" type="line"/>
      <point x="42" y="397" type="line"/>
      <point x="118" y="397" type="line"/>
      <point x="116" y="315" type="line"/>
      <point x="29" y="315" type="line"/>
      <point x="17" y="241" type="line"/>
      <point x="115" y="241" type="line"/>
    </contour>
  </outline>
</glyph>
<glyph name="dong" format="2">
  <advance width="600"/>
  <unicode hex="20AB"/>
  <outline>
    <contour>
      <point x="217" y="-10" type="curve" smooth="yes"/>
      <point x="289" y="-10"/>
      <point x="349" y="27"/>
      <point x="384" y="101" type="curve"/>
      <point x="371" y="101" type="line"/>
      <point x="355" y="0" type="line"/>
      <point x="478" y="0" type="line"/>
      <point x="567" y="564" type="line"/>
      <point x="638" y="564" type="line"/>
      <point x="650" y="641" type="line"/>
      <point x="580" y="641" type="line"/>
      <point x="595" y="736" type="line"/>
      <point x="470" y="736" type="line"/>
      <point x="455" y="641" type="line"/>
      <point x="312" y="641" type="line"/>
      <point x="299" y="564" type="line"/>
      <point x="442" y="564" type="line"/>
      <point x="415" y="389" type="line"/>
      <point x="427" y="389" type="line"/>
      <point x="410" y="463"/>
      <point x="356" y="499"/>
      <point x="281" y="499" type="curve" smooth="yes"/>
      <point x="160" y="499"/>
      <point x="75" y="413"/>
      <point x="49" y="257" type="curve" smooth="yes"/>
      <point x="23" y="94"/>
      <point x="89" y="-10"/>
    </contour>
    <contour>
      <point x="6" y="-149" type="line"/>
      <point x="455" y="-149" type="line"/>
      <point x="467" y="-72" type="line"/>
      <point x="18" y="-72" type="line"/>
    </contour>
    <contour>
      <point x="259" y="86" type="curve" smooth="yes"/>
      <point x="189" y="86"/>
      <point x="155" y="141"/>
      <point x="172" y="249" type="curve" smooth="yes"/>
      <point x="189" y="354"/>
      <point x="240" y="404"/>
      <point x="308" y="404" type="curve" smooth="yes"/>
      <point x="376" y="404"/>
      <point x="411" y="351"/>
      <point x="393" y="239" type="curve" smooth="yes"/>
      <point x="377" y="136"/>
      <point x="325" y="86"/>
    </contour>
  </outline>
</glyph>
<glyph name="kip" format="2">
  <advance width="600"/>
  <unicode hex="20AD"/>
  <outline>
    <contour>
      <point x="57" y="0" type="line"/>
      <point x="182" y="0" type="line"/>
      <point x="231" y="310" type="line"/>
      <point x="233" y="310" type="line"/>
      <point x="419" y="0" type="line"/>
      <point x="550" y="0" type="line"/>
      <point x="358" y="324" type="line"/>
      <point x="356" y="314" type="line"/>
      <point x="568" y="314" type="line"/>
      <point x="580" y="391" type="line"/>
      <point x="371" y="391" type="line"/>
      <point x="372" y="380" type="line"/>
      <point x="661" y="705" type="line"/>
      <point x="525" y="705" type="line"/>
      <point x="247" y="397" type="line"/>
      <point x="245" y="397" type="line"/>
      <point x="294" y="705" type="line"/>
      <point x="169" y="705" type="line"/>
      <point x="119" y="391" type="line"/>
      <point x="41" y="391" type="line"/>
      <point x="29" y="314" type="line"/>
      <point x="107" y="314" type="line"/>
    </contour>
  </outline>
</glyph>
<glyph name="guarani" format="2">
  <advance width="600"/>
  <unicode hex="20B2"/>
  <outline>
    <contour>
      <point x="229" y="-115" type="line"/>
      <point x="329" y="-115" type="line"/>
      <point x="350" y="24" type="line"/>
      <point x="329" y="-4" type="line"/>
      <point x="393" y="1"/>
      <point x="464" y="20"/>
      <point x="524" y="49" type="curve"/>
      <point x="576" y="381" type="line"/>
      <point x="344" y="381" type="line"/>
      <point x="330" y="292" type="line"/>
      <point x="453" y="292" type="line"/>
      <point x="419" y="80" type="line"/>
      <point x="466" y="134" type="line"/>
      <point x="426" y="114"/>
      <point x="378" y="107"/>
      <point x="342" y="107" type="curve" smooth="yes"/>
      <point x="213" y="107"/>
      <point x="162" y="196"/>
      <point x="188" y="358" type="curve" smooth="yes"/>
      <point x="211" y="507"/>
      <point x="289" y="595"/>
      <point x="417" y="595" type="curve" smooth="yes"/>
      <point x="470" y="595"/>
      <point x="522" y="581"/>
      <point x="560" y="544" type="curve"/>
      <point x="612" y="637" type="line"/>
      <point x="575" y="681"/>
      <point x="499" y="706"/>
      <point x="438" y="709" type="curve"/>
      <point x="456" y="687" type="line"/>
      <point x="477" y="820" type="line"/>
      <point x="377" y="820" type="line"/>
      <point x="356" y="687" type="line"/>
      <point x="385" y="707" type="line"/>
      <point x="213" y="692"/>
      <point x="91" y="574"/>
      <point x="58" y="368" type="curve" smooth="yes"/>
      <point x="24" y="154"/>
      <point x="106" y="19"/>
      <point x="287" y="-1" type="curve"/>
      <point x="250" y="24" type="line"/>
    </contour>
  </outline>
</glyph>
<glyph name="hryvnia" format="2">
  <advance width="600"/>
  <unicode hex="20B4"/>
  <outline>
    <contour>
      <point x="268" y="-10" type="curve" smooth="yes"/>
      <point x="372" y="-10"/>
      <point x="463" y="19"/>
      <point x="529" y="70" type="curve"/>
      <point x="489" y="161" type="line"/>
      <point x="435" y="120"/>
      <point x="366" y="95"/>
      <point x="300" y="95" type="curve" smooth="yes"/>
      <point x="226" y="95"/>
      <point x="193" y="126"/>
      <point x="201" y="169" type="curve" smooth="yes"/>
      <point x="205" y="200"/>
      <point x="224" y="226"/>
      <point x="261" y="255" type="curve"/>
      <point x="218" y="238" type="line"/>
      <point x="542" y="238" type="line"/>
      <point x="554" y="312" type="line"/>
      <point x="310" y="312" type="line"/>
      <point x="315" y="301" type="line"/>
      <point x="441" y="401" type="line"/>
      <point x="410" y="394" type="line"/>
      <point x="567" y="394" type="line"/>
      <point x="579" y="468" type="line"/>
      <point x="496" y="468" type="line"/>
      <point x="500" y="453" type="line"/>
      <point x="549" y="497"/>
      <point x="570" y="530"/>
      <point x="578" y="575" type="curve" smooth="yes"/>
      <point x="591" y="663"/>
      <point x="522" y="715"/>
      <point x="396" y="715" type="curve" smooth="yes"/>
      <point x="306" y="715"/>
      <point x="213" y="689"/>
      <point x="142" y="641" type="curve"/>
      <point x="179" y="551" type="line"/>
      <point x="239" y="592"/>
      <point x="300" y="611"/>
      <point x="354" y="611" type="curve" smooth="yes"/>
      <point x="417" y="611"/>
      <point x="446" y="591"/>
      <point x="439" y="550" type="curve" smooth="yes"/>
      <point x="434" y="517"/>
      <point x="419" y="494"/>
      <point x="367" y="453" type="curve"/>
      <point x="410" y="468" type="line"/>
      <point x="89" y="468" type="line"/>
      <point x="77" y="394" type="line"/>
      <point x="314" y="394" type="line"/>
      <point x="305" y="401" type="line"/>
      <point x="176" y="302" type="line"/>
      <point x="217" y="312" type="line"/>
      <point x="64" y="312" type="line"/>
      <point x="52" y="238" type="line"/>
      <point x="134" y="238" type="line"/>
      <point x="131" y="252" type="line"/>
      <point x="89" y="213"/>
      <point x="71" y="180"/>
      <point x="65" y="144" type="curve" smooth="yes"/>
      <point x="50" y="51"/>
      <point x="130" y="-10"/>
    </contour>
  </outline>
</glyph>
<glyph name="ruble" format="2">
  <advance width="600"/>
  <unicode hex="20BD"/>
  <outline>
    <contour>
      <point x="64" y="0" type="line"/>
      <point x="193" y="0" type="line"/>
      <point x="216" y="146" type="line"/>
      <point x="377" y="146" type="line"/>
      <point x="388" y="220" type="line"/>
      <point x="227" y="220" type="line"/>
      <point x="240" y="302" type="line"/>
      <point x="361" y="302" type="line" smooth="yes"/>
      <point x="504" y="302"/>
      <point x="600" y="370"/>
      <point x="620" y="493" type="curve" smooth="yes"/>
      <point x="640" y="620"/>
      <point x="569" y="705"/>
      <point x="400" y="705" type="curve" smooth="yes"/>
      <point x="176" y="705" type="line"/>
      <point x="124" y="376" type="line"/>
      <point x="39" y="376" type="line"/>
      <point x="27" y="302" type="line"/>
      <point x="112" y="302" type="line"/>
      <point x="99" y="220" type="line"/>
      <point x="14" y="220" type="line"/>
      <point x="2" y="146" type="line"/>
      <point x="87" y="146" type="line"/>
    </contour>
    <contour>
      <point x="250" y="376" type="line"/>
      <point x="287" y="610" type="line"/>
      <point x="386" y="610" type="line" smooth="yes"/>
      <point x="473" y="610"/>
      <point x="515" y="573"/>
      <point x="502" y="491" type="curve" smooth="yes"/>
      <point x="488" y="409"/>
      <point x="436" y="376"/>
      <point x="350" y="376" type="curve" smooth="yes"/>
    </contour>
  </outline>
</glyph>
<glyph name="literSign" format="2">
  <advance width="606"/>
  <unicode hex="2113"/>
  <outline>
    <contour>
      <point x="294" y="-10" type="curve" smooth="yes"/>
      <point x="344" y="-10"/>
      <point x="401" y="10"/>
      <point x="443" y="49" type="curve"/>
      <point x="414" y="125" type="line"/>
      <point x="378" y="94"/>
      <point x="353" y="86"/>
      <point x="329" y="86" type="curve" smooth="yes"/>
      <point x="288" y="86"/>
      <point x="279" y="119"/>
      <point x="284" y="162" type="curve" smooth="yes"/>
      <point x="306" y="297" type="line"/>
      <point x="339" y="330" type="line" smooth="yes"/>
      <point x="432" y="421"/>
      <point x="507" y="509"/>
      <point x="507" y="615" type="curve" smooth="yes"/>
      <point x="507" y="678"/>
      <point x="457" y="715"/>
      <point x="393" y="715" type="curve" smooth="yes"/>
      <point x="304" y="715"/>
      <point x="247" y="654"/>
      <point x="231" y="553" type="curve" smooth="yes"/>
      <point x="191" y="298" type="line"/>
      <point x="78" y="200" type="line"/>
      <point x="114" y="154" type="line"/>
      <point x="193" y="222" type="line"/>
      <point x="182" y="245" type="line"/>
      <point x="165" y="139" type="line" smooth="yes"/>
      <point x="151" y="50"/>
      <point x="201" y="-10"/>
    </contour>
    <contour>
      <point x="321" y="396" type="curve"/>
      <point x="349" y="569" type="line" smooth="yes"/>
      <point x="355" y="605"/>
      <point x="375" y="630"/>
      <point x="403" y="630" type="curve" smooth="yes"/>
      <point x="422" y="630"/>
      <point x="432" y="618"/>
      <point x="432" y="595" type="curve" smooth="yes"/>
      <point x="432" y="537"/>
      <point x="388" y="468"/>
      <point x="338" y="414" type="curve" smooth="yes"/>
      <point x="333" y="408"/>
      <point x="328" y="402"/>
    </contour>
  </outline>
</glyph>
<glyph name="trademark" format="2">
  <advance width="954"/>
  <unicode hex="2122"/>
  <outline>
    <contour>
      <point x="142" y="284" type="line"/>
      <point x="255" y="284" type="line"/>
      <point x="307" y="613" type="line"/>
      <point x="432" y="613" type="line"/>
      <point x="446" y="705" type="line"/>
      <point x="84" y="705" type="line"/>
      <point x="69" y="613" type="line"/>
      <point x="194" y="613" type="line"/>
    </contour>
    <contour>
      <point x="440" y="284" type="line"/>
      <point x="537" y="284" type="line"/>
      <point x="582" y="566" type="line"/>
      <point x="565" y="566" type="line"/>
      <point x="649" y="357" type="line"/>
      <point x="700" y="357" type="line"/>
      <point x="852" y="566" type="line"/>
      <point x="834" y="566" type="line"/>
      <point x="789" y="284" type="line"/>
      <point x="887" y="284" type="line"/>
      <point x="954" y="705" type="line"/>
      <point x="862" y="705" type="line"/>
      <point x="674" y="446" type="line"/>
      <point x="695" y="446" type="line"/>
      <point x="592" y="705" type="line"/>
      <point x="507" y="705" type="line"/>
    </contour>
  </outline>
</glyph>
<glyph name="Ohm" format="2">
  <advance width="600"/>
  <unicode hex="2126"/>
  <outline>
    <contour>
      <point x="-11" y="0" type="line"/>
      <point x="224" y="0" type="line"/>
      <point x="240" y="101" type="line"/>
      <point x="190" y="175"/>
      <point x="175" y="262"/>
      <point x="180" y="350" type="curve" smooth="yes"/>
      <point x="189" y="497"/>
      <point x="253" y="610"/>
      <point x="352" y="610" type="curve" smooth="yes"/>
      <point x="426" y="610"/>
      <point x="468" y="560"/>
      <point x="468" y="466" type="curve" smooth="yes"/>
      <point x="468" y="335"/>
      <point x="416" y="181"/>
      <point x="314" y="101" type="curve"/>
      <point x="298" y="0" type="line"/>
      <point x="532" y="0" type="line"/>
      <point x="549" y="104" type="line"/>
      <point x="376" y="104" type="line"/>
      <point x="372" y="77" type="line"/>
      <point x="517" y="147"/>
      <point x="593" y="300"/>
      <point x="593" y="470" type="curve" smooth="yes"/>
      <point x="593" y="614"/>
      <point x="504" y="715"/>
      <point x="357" y="715" type="curve" smooth="yes"/>
      <point x="163" y="715"/>
      <point x="55" y="535"/>
      <point x="55" y="338" type="curve" smooth="yes"/>
      <point x="55" y="235"/>
      <point x="95" y="148"/>
      <point x="176" y="77" type="curve"/>
      <point x="180" y="104" type="line"/>
      <point x="6" y="104" type="line"/>
    </contour>
  </outline>
</glyph>
<glyph name="partialdiff" format="2">
  <advance width="600"/>
  <unicode hex="2202"/>
  <outline>
    <contour>
      <point x="272" y="-10" type="curve" smooth="yes"/>
      <point x="449" y="-10"/>
      <point x="578" y="142"/>
      <point x="578" y="398" type="curve" smooth="yes"/>
      <point x="578" y="596"/>
      <point x="446" y="744"/>
      <point x="269" y="744" type="curve" smooth="yes"/>
      <point x="235" y="744"/>
      <point x="211" y="742"/>
      <point x="188" y="738" type="curve"/>
      <point x="173" y="644" type="line"/>
      <point x="213" y="644" type="line" smooth="yes"/>
      <point x="380" y="644"/>
      <point x="474" y="528"/>
      <point x="451" y="361" type="curve"/>
      <point x="465" y="361" type="line"/>
      <point x="446" y="430"/>
      <point x="377" y="468"/>
      <point x="295" y="468" type="curve" smooth="yes"/>
      <point x="162" y="468"/>
      <point x="41" y="375"/>
      <point x="41" y="206" type="curve" smooth="yes"/>
      <point x="41" y="85"/>
      <point x="130" y="-10"/>
    </contour>
    <contour>
      <point x="280" y="86" type="curve" smooth="yes"/>
      <point x="211" y="86"/>
      <point x="168" y="134"/>
      <point x="168" y="203" type="curve" smooth="yes"/>
      <point x="168" y="295"/>
      <point x="226" y="376"/>
      <point x="316" y="376" type="curve" smooth="yes"/>
      <point x="384" y="376"/>
      <point x="430" y="336"/>
      <point x="430" y="270" type="curve" smooth="yes"/>
      <point x="430" y="181"/>
      <point x="368" y="86"/>
    </contour>
  </outline>
</glyph>
<glyph name="emptyset" format="2">
  <advance width="600"/>
  <unicode hex="2205"/>
  <outline>
    <contour>
      <point x="94" y="-20" type="line"/>
      <point x="173" y="82" type="line"/>
      <point x="216" y="60"/>
      <point x="265" y="46"/>
      <point x="317" y="46" type="curve" smooth="yes"/>
      <point x="479" y="46"/>
      <point x="612" y="173"/>
      <point x="612" y="328" type="curve" smooth="yes"/>
      <point x="612" y="410"/>
      <point x="576" y="482"/>
      <point x="522" y="532" type="curve"/>
      <point x="601" y="634" type="line"/>
      <point x="550" y="672" type="line"/>
      <point x="471" y="570" type="line"/>
      <point x="426" y="597"/>
      <point x="372" y="612"/>
      <point x="317" y="612" type="curve" smooth="yes"/>
      <point x="147" y="612"/>
      <point x="20" y="478"/>
      <point x="20" y="328" type="curve" smooth="yes"/>
      <point x="20" y="242"/>
      <point x="60" y="167"/>
      <point x="121" y="116" type="curve"/>
      <point x="43" y="14" type="line"/>
    </contour>
    <contour>
      <point x="165" y="172" type="line"/>
      <point x="122" y="211"/>
      <point x="96" y="267"/>
      <point x="96" y="328" type="curve" smooth="yes"/>
      <point x="96" y="450"/>
      <point x="193" y="541"/>
      <point x="317" y="541" type="curve" smooth="yes"/>
      <point x="358" y="541"/>
      <point x="396" y="530"/>
      <point x="428" y="512" type="curve"/>
    </contour>
    <contour>
      <point x="317" y="115" type="curve" smooth="yes"/>
      <point x="280" y="115"/>
      <point x="246" y="123"/>
      <point x="216" y="138" type="curve"/>
      <point x="478" y="475" type="line"/>
      <point x="514" y="436"/>
      <point x="536" y="385"/>
      <point x="536" y="328" type="curve" smooth="yes"/>
      <point x="536" y="203"/>
      <point x="435" y="115"/>
    </contour>
  </outline>
</glyph>
<glyph name="bulletoperator" format="2">
  <advance width="600"/>
  <unicode hex="2219"/>
  <outline>
    <contour>
      <point x="222" y="198" type="line"/>
      <point x="361" y="198" type="line"/>
      <point x="383" y="337" type="line"/>
      <point x="244" y="337" type="line"/>
    </contour>
  </outline>
</glyph>
<glyph name="radical" format="2">
  <advance width="600"/>
  <unicode hex="221A"/>
  <outline>
    <contour>
      <point x="161" y="-180" type="line"/>
      <point x="281" y="-180" type="line"/>
      <point x="678" y="758" type="line"/>
      <point x="569" y="758" type="line"/>
      <point x="220" y="-81" type="line"/>
      <point x="243" y="-81" type="line"/>
      <point x="183" y="330" type="line"/>
      <point x="17" y="330" type="line"/>
      <point x="2" y="235" type="line"/>
      <point x="142" y="235" type="line"/>
      <point x="87" y="277" type="line"/>
    </contour>
  </outline>
</glyph>
<glyph name="infinity" format="2">
  <advance width="600"/>
  <unicode hex="221E"/>
  <outline>
    <contour>
      <point x="167" y="124" type="curve" smooth="yes"/>
      <point x="208" y="124"/>
      <point x="262" y="143"/>
      <point x="299" y="201" type="curve"/>
      <point x="327" y="143"/>
      <point x="373" y="124"/>
      <point x="414" y="124" type="curve" smooth="yes"/>
      <point x="517" y="124"/>
      <point x="574" y="206"/>
      <point x="574" y="306" type="curve" smooth="yes"/>
      <point x="574" y="388"/>
      <point x="526" y="444"/>
      <point x="442" y="444" type="curve" smooth="yes"/>
      <point x="401" y="444"/>
      <point x="349" y="425"/>
      <point x="312" y="368" type="curve"/>
      <point x="283" y="425"/>
      <point x="236" y="444"/>
      <point x="195" y="444" type="curve" smooth="yes"/>
      <point x="95" y="444"/>
      <point x="36" y="362"/>
      <point x="36" y="263" type="curve" smooth="yes"/>
      <point x="36" y="178"/>
      <point x="86" y="124"/>
    </contour>
    <contour>
      <point x="178" y="200" type="curve" smooth="yes"/>
      <point x="138" y="200"/>
      <point x="116" y="231"/>
      <point x="116" y="273" type="curve" smooth="yes"/>
      <point x="116" y="325"/>
      <point x="146" y="369"/>
      <point x="193" y="369" type="curve" smooth="yes"/>
      <point x="225" y="369"/>
      <point x="260" y="350"/>
      <point x="276" y="285" type="curve"/>
      <point x="248" y="220"/>
      <point x="210" y="200"/>
    </contour>
    <contour>
      <point x="416" y="200" type="curve" smooth="yes"/>
      <point x="384" y="200"/>
      <point x="351" y="220"/>
      <point x="335" y="285" type="curve"/>
      <point x="363" y="350"/>
      <point x="399" y="369"/>
      <point x="431" y="369" type="curve" smooth="yes"/>
      <point x="472" y="369"/>
      <point x="495" y="337"/>
      <point x="495" y="296" type="curve" smooth="yes"/>
      <point x="495" y="243"/>
      <point x="464" y="200"/>
    </contour>
  </outline>
</glyph>
<glyph name="approxequal" format="2">
  <advance width="600"/>
  <unicode hex="2248"/>
  <outline>
    <contour>
      <point x="433" y="309" type="curve" smooth="yes"/>
      <point x="494" y="309"/>
      <point x="538" y="347"/>
      <point x="572" y="411" type="curve"/>
      <point x="511" y="455" type="line"/>
      <point x="489" y="416"/>
      <point x="461" y="393"/>
      <point x="424" y="393" type="curve" smooth="yes"/>
      <point x="398" y="393"/>
      <point x="370" y="408"/>
      <point x="337" y="425" type="curve" smooth="yes"/>
      <point x="299" y="444"/>
      <point x="254" y="466"/>
      <point x="210" y="466" type="curve" smooth="yes"/>
      <point x="150" y="466"/>
      <point x="105" y="428"/>
      <point x="72" y="363" type="curve"/>
      <point x="133" y="320" type="line"/>
      <point x="154" y="358"/>
      <point x="181" y="382"/>
      <point x="219" y="382" type="curve" smooth="yes"/>
      <point x="245" y="382"/>
      <point x="274" y="367"/>
      <point x="308" y="349" type="curve" smooth="yes"/>
      <point x="346" y="330"/>
      <point x="389" y="309"/>
    </contour>
    <contour>
      <point x="401" y="108" type="curve" smooth="yes"/>
      <point x="461" y="108"/>
      <point x="507" y="146"/>
      <point x="540" y="211" type="curve"/>
      <point x="479" y="254" type="line"/>
      <point x="457" y="215"/>
      <point x="430" y="192"/>
      <point x="392" y="192" type="curve" smooth="yes"/>
      <point x="366" y="192"/>
      <point x="339" y="207"/>
      <point x="305" y="224" type="curve" smooth="yes"/>
      <point x="267" y="243"/>
      <point x="223" y="265"/>
      <point x="178" y="265" type="curve" smooth="yes"/>
      <point x="118" y="265"/>
      <point x="74" y="228"/>
      <point x="41" y="162" type="curve"/>
      <point x="102" y="119" type="line"/>
      <point x="122" y="158"/>
      <point x="150" y="182"/>
      <point x="187" y="182" type="curve" smooth="yes"/>
      <point x="213" y="182"/>
      <point x="243" y="166"/>
      <point x="277" y="149" type="curve" smooth="yes"/>
      <point x="314" y="130"/>
      <point x="357" y="108"/>
    </contour>
  </outline>
</glyph>
<glyph name="notequal" format="2">
  <advance width="600"/>
  <unicode hex="2260"/>
  <outline>
    <contour>
      <point x="188" y="11" type="line"/>
      <point x="266" y="144" type="line"/>
      <point x="528" y="144" type="line"/>
      <point x="542" y="231" type="line"/>
      <point x="318" y="231" type="line"/>
      <point x="384" y="343" type="line"/>
      <point x="559" y="343" type="line"/>
      <point x="573" y="431" type="line"/>
      <point x="435" y="431" type="line"/>
      <point x="486" y="517" type="line"/>
      <point x="411" y="563" type="line"/>
      <point x="333" y="431" type="line"/>
      <point x="82" y="431" type="line"/>
      <point x="68" y="343" type="line"/>
      <point x="281" y="343" type="line"/>
      <point x="216" y="231" type="line"/>
      <point x="51" y="231" type="line"/>
      <point x="37" y="144" type="line"/>
      <point x="164" y="144" type="line"/>
      <point x="114" y="57" type="line"/>
    </contour>
  </outline>
</glyph>
<glyph name="lessequal" format="2">
  <advance width="600"/>
  <unicode hex="2264"/>
  <outline>
    <contour>
      <point x="524" y="125" type="line"/>
      <point x="539" y="215" type="line"/>
      <point x="101" y="361" type="line"/>
      <point x="91" y="300" type="line"/>
      <point x="576" y="445" type="line"/>
      <point x="591" y="541" type="line"/>
      <point x="75" y="381" type="line"/>
      <point x="59" y="285" type="line"/>
    </contour>
    <contour>
      <point x="14" y="0" type="line"/>
      <point x="505" y="0" type="line"/>
      <point x="518" y="88" type="line"/>
      <point x="28" y="88" type="line"/>
    </contour>
  </outline>
</glyph>
<glyph name="lozenge" format="2">
  <advance width="600"/>
  <unicode hex="25CA"/>
  <outline>
    <contour>
      <point x="180" y="-200" type="line"/>
      <point x="277" y="-200" type="line"/>
      <point x="557" y="265" type="line"/>
      <point x="429" y="758" type="line"/>
      <point x="332" y="758" type="line"/>
      <point x="52" y="295" type="line"/>
    </contour>
    <contour>
      <point x="242" y="-87" type="line"/>
      <point x="149" y="281" type="line"/>
      <point x="367" y="645" type="line"/>
      <point x="459" y="278" type="line"/>
    </contour>
  </outline>
</glyph>
<glyph name="__Zedescener-cy.case" format="2">
  <advance width="507"/>
  <anchor x="219" y="0" name="_bottom"/>
  <outline>
    <contour>
      <point x="139" y="-165" type="line"/>
      <point x="247" y="-165" type="line"/>
      <point x="283" y="60" type="line"/>
      <point x="174" y="60" type="line"/>
    </contour>
  </outline>
</glyph>
<glyph name="__Zedescener-cy" format="2">
  <advance width="502"/>
  <anchor x="215" y="0" name="_bottom"/>
  <outline>
    <contour>
      <point x="143" y="-130" type="line"/>
      <point x="243" y="-130" type="line"/>
      <point x="272" y="54" type="line"/>
      <point x="173" y="54" type="line"/>
    </contour>
  </outline>
</glyph>
<glyph name="__descender-cy.case.cy" format="2">
  <advance width="17"/>
  <anchor x="-40" y="0" name="_bottomright"/>
  <outline>
    <contour>
      <point x="8" y="-165" type="line"/>
      <point x="121" y="-165" type="line"/>
      <point x="163" y="102" type="line"/>
      <point x="-4" y="102" type="line"/>
      <point x="-20" y="0" type="line"/>
      <point x="34" y="0" type="line"/>
    </contour>
  </outline>
</glyph>
<glyph name="__descender-cy.case" format="2">
  <advance width="47"/>
  <anchor x="-40" y="0" name="_bottomright"/>
  <outline>
    <contour>
      <point x="46" y="-165" type="line"/>
      <point x="158" y="-165" type="line"/>
      <point x="200" y="102" type="line"/>
      <point x="-24" y="102" type="line"/>
      <point x="-40" y="0" type="line"/>
      <point x="72" y="0" type="line"/>
    </contour>
  </outline>
</glyph>
<glyph name="__tail-cy" format="2">
  <advance width="27"/>
  <anchor x="-40" y="0" name="_bottomright"/>
  <outline>
    <contour>
      <point x="-38" y="-130" type="line"/>
      <point x="66" y="-130" type="line"/>
      <point x="181" y="94" type="line"/>
      <point x="-25" y="94" type="line"/>
      <point x="-40" y="0" type="line"/>
      <point x="29" y="0" type="line"/>
    </contour>
  </outline>
</glyph>
<glyph name="_part.Qtail" format="2">
  <advance width="801.5"/>
  <anchor x="360" y="-9" name="_Qtail"/>
  <outline>
    <contour>
      <point x="520" y="-191" type="curve"/>
      <point x="617" y="-123" type="line"/>
      <point x="563" y="-85"/>
      <point x="509" y="-27"/>
      <point x="487" y="42" type="curve"/>
      <point x="376" y="-2" type="line"/>
      <point x="403" y="-79"/>
      <point x="461" y="-155"/>
    </contour>
  </outline>
</glyph>
<glyph name="_part.oslash" format="2">
  <advance width="592"/>
  <anchor x="297" y="253" name="center"/>
  <outline>
    <contour>
      <point x="266" y="-10" type="curve" smooth="yes"/>
      <point x="412" y="-10"/>
      <point x="523" y="76"/>
      <point x="549" y="238" type="curve" smooth="yes"/>
      <point x="576" y="411"/>
      <point x="492" y="515"/>
      <point x="327" y="515" type="curve" smooth="yes"/>
      <point x="181" y="515"/>
      <point x="69" y="430"/>
      <point x="43" y="268" type="curve" smooth="yes"/>
      <point x="16" y="94"/>
      <point x="101" y="-10"/>
    </contour>
    <contour>
      <point x="273" y="86" type="curve" smooth="yes"/>
      <point x="180" y="86"/>
      <point x="140" y="148"/>
      <point x="158" y="257" type="curve" smooth="yes"/>
      <point x="174" y="365"/>
      <point x="233" y="419"/>
      <point x="319" y="419" type="curve" smooth="yes"/>
      <point x="407" y="419"/>
      <point x="453" y="361"/>
      <point x="435" y="249" type="curve" smooth="yes"/>
      <point x="417" y="141"/>
      <point x="358" y="86"/>
    </contour>
  </outline>
</glyph>
<glyph name="brevecomb-cy.case" format="2">
  <anchor x="87" y="705" name="_top"/>
  <outline>
    <contour>
      <point x="92" y="760" type="curve" smooth="yes"/>
      <point x="188" y="760"/>
      <point x="264" y="808"/>
      <point x="301" y="900" type="curve"/>
      <point x="241" y="921" type="line"/>
      <point x="207" y="858"/>
      <point x="165" y="830"/>
      <point x="96" y="830" type="curve" smooth="yes"/>
      <point x="29" y="830"/>
      <point x="-11" y="857"/>
      <point x="-31" y="922" type="curve"/>
      <point x="-97" y="900" type="line"/>
      <point x="-78" y="814"/>
      <point x="-13" y="760"/>
    </contour>
  </outline>
</glyph>
<glyph name="brevecomb.case" format="2">
  <anchor x="82" y="705" name="_top"/>
  <anchor x="97" y="865" name="top"/>
  <outline>
    <contour>
      <point x="94" y="760" type="curve" smooth="yes"/>
      <point x="198" y="760"/>
      <point x="274" y="826"/>
      <point x="290" y="930" type="curve"/>
      <point x="220" y="939" type="line"/>
      <point x="208" y="873"/>
      <point x="163" y="835"/>
      <point x="99" y="835" type="curve" smooth="yes"/>
      <point x="35" y="835"/>
      <point x="-5" y="873"/>
      <point x="-4" y="939" type="curve"/>
      <point x="-75" y="930" type="line"/>
      <point x="-76" y="829"/>
      <point x="-8" y="760"/>
    </contour>
  </outline>
</glyph>
<glyph name="brevecomb_acutecomb.case" format="2">
  <anchor x="79" y="705" name="_top"/>
  <outline>
    <contour>
      <point x="95" y="764" type="curve" smooth="yes"/>
      <point x="193" y="764"/>
      <point x="262" y="823"/>
      <point x="277" y="918" type="curve"/>
      <point x="216" y="924" type="line"/>
      <point x="201" y="868"/>
      <point x="162" y="834"/>
      <point x="98" y="834" type="curve" smooth="yes"/>
      <point x="35" y="834"/>
      <point x="1" y="868"/>
      <point x="-4" y="924" type="curve"/>
      <point x="-66" y="918" type="line"/>
      <point x="-67" y="823"/>
      <point x="-3" y="764"/>
    </contour>
    <contour>
      <point x="57" y="891" type="line"/>
      <point x="135" y="891" type="line"/>
      <point x="261" y="1024" type="line"/>
      <point x="141" y="1024" type="line"/>
    </contour>
  </outline>
</glyph>
<glyph name="brevecomb_gravecomb" format="2">
  <anchor x="43" y="489" name="_top"/>
  <outline>
    <contour>
      <point x="61" y="551" type="curve" smooth="yes"/>
      <point x="159" y="551"/>
      <point x="228" y="610"/>
      <point x="243" y="704" type="curve"/>
      <point x="182" y="711" type="line"/>
      <point x="167" y="654"/>
      <point x="128" y="621"/>
      <point x="64" y="621" type="curve" smooth="yes"/>
      <point x="1" y="621"/>
      <point x="-33" y="654"/>
      <point x="-38" y="711" type="curve"/>
      <point x="-100" y="704" type="line"/>
      <point x="-101" y="610"/>
      <point x="-37" y="551"/>
    </contour>
    <contour>
      <point x="36" y="678" type="line"/>
      <point x="114" y="678" type="line"/>
      <point x="56" y="810" type="line"/>
      <point x="-63" y="810" type="line"/>
    </contour>
  </outline>
</glyph>
<glyph name="brevecomb_hookabovecomb" format="2">
  <anchor x="43" y="489" name="_top"/>
  <outline>
    <contour>
      <point x="61" y="551" type="curve" smooth="yes"/>
      <point x="159" y="551"/>
      <point x="228" y="610"/>
      <point x="243" y="704" type="curve"/>
      <point x="182" y="711" type="line"/>
      <point x="167" y="654"/>
      <point x="128" y="621"/>
      <point x="64" y="621" type="curve" smooth="yes"/>
      <point x="1" y="621"/>
      <point x="-33" y="654"/>
      <point x="-38" y="711" type="curve"/>
      <point x="-100" y="704" type="line"/>
      <point x="-101" y="610"/>
      <point x="-37" y="551"/>
    </contour>
    <contour>
      <point x="35" y="678" type="curve"/>
      <point x="103" y="678" type="line"/>
      <point x="107" y="723"/>
      <point x="176" y="721"/>
      <point x="176" y="775" type="curve" smooth="yes"/>
      <point x="176" y="804"/>
      <point x="144" y="823"/>
      <point x="86" y="823" type="curve" smooth="yes"/>
      <point x="43" y="823"/>
      <point x="14" y="816"/>
      <point x="-14" y="804" type="curve"/>
      <point x="-3" y="757" type="line"/>
      <point x="15" y="764"/>
      <point x="39" y="769"/>
      <point x="59" y="769" type="curve" smooth="yes"/>
      <point x="79" y="769"/>
      <point x="93" y="765"/>
      <point x="93" y="753" type="curve" smooth="yes"/>
      <point x="93" y="725"/>
      <point x="39" y="726"/>
    </contour>
  </outline>
</glyph>
<glyph name="brevecomb_tildecomb.case" format="2">
  <anchor x="80" y="705" name="_top"/>
  <outline>
    <contour>
      <point x="94" y="760" type="curve" smooth="yes"/>
      <point x="181" y="760"/>
      <point x="248" y="804"/>
      <point x="271" y="874" type="curve"/>
      <point x="211" y="890" type="line"/>
      <point x="192" y="852"/>
      <point x="155" y="830"/>
      <point x="97" y="830" type="curve" smooth="yes"/>
      <point x="38" y="830"/>
      <point x="4" y="852"/>
      <point x="-9" y="890" type="curve"/>
      <point x="-71" y="874" type="line"/>
      <point x="-59" y="804"/>
      <point x="6" y="760"/>
    </contour>
    <contour>
      <point x="-8" y="921" type="line"/>
      <point x="1" y="952"/>
      <point x="17" y="966"/>
      <point x="47" y="966" type="curve" smooth="yes"/>
      <point x="64" y="966"/>
      <point x="82" y="956"/>
      <point x="101" y="946" type="curve" smooth="yes"/>
      <point x="124" y="934"/>
      <point x="149" y="921"/>
      <point x="179" y="921" type="curve" smooth="yes"/>
      <point x="238" y="921"/>
      <point x="279" y="958"/>
      <point x="290" y="1029" type="curve"/>
      <point x="232" y="1033" type="line"/>
      <point x="223" y="1001"/>
      <point x="207" y="988"/>
      <point x="177" y="988" type="curve" smooth="yes"/>
      <point x="159" y="988"/>
      <point x="142" y="997"/>
      <point x="123" y="1007" type="curve" smooth="yes"/>
      <point x="100" y="1019"/>
      <point x="75" y="1032"/>
      <point x="46" y="1032" type="curve" smooth="yes"/>
      <point x="-15" y="1032"/>
      <point x="-55" y="995"/>
      <point x="-66" y="924" type="curve"/>
    </contour>
  </outline>
</glyph>
<glyph name="breveinvertedcomb.case" format="2">
  <anchor x="75" y="705" name="_top"/>
  <anchor x="97" y="865" name="top"/>
  <outline>
    <contour>
      <point x="-30" y="760" type="line"/>
      <point x="-19" y="826"/>
      <point x="27" y="865"/>
      <point x="91" y="865" type="curve" smooth="yes"/>
      <point x="155" y="865"/>
      <point x="194" y="826"/>
      <point x="193" y="760" type="curve"/>
      <point x="265" y="769" type="line"/>
      <point x="265" y="871"/>
      <point x="198" y="939"/>
      <point x="96" y="939" type="curve" smooth="yes"/>
      <point x="-8" y="939"/>
      <point x="-85" y="874"/>
      <point x="-101" y="769" type="curve"/>
    </contour>
  </outline>
</glyph>
<glyph name="caroncomb_dotaccentcomb" format="2">
  <anchor x="48" y="484" name="_top"/>
  <outline>
    <contour>
      <point x="4" y="554" type="line"/>
      <point x="113" y="554" type="line"/>
      <point x="238" y="712" type="line"/>
      <point x="158" y="712" type="line"/>
      <point x="64" y="623" type="line"/>
      <point x="-13" y="712" type="line"/>
      <point x="-93" y="712" type="line"/>
    </contour>
    <contour>
      <point x="29" y="752" type="line"/>
      <point x="143" y="752" type="line"/>
      <point x="157" y="839" type="line"/>
      <point x="43" y="839" type="line"/>
    </contour>
  </outline>
</glyph>
<glyph name="circumflexcomb.case" format="2">
  <anchor x="78" y="705" name="_top"/>
  <anchor x="99" y="865" name="top"/>
  <outline>
    <contour>
      <point x="-97" y="765" type="line"/>
      <point x="-10" y="765" type="line"/>
      <point x="93" y="869" type="line"/>
      <point x="172" y="765" type="line"/>
      <point x="259" y="765" type="line"/>
      <point x="152" y="939" type="line"/>
      <point x="45" y="939" type="line"/>
    </contour>
  </outline>
</glyph>
<glyph name="circumflexcomb_gravecomb.case" format="2">
  <anchor x="73" y="705" name="_top"/>
  <outline>
    <contour>
      <point x="-84" y="765" type="line"/>
      <point x="-5" y="765" type="line"/>
      <point x="90" y="861" type="line"/>
      <point x="167" y="765" type="line"/>
      <point x="246" y="765" type="line"/>
      <point x="150" y="929" type="line"/>
      <point x="41" y="929" type="line"/>
    </contour>
    <contour>
      <point x="238" y="872" type="line"/>
      <point x="310" y="872" type="line"/>
      <point x="238" y="1022" type="line"/>
      <point x="134" y="1022" type="line"/>
    </contour>
  </outline>
</glyph>
